/* XPM */
static char *enemy[] = {
/* columns rows colors chars-per-pixel */
"40 40 229 2 ",
"   c #34182B",
".  c #37102B",
"X  c #1F2223",
"o  c #24292C",
"O  c #2A3D38",
"+  c #293835",
"@  c #3B393A",
"#  c #36272F",
"$  c #140C12",
"%  c #431814",
"&  c #43211D",
"*  c #490B35",
"=  c #540A3C",
"-  c #59093F",
";  c #481839",
":  c #56143E",
">  c #461B2B",
",  c #432C29",
"<  c #45213C",
"1  c #582339",
"2  c #4E3333",
"3  c #6A363F",
"4  c #2D423C",
"5  c #344338",
"6  c #584837",
"7  c #595D35",
"8  c #373A44",
"9  c #3A3C56",
"0  c #591543",
"q  c #6B154D",
"w  c #7B1459",
"e  c #6E0C4E",
"r  c #583149",
"t  c #6C2F4F",
"y  c #364545",
"u  c #37574A",
"i  c #3B4752",
"p  c #3A5E52",
"a  c #3C6554",
"s  c #44424A",
"d  c #584849",
"f  c #464857",
"g  c #465959",
"h  c #515352",
"j  c #685759",
"k  c #785C59",
"l  c #745246",
"z  c #43695A",
"x  c #5C6857",
"c  c #42725D",
"v  c #4C5764",
"b  c #545A66",
"n  c #4E5273",
"m  c #6F596F",
"M  c #4C6464",
"N  c #58676B",
"B  c #487A65",
"V  c #577873",
"C  c #586D70",
"Z  c #776976",
"A  c #78737B",
"S  c #6A6C73",
"D  c #797343",
"F  c #981010",
"G  c #95383C",
"H  c #FB4837",
"J  c #83125D",
"K  c #8B1564",
"L  c #8B1A65",
"P  c #93166A",
"I  c #96196C",
"U  c #9D1B72",
"Y  c #A41C76",
"T  c #952A6D",
"R  c #92356F",
"E  c #A73176",
"W  c #855549",
"Q  c #8D4747",
"!  c #866159",
"~  c #986754",
"^  c #98775A",
"/  c #8C704C",
"(  c #A36A5A",
")  c #A57F5F",
"_  c #994678",
"`  c #8D5875",
"'  c #A54F61",
"]  c #8A6B6A",
"[  c #956966",
"{  c #936678",
"}  c #88797E",
"|  c #9B7574",
" . c #8A6874",
".. c #A47C7A",
"X. c #B37365",
"o. c #F45452",
"O. c #F87C6F",
"+. c #4B836A",
"@. c #588578",
"#. c #5A9B7E",
"$. c #56977B",
"%. c #50856C",
"&. c #6A846F",
"*. c #A98B5C",
"=. c #99836C",
"-. c #B88B69",
";. c #B78D76",
":. c #958B53",
">. c #C6896C",
",. c #CB9978",
"<. c #D29979",
"1. c #C28F71",
"2. c #DBA47C",
"3. c #E2A37E",
"4. c #4E5E87",
"5. c #4E5088",
"6. c #545A8B",
"7. c #5C5E96",
"8. c #645E8B",
"9. c #605F94",
"0. c #55788A",
"q. c #5E6199",
"w. c #5C6496",
"e. c #5B7794",
"r. c #55658A",
"t. c #6B618B",
"y. c #736487",
"u. c #78758B",
"i. c #62649C",
"p. c #64689D",
"a. c #61739B",
"s. c #6E7793",
"d. c #656AA2",
"f. c #6B6BA4",
"g. c #6B6DA7",
"h. c #6D72AA",
"j. c #7274AD",
"k. c #7578AF",
"l. c #7B7DBB",
"z. c #7678B4",
"x. c #AF3885",
"c. c #B05C8E",
"v. c #8C7383",
"b. c #B16290",
"n. c #58878E",
"m. c #5A9A85",
"M. c #5B8593",
"N. c #5E9C93",
"B. c #639A88",
"V. c #679A98",
"C. c #76918F",
"Z. c #59A889",
"A. c #4EB088",
"S. c #54B48C",
"D. c #5AB58E",
"F. c #5CA493",
"G. c #5CB691",
"H. c #5CBB94",
"J. c #56B992",
"K. c #4EAF89",
"L. c #64A98B",
"P. c #67A993",
"I. c #6AB595",
"U. c #62BB95",
"Y. c #65BC99",
"T. c #6AB898",
"R. c #73B69B",
"E. c #6AB093",
"W. c #7E80BF",
"Q. c #7A8EA6",
"!. c #5FC199",
"~. c #64C39C",
"^. c #6DC49E",
"/. c #67C89F",
"(. c #71C69E",
"). c #71C89E",
"_. c #6EC6A1",
"`. c #6CCBA3",
"'. c #6AC7A5",
"]. c #71C6A1",
"[. c #71C9A3",
"{. c #7ACBA6",
"}. c #73CAAA",
"|. c #7AC6A9",
" X c #76D2A9",
".X c #7F81C0",
"XX c #888798",
"oX c #9C8B99",
"OX c #97878D",
"+X c #BB9483",
"@X c #A99397",
"#X c #8587BA",
"$X c #9197B2",
"%X c #A69EAF",
"&X c #91AFB0",
"*X c #A9ABB9",
"=X c #B2ADB8",
"-X c #C49D89",
";X c #D4A88B",
":X c #E6AC85",
">X c #E9B489",
",X c #F2BC94",
"<X c #CEB8B2",
"1X c #EFB3B4",
"2X c #EC9099",
"3X c #80C6AB",
"4X c #81C8AC",
"5X c #86D6B0",
"6X c #F6C39C",
"7X c #EACAB9",
"8X c #F2D2BF",
"9X c #8587C1",
"0X c #9799C8",
"qX c #A4A6CD",
"wX c #BAB8C9",
"eX c #ADAFD4",
"rX c #BABBD9",
"tX c #C7BAC1",
"yX c #9EC7C0",
"uX c #A3CCC5",
"iX c #C7C5D6",
"pX c #CDD3DC",
"aX c #CBC9D5",
"sX c #ECD6D3",
"dX c #CED8E1",
"fX c #D9D7E4",
"gX c #E2D9E6",
"hX c #EEE1E2",
"jX c #F0E2E3",
/* pixels */
"|.}.}.}.}.}.}.}. X`.`././.~.~.).). X[.[.[.[.[.[.{.{.{.{.{.{.{.{.{.{.].[.{.[.{.{.",
"}.}.}.}.}.'.'.'././.~.!.D.S.!.!.).`.`.`.`.`.).`.^.`.`.[.`.[.[.'.].].].].(.(.[.(.",
"}.}.'.'./.'.'.`.`./.~.J.S.A.S.!./.`.`.`.`.[.).)./.^.`.[.[.[.[.[._.].].(.).].[.[.",
"}.'.'.H././.'.`.`./.~.J.S.A.S.!.~.`. X`./.).~.~.Y.~.^.[.}.{.`._.^.(.`.[.].).(.].",
"'.'.J.J.J.!.'.`.`.`./.H.S.K.J.!./.`. X`./.~.~.G.H.U.~.^.[.[.[.^.^.^.).].(.[.].).",
"'.J.J.K.J.!.`.`.`.`./.H.S.K.S.H./. X X`.~.~.G.G.H.U.^.^.[.`.`.^./.)._.).).].(.[.",
"'.!.S.K.K.J.!.'.'.`.Y.G.Z.Z.J.!./.`.`.).!.D.D.G.U.U.I.I.I.I.I.I.I.I.R.(.].(.].].",
"'.!.H.J.K.n.0.0.N.'.Y.n.0.n.F.!./.).~.H.D.D.D.U.U.$.p O O O O O 4 4 %.I.(.(.).].",
"}.'.F.n.n.e.i.d.e.n.M.a.d.a.e.n.N.U.U.S.S.D.D.B p 5 < * 0 0 0 0 0 * @ p c m.(.].",
"'.P.M.a.w.g.z.z.d.4.w.j.l.j.a.w.e.N.Z.A.S.Z.B @ # 0 e w L I I P J w 0 . # g #.(.",
"^.n.a.j.z.l.W.l.j.i.i.z.W..Xz.z.f.0.N.S.Z.%.5 0 q J P K J Y Y P J P L w 0 # i L.",
"R.e.h.W..X.X.XW.l.j.g.l..X.X.X.Xk.a.P.U.+.y < J L I I K J Y Y P w I P L K q # g ",
"V.Q.$X0X0X.X#XW..Xl.z.l.l..X9X0X0X$XV.F.u $ < _ R L P K J U Y K J I K T _ T * X ",
"r.0XrXrXqX9Xl.W..X.X.X.X.X.X0XeXiXqXs.0.u $    .c.R U K J Y Y P J U U _ c._ =   ",
"4.p.#X0XeX0Xj.l.l..X.Xl..X0XeXqX#Xj.w.0.u   q < ` b.x.T U x.Y Y U E b.{ r ; e = ",
"4.q.g.z.9X#Xi.g.j.z.l.d.q.j.9X9Xj.d.6.0.x 3 ' w r ` b.R w c.x.w q b.` t : - e - ",
"4.q.d.f.h.f.8.w.p.f.h.y.y.8.f.h.f.i.6.0.&.~ X.E e 3 k k d { R t 2 { d > - q - * ",
"4.q.d.d.8. ...y.9.9.6.b.>...y.9.d.i.6.0.&.W X.E T J 3 W ~ , & 3 ( 6 0 q = = = * ",
"4.q.f.q.8.v.;X+Xu.5.5.+X:X+Xu.9.d.i.6.M.E.&.2 l ' X.>.,.2.-.*.1.2.-.X.Q > . * * ",
"4.q.q.t.v.;.,.^ | v.n k -.-Xv.t.9.i.6.M.).#.@ W >.3.3.-.*.>X>X;.^ 2.:X>.W : * . ",
"0.w.n n ..<.-.7 ^ +Xy.5 / ,.;.m n w.e.V.`.L.5 W >.:X2.! j 3.6X=.d ;.:X,.~ t . X ",
"P.4.f r ~ 1.*.7 :.>X+X7 D -.X.l 9 n V.T.].T.+.d ~ >.;.Z N ;X,X=.n X.<.) 3 : . X ",
"^.v f b ~ ( / / *.3.2.:./ ( ( k i i N._.^.L.B b k ( (  .} <.3.;.y.[ X.[ j r . X ",
"L.i f Z  .[ [ ~ / ~ / / ~ {  .Z b 8 @.E.P.@.g XXoX| | ~ ~ ~ ~ ~ ~ | | v.oXZ 0 + ",
"C v 8 f A %X%Xd & % % , v.%XXXb 8 f b @.@.b N XXwXaXtX} , % % , d =XaXtX*Xu.f g ",
"b v f 8 h oXwXoXG F F  .*X%XS s 9 v b V @.b n u.*XfXgXtX[ F F G oXpXgXwXXXt.n v ",
"V b f 9 f XXfXgX2Xo.o.1XgXwXS 8 i n V B.P.C v f v.<XsXsX,Xo.H O.sXsXsX@Xb f f i ",
"].V O 8 C.wXpXdXdXdXdXdXpXuX%Xf o g B.(.].R.g X l -X6X6X,X6X,X6X6X6X>X[ , o 8 + ",
"|.T.V M B.4X4X4X4X4X3X{.4X|.R.V M L.(.].(.].B.+ S iXhXhXjXhXhXhXjXjXsX@Xt ; j E.",
"|.'.B g C.&XuX&XR.I.T.&XyXyX&XN z T.].].^.(.E.O j ;X7X8X<X} A @X7X8X7X=.r h C.5X",
"|.].c y S *XqXC.V c c C.&X*XXXf u T.].].^.(.E.+ 6 -.,.+X=.h u x ;.-X+Xk 5 c ).5X",
"].|.B y s b S z %.Z.#.M b b b O a T.]._.^.^.U.u @ h j x x #.$.B h j h 6 5 +.{.5X",
"].|.L.B 4 X y +.U._.].#.p + + p #.^.[._.^._.^.#.u o O z m.(.^.E.+.4 o 4 c L.). X",
"|.].].E.V z +.Y._.].`.].#.B c m.^._.[.[.`.].].(.$.c c m.]._.[.[.U.c a %.L.^.).{.",
"].].].].(.^._.].[.].].].].(.^.^.].[.[.].[.[.].`.(.^.^.^._.[.[.`.^.)./.).(.(.).(.",
"].].].|.[.].]._.[.`.`.].].[.`.[.].`.].`.[.[.[._._.^.^.^._.[.[.[.[.^.).^.(.).).).",
"].].].|.].[.].[.].[.].[.`.[.`.].'.[.].].[.}.[._.^.^._._._.[.[.[.[.`.^.).[.(.(.).",
"].(.(.].{.]._.[.`.].`.].].].`.].[._.[.[.[.[.[._._._._.[._.[.[.[.[.[.[.[.).).[.(.",
"|.^.^.(._.].`.[.].].].`.].`.].].].[.`.[.[.[.[.[.]._._.[.[.`.[.{.[.[.).).].(.(.(.",
"].T.^.(.].].].].[.[.[.[.].].[.[.[.[.].[.[.[.[.[.].[.[.[.[.{.].}.[.[.[.[.].[.(.[."
};
