/* XPM */
static char *exit[] = {
/* columns rows colors chars-per-pixel */
"40 40 225 2 ",
"   c #061D17",
".  c #17261A",
"X  c #252B1A",
"o  c #3F2912",
"O  c #38321D",
"+  c #3C210C",
"@  c #092D25",
"#  c #08382D",
"$  c #1D3625",
"%  c #083D31",
"&  c #173429",
"*  c #273322",
"=  c #3B3625",
"-  c #493418",
";  c #57391A",
":  c #4B2911",
">  c #673A13",
",  c #753D12",
"<  c #71380E",
"1  c #5D3C21",
"2  c #064C3D",
"3  c #084536",
"4  c #184738",
"5  c #3D4127",
"6  c #3C4233",
"7  c #284333",
"8  c #6A4018",
"9  c #774418",
"0  c #44473A",
"q  c #57573B",
"w  c #49422C",
"e  c #774B26",
"r  c #7E5326",
"t  c #75552C",
"y  c #6B5736",
"u  c #765B38",
"i  c #694E2A",
"p  c #7A633A",
"a  c #055242",
"s  c #055C4A",
"d  c #095645",
"f  c #1A5548",
"g  c #30594B",
"h  c #05614E",
"j  c #056551",
"k  c #046C56",
"l  c #046E58",
"z  c #3F655D",
"x  c #4C584A",
"c  c #565D45",
"v  c #4D5650",
"b  c #655448",
"n  c #53664C",
"m  c #5A664B",
"M  c #4A6958",
"N  c #556A56",
"B  c #557259",
"V  c #4F7259",
"C  c #656648",
"Z  c #646759",
"A  c #69775A",
"S  c #776B52",
"D  c #546B61",
"F  c #4C7364",
"G  c #567D68",
"H  c #567F73",
"J  c #6C6F6D",
"K  c #73796D",
"L  c #6D7874",
"P  c #803E10",
"I  c #8C4613",
"U  c #864817",
"Y  c #954C14",
"T  c #9C4D12",
"R  c #8B531E",
"E  c #94531D",
"W  c #9E5117",
"Q  c #A14F12",
"!  c #A45215",
"~  c #A85718",
"^  c #BB5C14",
"/  c #B45B17",
"(  c #B9621B",
")  c #864E22",
"_  c #885828",
"`  c #965825",
"'  c #845D38",
"]  c #A85E27",
"[  c #856238",
"{  c #986836",
"}  c #8E612E",
"|  c #A3612A",
" . c #B66726",
".. c #BD7539",
"X. c #B26D31",
"o. c #C15E14",
"O. c #C56216",
"+. c #CB6415",
"@. c #C6671B",
"#. c #D26917",
"$. c #D96B16",
"%. c #D36B19",
"&. c #DC6E19",
"*. c #E16E16",
"=. c #E47017",
"-. c #ED7417",
";. c #E37119",
":. c #E9771B",
">. c #F47717",
",. c #F67817",
"<. c #FE7C17",
"1. c #F27718",
"2. c #FD7D1A",
"3. c #F57A18",
"4. c #C76A20",
"5. c #D17630",
"6. c #E67B28",
"7. c #F67E21",
"8. c #805F48",
"9. c #986B48",
"0. c #8E6C4C",
"q. c #AD6F41",
"w. c #A97851",
"e. c #8C796C",
"r. c #C27A41",
"t. c #57826A",
"y. c #598B73",
"u. c #5C957A",
"i. c #59997E",
"p. c #4F8776",
"a. c #66866A",
"s. c #638978",
"d. c #63927D",
"f. c #64987B",
"g. c #FD8223",
"h. c #FD882C",
"j. c #FC923C",
"k. c #F58A37",
"l. c #AD8154",
"z. c #9C8B65",
"x. c #938872",
"c. c #AB8768",
"v. c #8C8A5B",
"b. c #CC8854",
"n. c #FC9849",
"m. c #FB9E54",
"M. c #EA9A56",
"N. c #FAA059",
"B. c #CA9A72",
"V. c #E79E64",
"C. c #FAAA69",
"Z. c #F7B279",
"A. c #EAAC76",
"S. c #5B9D83",
"D. c #699682",
"F. c #639E82",
"G. c #689781",
"H. c #7A8B85",
"J. c #59A887",
"K. c #52B38D",
"L. c #5AB38E",
"P. c #5BBA94",
"I. c #5BB792",
"U. c #4DB08A",
"Y. c #65AA8C",
"T. c #6BAC8E",
"R. c #66A487",
"E. c #71AA8B",
"W. c #67AC91",
"Q. c #6BB293",
"!. c #62BC96",
"~. c #64BF99",
"^. c #6BBC9A",
"/. c #61B592",
"(. c #72B998",
"). c #74AE94",
"_. c #5FC09A",
"`. c #63C29C",
"'. c #6DC49E",
"]. c #6ACA9E",
"[. c #72C69E",
"{. c #71C89E",
"}. c #7AC59F",
"|. c #6EC7A1",
" X c #6DCAA3",
".X c #6AC7A5",
"XX c #72C6A1",
"oX c #7AC6A2",
"OX c #72C9A3",
"+X c #7ACAA6",
"@X c #73CAAA",
"#X c #79C9AA",
"$X c #7FD4AD",
"%X c #79D0A7",
"&X c #898A87",
"*X c #97928D",
"=X c #999F94",
"-X c #918E87",
";X c #A19084",
":X c #9CA8A4",
">X c #A8A9A5",
",X c #BAB3AD",
"<X c #B9B7B5",
"1X c #B2ACA7",
"2X c #D7B89D",
"3X c #CEA785",
"4X c #F8BA85",
"5X c #ECBA90",
"6X c #84D9B2",
"7X c #81D3AF",
"8X c #BEC1BB",
"9X c #8BE0B8",
"0X c #F8C599",
"qX c #D0C5BA",
"wX c #F0CFB2",
"eX c #C2C2C1",
"rX c #FADDC2",
"tX c #E1D7C9",
"yX c #F3E4D7",
"uX c #EDEDED",
"iX c #E6E6E6",
"pX c #FCEEE2",
"aX c #FAF2E9",
"sX c #FDFAF5",
"dX c #FFFEFE",
/* pixels */
"#X#X@X@X@X@X@X@X X X X].`.`.'.XX%X%X@X XXXOXOX+X+X@X+X+X+X+XOX+X+X+XoXOXOXoXOX+X",
"@X@X@X@X@X.X.X.X.X].]._.L.J.S./.]..X X X X@X X].'.]. XOX X@XOX XXXXX|.|.XX{.{.XX",
"@X@X.X.X.X.X.X.X X.XP.S.s.<XB.u y.]. X X X X].'.'.'.|.OX@X@XOX XXX|. XXXXX{.XXXX",
"@X.X.XP.`.].].]. X.XP.u.wXV.5.1.( N Y.^.|.'.`.`.`.`.'. XOXOXXX|.'.|.{.XX{.XXXXXX",
"]._._.U._.`..X.X X Xu.0. .-., $.g.( 9 i n !.`.I.P.!.`.|.OXOX].{.'.|.|.{.{. X{.XX",
".X_.U.U.U._..X X@X^.y W +.>.Q ^ ,.-., : t m Y.I.I.!.'.'.OX XXX'.'.'.|.XX{.XX{.XX",
".X_.U.U.U._.]..X.X^.g | T I ! ! < ^ =.e >X' S.I.!.!.'.'.].XXXX X].{.|.XXXXXXXXoX",
"]._._._.U._._._.`..XH 3X3.>.<.<.^ < I $.{ { v P.~.'.'.'. X X@XOX@XXXXX'.XX{.].oX",
" X`._._.I.K.J.I.`.].Y.:Xm.2.<.<.<.,.O.Q -.3.} i.'.|.|.|.|.|.OX@XOXOX X|.XX{.|.XX",
" X.X]. X!.K.U.L._.'.|.t.M.<.<.<.<.<.<.Y #.<.%.p Q. XQ.D M T. X@XOX X|.|.|.XX{.XX",
"OX|. XOX'.L.L.I.~.^.W.M u :.<.<.<.<.<.&.T :.R =.p ^.G qXB.R n Y.OXOX'. X'.XX{.XX",
"XX{.{.{.[.'.'.'.^.W.=XB.Z u =.<.<.<.<.3.-.( i @.| Y.^.m k.3.#.R n J.'.'. X{.XXoX",
"{.{.}.}.}.{.'.u.c z.4X6.C J.r <.<.<.<.<.:.a.T.t.t.'.'.y.O./ - T T _ R.].].|.XX{.",
"[.[.(.7X}.f.q R E > %.y (.'.V O.<.<.<.,.| (.{.].'.'.'.a.O.;   @ . Y _ Y.XXXX{.oX",
"'.{.}.(.E.{ U ; & 3 9 q XX|.Q.e <.<.<.$.B XXOX X'.'.^.t @.O # % a . I _ T.{.'.OX",
"].{.7XE.u Y X a k s > u ^.XX'.q -.<.<.$.V +X@X X'.'.f.R R @ s j k j . ~ B XX{.oX",
"].{.}.A Y X s k k k 7 T G XXXXc 6.<.<.&.V '. X'.'.^.C #.= j k k l l 3 ! r Y.[.[.",
"].'.E.e > a l l k l d U i ^.XXv A.g.<.&.n '.'.'.'.F.` #.= # 2 j l l s : @.V '.[.",
"{.'.Z Y $ h k k k d 3 X / C F.M 5Xh.<.<._ /.'.'.Q.p ( o 4 s 2 3 j k k # Y q [.[.",
"].T._ > a l k j 3 2 a   9 @.W v 0XZ.g.<.~ f.f.0 t ^ : - H.f k j j k k s o 9 Y.[.",
"{.i.U $ j k f f s k k 2 @ : Y b wX5XC.g.,.R O ^ #.e , S 1X= s l k l l l $ ~ a.{.",
"%XC R 4 l s H.-X- 3 a a # @ 0 eXwXZ.N.g.<.g.I ! q.8Xz.4.] 5.L g k k l k 3 9 A }.",
"%Xy ; 2 a - S q.+.b 7 # # * b wXrX0Xj.<.<.<.! I b iX<X .-.$.-XJ 3 k l l s 8 A [.",
"OXB - g v r.&.&.5.-XJ @ @ 9 T 2.n.j.g.<.<.<.<.$.^ 8.| / W ^ u ; E 5 & 4 a 8 A [.",
"{.^.y.W.D -Xo.^ ;X9.E - I , +.<.<.<.<.<.<.<.<.<.<.,.1.&.u G G e ,.$.n (.4 , A ^.",
"[.[.|.OXT.M y ~ R &.<.! I ! g.m.C.C.h.<.<.<.<.<.>.>. .c R.[.d...<.*.B 7Xt.U a.[.",
"oX'.'.XX|.@X^.S.n ` ^ ` 9 q.wXaXsXsXyXZ.h.2.<.1.I 1 a.oXXX(.s.B.<.*.B 7XXXY.^.OX",
"oX[.'.XX@X|.|.|.|.Y.y.u.x 5XdXdXdXdXdXdXrXh.<.2.,.W D.$X#XY.*X0Xg.6.Z 7XOX{.OX%X",
"#XXXXX.X|.|.|.@X X|. XXXM iXdXdXdXdXdXdXsXC.1.4.O.,.~ C ).H.tXn.<.l.s.+X{.{.6X6X",
":XXX@X|.|.|.|..X XXXXX^.M uXdXdXdXdXdXdXdXwX` w.b.g.<.=.0.2X4Xg.h.p (.{.{.%X6X9X",
"@X.XXX@X|.XXXX XXX X(.H 0.,XdXdXdXdXdXdXuXx.2XsXsX0X2.<.O.! 3.2.k.L [.XX{.+X7X6X",
"+X XXXXXXXXX|.XXXXXXS.=XV.8.uXdXdXdXdXdX8Xc.pXsXdXwXg.<.,.I =.2.@.G oXXX{.OX%X7X",
"OXXXXX#X#XXX|.|.XXXXG r.m.~ 1XdXdXdXdXdX*X%.4X0X0Xm.<.<.<.o.T ,.w.u.|.|.'.{.OX%X",
"OXoX#XXXXXXX|.XX@X|.u./ 2.<.] ,XsXpXpXpXqX` 7.j.j.2.<.<.<.o.Q *.c [.'.'.'.{.[.{.",
"XXXXXXXX|.XX|.OX|.XX'.q ;.<.,. .e.3X5X0X4X` #.<.<.<.<.<.<.I 5.w.F.'.'.{.'.{.{.[.",
"XXXXXXXX@XXXXX|.|.XXR.N U Y O.1.$.` [ w.M.7.~ T o.<.<.3.<.) c.d.'.|.'.XX'.{.{.{.",
"XXXXOXOXOXoX|.XXXXW.F H a.C [ v.:.-.w i.u ( ^ I I ....v. .C F XXXXXX X{.XX{.{.{.",
"#X(.XXOXXXXXOXXXXXY.D v <XL -X>Xe < 6 '.Y.- I I b &XJ <XN *XF OX@XXX{. XXX{.'.{.",
"XX|.^.'.XXXX|. X@X|.^.G.D.G.F.D.d.y.i.XXXXQ.s.d.s.f.d.D.d.D.T.OXOX XXX{.{.{.'.XX",
"oX^.'.XXXXXXOXXX|.XXXXXX|.|..X@XOXOXXXXX X+XXX@XoXOXOX+XOXOXOXOXXXOXXXOXXXXXXXoX"
};
