/* XPM */
static char *floor[] = {
/* columns rows colors chars-per-pixel */
"40 40 45 1 ",
"  c #4CAF8A",
". c #52AE87",
"X c #54AF89",
"o c #4FB087",
"O c #4DB08A",
"+ c #54B48C",
"@ c #5AB58F",
"# c #5CB791",
"$ c #56B992",
"% c #5CBB94",
"& c #61BC96",
"* c #64BF99",
"= c #6CBF9A",
"- c #5FC199",
"; c #64C29B",
": c #6CC49E",
"> c #66C89F",
", c #6BCA9E",
"< c #72C59E",
"1 c #79C59F",
"2 c #71C89E",
"3 c #79C89F",
"4 c #64C5A0",
"5 c #6EC6A1",
"6 c #6DC9A3",
"7 c #6DC9A8",
"8 c #71C6A1",
"9 c #7BC6A2",
"0 c #72C9A3",
"q c #7ACAA6",
"w c #75C5A9",
"e c #74CCA9",
"r c #7CCEAA",
"t c #79D0A7",
"y c #72D1A9",
"u c #7DD2AD",
"i c #81CFAC",
"p c #80D2AE",
"a c #83D5B1",
"s c #85D9B4",
"d c #8ADAB7",
"f c #8BDDBA",
"g c #8DE0BB",
"h c #91E2BE",
"j c #93E3C0",
/* pixels */
"rwwwwe7eyy6,>;,2tt0000e8eeeqqeqqqq88q8qq",
"ew777747>>--$++->,6666662,60000668822828",
"e7777y>y,>--+o+-;6y666,:::80e00688888828",
"e4444>>>,,-$+o$->6y60,;&&;560005::828288",
"74$$$->yy,>$+o$%>6yy>;;&&&:5006:::568838",
"7$$ $->7y6;-+o@%,yy6;&###&;500665:88:288",
"7$$ O-4>66;&++#;>y6,;@##&&;:668662688228",
"7-$$$O--;,:;%#%;>,;%@@#&*::5500886282888",
"y;;;#oo@;:,::;;:;*#XX#&*:555566e00658828",
"6645=..@&,6066665*#.@#*56565560606556238",
"8588=@@#;:6065655*###&;50e65556006:5:828",
"8228<<:;:5,6::55085:**566055556656:,6288",
":2i==i<::5655:550e065556655545556:6:5829",
":3=i1=<<58000555608560555556555556662288",
":23=11=158000655865800065:66655466865828",
",<iii=i=68008888885000e6::006655:5552288",
"<111i9<888868886806855555:68680055:588<2",
"2=ii==888888888888855==55555580e5::582::",
",211i=880680878888855=::8q5::5e05:50q8:<",
"22=1i=888888888888888w58ee:=:5q0:5800822",
"2223=9888w686868888888<88w5=:88qerttq838",
"222<98588886w888868885::88:=888eusdu8288",
"<31<8886688688888w65::8888=88q8rsgfp8222",
"22238888868868868888:<wrq888q98ighfp8:::",
"325w885886888888w8886esdaq898<<ihjdi82==",
"9=5wq566856686888888wujjdr89=<<ihjdi8:=:",
"9:580856666668688w888rfhsrrw9=wihhfaq222",
"9=:866658656688888888rsdaraiw99qdffa88qr",
"w5:86666566566888888<wruuaffai<19rpq2tus",
"qww:6885608688668885<:8rusfgaww==2q82tsg",
"qw8w5886658686886888588euussrw=<:8q822ps",
"w<88w868086868688585550euuurr888880022tp",
"9w98w8588668006880685580yete0066688,:22q",
"w8w888858886688668868588008088082::2:238",
"88w=88606880688668868066856668888::2:2:3",
"889w88888668868006800005::::660088:5:222",
"888888856008006880680e06:::5880y06,22222",
"8=:38q68886668866086000855668000080088:3",
"8:::880668688605686060068688000000682228",
"9:<<808080800800808808008000000e00888888"
};
