/* XPM */
static char *obj[] = {
/* columns rows colors chars-per-pixel */
"40 40 154 2 ",
"   c #050303",
".  c #080505",
"X  c #260101",
"o  c #2D0000",
"O  c #360101",
"+  c #221E1E",
"@  c #242423",
"#  c #2B2625",
"$  c #2A2A2A",
"%  c #293C34",
"&  c #3E3D3D",
"*  c #4A0000",
"=  c #4C0E0B",
"-  c #570000",
";  c #5C0000",
":  c #550E0C",
">  c #541B18",
",  c #630404",
"<  c #6C0403",
"1  c #650908",
"2  c #750101",
"3  c #7D0706",
"4  c #631010",
"5  c #6B1F1E",
"6  c #641D1D",
"7  c #761110",
"8  c #5F2523",
"9  c #7C2827",
"0  c #2D443A",
"q  c #39463E",
"w  c #574036",
"e  c #354941",
"r  c #3C4C43",
"t  c #3E6A57",
"y  c #3D6553",
"u  c #444343",
"i  c #454948",
"p  c #5F5246",
"a  c #5C5348",
"s  c #5A5B5A",
"d  c #535554",
"f  c #625046",
"g  c #4B695C",
"h  c #5C605E",
"j  c #656055",
"k  c #65665A",
"l  c #556760",
"z  c #5E6461",
"x  c #566A61",
"c  c #586C63",
"v  c #457661",
"b  c #4D7062",
"n  c #467862",
"m  c #5C7265",
"M  c #5B746A",
"N  c #5D7B6F",
"B  c #626664",
"V  c #676968",
"C  c #6E6E6E",
"Z  c #726868",
"A  c #60736B",
"S  c #667F6E",
"D  c #757474",
"F  c #7B7B7B",
"G  c #830201",
"H  c #8B0000",
"J  c #990101",
"K  c #A50000",
"L  c #AB0000",
"P  c #A00A0A",
"I  c #AF0D0D",
"U  c #BF3F3F",
"Y  c #CA5D5D",
"T  c #CD6767",
"R  c #578B75",
"E  c #608777",
"W  c #638D7B",
"Q  c #60967E",
"!  c #679882",
"~  c #4FAF87",
"^  c #4CAF8A",
"/  c #52AE87",
"(  c #54AF89",
")  c #4FB087",
"_  c #4DB08A",
"`  c #54B48C",
"'  c #5AB58F",
"]  c #5CB791",
"[  c #56B992",
"{  c #5CBB94",
"}  c #65A387",
"|  c #65A68A",
" . c #69AB8E",
".. c #6AAC90",
"X. c #73A991",
"o. c #7BA391",
"O. c #67B091",
"+. c #6DB395",
"@. c #61BC96",
"#. c #64BF99",
"$. c #6CBF9A",
"%. c #71BD9C",
"&. c #5FC199",
"*. c #64C29B",
"=. c #6CC49E",
"-. c #66C89F",
";. c #6BCA9E",
":. c #72C59E",
">. c #79C59F",
",. c #71C89E",
"<. c #79C89F",
"1. c #64C5A0",
"2. c #6EC7A1",
"3. c #6DC9A3",
"4. c #6DC9A8",
"5. c #72C6A1",
"6. c #7BC6A2",
"7. c #71C9A3",
"8. c #7ACAA5",
"9. c #75C5A9",
"0. c #74CBA9",
"q. c #7CCDAA",
"w. c #79D0A7",
"e. c #72D1A9",
"r. c #7DD2AD",
"t. c #838483",
"y. c #8E8E8E",
"u. c #939393",
"i. c #9D9E9E",
"p. c #A4A4A4",
"a. c gray69",
"s. c #D98D8D",
"d. c #DCA3A3",
"f. c #E5B2B2",
"g. c #81CFAC",
"h. c #80D2AE",
"j. c #83D4B1",
"k. c #85DAB4",
"l. c #8AD9B6",
"z. c #8CDDBA",
"x. c #8CE0BA",
"c. c #91E2BE",
"v. c #93E3C0",
"b. c #C6C6C6",
"n. c #CCCCCC",
"m. c gray84",
"M. c #DFDFDF",
"N. c #EFCFCF",
"B. c #F4DFDF",
"V. c #E5E5E5",
"C. c #F0EFEF",
"Z. c #F5E2E2",
"A. c #FBFBFB",
"S. c #F7F2F2",
/* pixels */
"q.9.9.9.9.4.0.4.e.e.;.-.*.*.;.,.w.w.7.7.7.7.7.7.7.8.0.8.8.8.0.8.8.8.5.5.5.8.5.8.",
"0.4.9.4.4.4.3.3.-.-.-.&.[ ' [ &.-.;.3.3.3.3.7.3.3.3.3.7.3.7.7.7.5.5.5.5.,.7.:.7.",
"0.4.4.4.4.e.-.e.;.-.&.[ ` ) ` &.-.3.e.;.3.3.=.=.-.=.5.7.0.8.7.3.5.7.5.5.,.,.5.5.",
"0.4.1.&.1.1.-.-.;.;.*.[ ` ) ` &.-.3.e.3.7.;.*.*.#.*.=.7.7.7.7.2.=.=.3.,.7.:.7.:.",
"4.&.&.[ &.1.1.e.e.3.-.&._ ) ' { -.3.e.e.1.*.*.{ @.@.=.5.3.7.3.=.=.=.7.5.:.7.,.6.",
"4.&._ _ ^ &.-.-.e.3.*.{ ` ) ' @.-.e.e.7.-.@.] ] ] @.#.=.3.7.7.2.=.=.3.:.,.,.7.5.",
"4.&._ _ _ &.1.-.3.3.*.{ [ ` [ #.;.7.3.;.#.' ] ] @.@.*.-.2.7.7.2.2.2.5.5.5.5.,.5.",
"4.&.[ [ [ _ &.1.*.;.;.*.{ ] { *.-.-.*.{ ] ' ] @.#.$.=.2.3.7.3.7.7.7.2.;.5.,.5.5.",
"3.-.*.*.] ( ( [ @.-.2.2.-.#.=.2.=.#.] ( ' ] { #.2.2.2.3.2.2.7.0.7.3.7.2.2.5.,.5.",
"3.1.-.2.#.( / ' @.2.3.7.3.3.3.2.2.@.' / ( ] #.2.3.3.3.2.2.3.7.3.7.7.2.2.3.:.5.5.",
"7.2.5.5.$.@.' @.#.-.3.7.2.2.3.7.2.#.@.] ] @.=.2.7.0.3.2.2.2.3.7.7.3.2.;.:.=.7.5.",
"5.:.:.5.:.*.$.*.=.2.2.3.=.=.2.2.7.W N N N N E 5.7.3.2.2.2.2.3.3.3.2.=.=.3.:.,.5.",
"=.:.>.>.:.:.5.2.2.2.3.2.2.=...R S > * * * * = m R O.2.2.1.2.2.2.3.=.3.=.5.,.5.5.",
":.,.>.>.>.:.5.=.2.5.7.7.2.+.k 8 5 P K L K L K < : a  .3.2.2.2.2.2.3.7.3.,.7.,.5.",
"=.:.<.>.6.:.5.5.2.7.7.7.%.k 9 d.N.T I L L L L L K 3 f +.3.2.2.2.3.3.2.3.2.7.,.5.",
";.,.<.g.6.>.:.5.5.5.7...j 7 d.S.A.Z.T L L L L L L L G f  .2.2.1.=.2.=.3.:.,.:.5.",
";.,.>.g.g.%.5.5.7.5.3.v : I T B.A.f.U L L L L L L L L 1 t 7.7.3.2.2.=.2.5.5.:.:.",
";.:.>.>.>.>.:.5.5.5. .f 2 L L T s.U L L L L L L L L L H w } 0.7.2.=.=.2.7.:.=.:.",
";.,.>.>.>.>.:.5.5.7.g , L L L L L L L L L L L L L L L L 2 r 7.7.5.=.=.7.7.7.:.:.",
",.,.>.>.%.:.5.5.2.5.g , L L L L L L L L L L L L L L L L 2 r 7.7.=.=.7.7.7.5.;.:.",
",.,.<.,.:.5.5.5.5.5.g O 3 L L L L L L L L L L L L L L L 2 q 8.7.0.q.r.q.5.5.,.:.",
",.,.,.:.%.5.5.5.7.5.g   o 3 K J < < < K L L L L L L L H * q 7.8.r.k.k.r.7.7.5.5.",
"5.5.<.:.5.5.7.5.7.7.g     X - 6 D D Z 4 J L L L 2 ; - O   e 5.q.k.x.x.h.6.,.,.:.",
"6.,.5.6.7.7.5.3.5.1.| 0 @ #   & C.A.M.# - - ; - X   + # % ! 5.q.x.c.z.h.5.=.=.:.",
"5.:.9.5.7.7.5.3.5.7.2.n i F & u C.A.V.$     . . u B D d y =.:.q.c.c.l.q.8.=.$.$.",
"5.:.%.7.7.7.2.7.3.5.2.| c t.p.D y.u.u.D C C C C b.M.u.c ! =.5.g.c.c.z.g.5.=.$.=.",
"6.$.2.7.7.7.3.2.3.3.2.5.+.M t.a.F F t.V.A.A.A.m.b.y.B u.6.%.6.g.c.v.z.j.8.:.=.,.",
"6.:.2.2.3.2.3.3.2.3.3.3.7.+.m V i.b.n.n.n.n.b.F s A X.j.8.5.6.q.l.z.z.j.5.7.7.r.",
"6.5.2.2.3.2.3.3.2.3.2.2.3.5...b l s s s s s h M b X.z.k.j.8.>.>.6.q.g.8.,.<.h.k.",
"6.9.4.5.2.9.3.2.3.2.7.3.2.3.2.5.9.N l l x x M 6.q.k.x.v.j.q.5.%.$.5.6.7.;.w.k.x.",
"9.9.5.5.2.5.9.2.2.7.3.5.7.5.2.7.7.2.2.2.2.%.7.0.r.r.k.k.r.5.5.%.=.5.8.,.,.w.r.k.",
"6.9.5.5.9.5.2.2.3.5.7.3.5.3.7.2.7.5.5.2.2.2.7.0.r.r.r.q.0.9.2.4.2.5.7.7.;.<.w.h.",
"9.9.5.9.9.5.2.5.2.7.7.2.7.5.3.7.7.2.7.5.2.2.3.7.0.0.q.7.7.7.3.5.3.2.7.=.,.,.7.w.",
"5.5.6.5.5.5.2.5.7.2.7.2.2.7.7.2.7.2.2.7.2.2.5.7.7.7.7.7.7.7.5.2.2.5.:.=.=.=.,.<.",
"5.5.9.%.2.5.2.7.7.2.7.7.2.7.5.3.2.7.7.2.7.7.7.2.2.5.3.3.2.7.7.7.7.=.=.=.=.,.:.,.",
"5.5.9.7.9.5.7.7.2.7.7.2.7.5.3.5.7.7.2.7.7.7.7.2.=.=.=.=.2.3.7.3.7.3.=.,.=.:.,.,.",
"5.5.5.5.8.3.7.2.7.3.2.7.3.2.7.5.5.7.2.7.0.7.7.2.=.=.2.2.2.5.7.7.7.7.2.:.7.:.,.:.",
"5.:.:.5.7.7.2.7.5.5.7.2.5.7.5.3.3.5.7.2.7.7.7.5.2.2.2.2.7.7.0.7.7.7.:.7.:.;.:.,.",
":.=.$.:.5.5.5.2.3.5.2.5.7.3.3.5.3.7.2.7.3.7.7.3.5.2.7.7.7.7.7.7.7.7.;.7.7.,.:.5.",
"6.=.=.:.5.5.7.7.7.7.2.9.7.7.7.7.7.7.7.7.7.7.7.7.7.7.7.7.7.7.8.7.7.7.5.5.5.:.5.5."
};
