/* XPM */
static char *player_down[] = {
/* columns rows colors chars-per-pixel */
"40 40 200 2 ",
"   c #0E0C0C",
".  c #100908",
"X  c #100E1E",
"o  c #0E1211",
"O  c #24151D",
"+  c #341211",
"@  c #2D221E",
"#  c #171623",
"$  c #2F1F38",
"%  c #1A252A",
"&  c #1D2934",
"*  c #382624",
"=  c #3A2C35",
"-  c #492F26",
";  c #6E2A30",
":  c #793A36",
">  c #35483F",
",  c #72483E",
"<  c #26284B",
"1  c #333252",
"2  c #32336C",
"3  c #3D3A6F",
"4  c #383673",
"5  c #3D3B76",
"6  c #4F3645",
"7  c #4B396E",
"8  c #365449",
"9  c #3C5B56",
"0  c #36604D",
"q  c #3F4C7A",
"w  c #545152",
"e  c #6E5448",
"r  c #7C5745",
"t  c #486859",
"y  c #58755F",
"u  c #767059",
"i  c #515568",
"p  c #544B7B",
"a  c #465777",
"s  c #6E5975",
"d  c #476B66",
"f  c #567564",
"g  c #57787D",
"h  c #903438",
"j  c #B63738",
"k  c #BD393A",
"l  c #C13A39",
"z  c #9B423D",
"x  c #88593B",
"c  c #BD493E",
"v  c #CC423B",
"b  c #D5493E",
"n  c #D94D3F",
"m  c #983947",
"M  c #BF3E40",
"N  c #944E46",
"B  c #BF4244",
"V  c #AF564A",
"C  c #9A7344",
"Z  c #896A58",
"A  c #8A7757",
"S  c #AA6657",
"D  c #AA6B5B",
"F  c #AF755B",
"G  c #925C68",
"H  c #BC5961",
"J  c #957C62",
"K  c #846A70",
"L  c #A87C66",
"P  c #B16F74",
"I  c #C54B48",
"U  c #CE5550",
"Y  c #E55843",
"T  c #C66C55",
"R  c #C06C58",
"E  c #DA645A",
"W  c #EF6448",
"Q  c #F66647",
"!  c #F86848",
"~  c #E76450",
"^  c #EB7461",
"/  c #52886E",
"(  c #598C74",
")  c #5D8E79",
"_  c #67866E",
"`  c #748C73",
"'  c #6E9077",
"]  c #63937D",
"[  c #669979",
"{  c #BC825E",
"}  c #838372",
"|  c #868975",
" . c #988A76",
".. c #8C9073",
"X. c #A4836B",
"o. c #BC8672",
"O. c #92A97B",
"+. c #CF8A6C",
"@. c #D58E6E",
"#. c #CD8E70",
"$. c #D79675",
"%. c #DA9674",
"&. c #E4A57E",
"*. c #52578A",
"=. c #56768E",
"-. c #4E6393",
";. c #567692",
":. c #716795",
">. c #816A84",
",. c #BB7786",
"<. c #699983",
"1. c #69908A",
"2. c #799F87",
"3. c #4EAF89",
"4. c #54AF88",
"5. c #4EB088",
"6. c #53B48C",
"7. c #5AB58F",
"8. c #59B891",
"9. c #5CBB94",
"0. c #66AC8D",
"q. c #77A889",
"w. c #74AE90",
"e. c #68B391",
"r. c #63BD97",
"t. c #64BF98",
"y. c #6BBE99",
"u. c #79B795",
"i. c #73BE9A",
"p. c #5F85A4",
"a. c #638CAC",
"s. c #5FC199",
"d. c #64C39C",
"f. c #6DC49E",
"g. c #66C89F",
"h. c #6BCA9E",
"j. c #72C59E",
"k. c #79C59F",
"l. c #71C89E",
"z. c #79C89F",
"x. c #64C5A0",
"c. c #6EC7A1",
"v. c #6DCAA3",
"b. c #6DC9A8",
"n. c #72C6A1",
"m. c #7BC6A2",
"M. c #72C9A3",
"N. c #7ACAA5",
"B. c #75C5A9",
"V. c #73CBAA",
"C. c #7CCDAA",
"Z. c #79D0A7",
"A. c #7DD3AD",
"S. c #889A85",
"D. c #8C869F",
"F. c #B28882",
"G. c #89A888",
"H. c #8DB58A",
"J. c #95AD92",
"K. c #87B797",
"L. c #93B897",
"P. c #8B88A8",
"I. c #B393AB",
"U. c #AB9CB7",
"Y. c #B6A6B6",
"T. c #B1B1BD",
"R. c #D39399",
"E. c #F29283",
"W. c #C8A480",
"Q. c #E5AD85",
"!. c #EAB58B",
"~. c #D8B0BD",
"^. c #88C59B",
"/. c #97C798",
"(. c #A6C798",
"). c #83C9A5",
"_. c #85CCA9",
"`. c #94C8A5",
"'. c #98C6AE",
"]. c #9BCCAA",
"[. c #81D2AE",
"{. c #96CCB1",
"}. c #83D5B2",
"|. c #85DAB4",
" X c #8AD9B6",
".X c #8CDDBA",
"XX c #99D5B5",
"oX c #A5CBAA",
"OX c #A0D5BB",
"+X c #8BE0B8",
"@X c #91E2BE",
"#X c #F8C090",
"$X c #A1A1C4",
"%X c #DBB9C7",
"&X c #93E3C0",
"*X c #D4C3D6",
"=X c #E2CDDA",
"-X c #CDCDE4",
";X c #D7D2E6",
":X c #E4D5E4",
/* pixels */
"C.B.B.B.B.V.V.b.v.Z.v.h.g.g.h.h.Z.Z.M.M.M.M.M.M.M.C.V.M.C.C.M.C.M.N.N.M.M.N.M.N.",
"V.b.b.b.b.b.v.v.g.g.s.s.s.6.8.s.g.h.v.v.v.v.v.v.c.c.v.M.M.M.M.M.n.n.n.n.f.j.j.M.",
"V.b.b.b.b.b.x.v.h.g.s.s.5.5.6.s.h.v.v.v.M.v.f.g.f.f.c.M.V.M.M.c.c.M.c.n.M.M.j.n.",
"V.b.x.d.x.g.g.v.h.g.s.6.6.5.6.s.g.v.v.v.v.f.d.r.d.d.f.c.M.M.M.c.f.f.M.l.j.l.l.n.",
"x.s.s.s.s.x.g.g.v.v.h.s.6.6.8.9.v.v.b.b.v.g.r.r.r.r.f.c.M.M.v.h.f.f.c.n.n.h.n.n.",
"b.s.3.3.3.s.g.b.v.v.g.s.6.3.6.9.v.A.A.A.M.y.y.r.9.r.d.f.M.M.M.c.c.f.c.M.n.n.z.n.",
"b.s.3.3.3.s.g.g.v.v.d.r.6.6.e.r. XXXOXXX{.{.'.'.y.r.f.x.h.M.M.c.c.l.c.n.j.M.h.n.",
"x.s.8.s.6.6.s.x.d.f.g.d.9.u.`.S.| | } } K | } } S.L.`.f.c.M.b.M.M.c.M.c.l.j.j.M.",
"b.x.s.g.9.4.4.7.d.f.v.g.x.u.J.D R T T T T T T T S  .K.B.c.B.b.b.M.M.c.c.c.M.M.k.",
"b.x.g.v.t.4.4.7.r.f.c.b.).K.J I Y ! ! ! Q ! ! Q Y D S._.c.c.M.b.M.c.c.c.c.l.j.M.",
"M.f.c.M.f.7.7.r.t.f.M.v.{.J.Z W ! ! ! ! ! ! ! ! W T J oXM.c.c.v.M.b.c.h.M.n.n.n.",
"M.j.j.n.f.f.y.d.f.c.c.h.G.J I W ! ! ! ! ! ! Q Q Q I V S.j.c.c.c.c.c.f.h.h.l.l.n.",
"f.l.k.k.k.n.n.c.c.c.c.f.] Z k b W W Q Q Q Q ! Q Y l N _ y.c.c.c.c.v.c.c.M.f.k.M.",
"f.z.k.k.k.n.n.f.c.c.N._.( e k k Y Y ~ E.E.^ Y Y l l z t u.M.x.c.c.c.v.M.h.n.l.n.",
"f.j.z.k.m.j.n.c.c.M.M.]._ e j B l M U =X:XR.M k I k z t L.).M.c.M.c.n.M.n.l.j.M.",
"h.l.z.).m.k.j.c.M.n.n.) A x : U.H P U.I I ,.I.M I.G : C _ e.c.c.x.f.c.h.f.M.h.k.",
"h.l.k.).m.m.j.n.M.j.f./ J x O *.Y.=X;X%X~.*X;X~.:.1 - { / 0.l.M.c.f.c.c.n.f.j.j.",
"h.l.k.k.k.j.n.n.n.j.f.[ u e * s >.$X$X$X$X$X$XU.:.6 - A _ e.Z.Z.c.f.f.c.M.n.f.f.",
"h.l.k.k.k.m.n.c.c.M.l.(./ w N +.s 7 5 *.p 3 3 p +.D , 0 H.^.v.M.c.f.f.M.M.M.j.j.",
"h.l.k.k.i.j.n.n.n.n.l.h.( u +.@.Q.G @ Q.#Xr * Q.$.+.X.0 e.l.M.M.c.f.n.M.M.M.j.j.",
"l.l.l.z.i.m.n.n.M.n.M.n.L...D @.%.F , !.#XF , %.%.L J O.j.k.n.M.V.A.A.C.M.M.M.j.",
"M.M.z.j.j.n.c.n.n.c.M.^.[ _ w r S D D &.Q.#.S S N e i ` ^.z.M.N.A.|.|.A.M.n.l.z.",
"M.M.k.l.n.n.n.M.M.c.j.L.' d 2 X ; N D F F F D , # < a y G.^.m.C. X+X X[.M.j.j.j.",
"M.j.k.M.M.n.c.n.c.k.j.` W.F.5 4 m ; .     . + j 7 4 s !.| w.M.C.+X@X X[.M.f.f.j.",
"k.j.f.B.n.M.n.n.M.c.j.` o.$.P p m j z P.D.G h j 7 G o.$.} q.j.C.&X&X XC.M.j.r.f.",
"k.f.c.B.M.n.M.b.c.M.M.G. .A - $ h v E *X-XR.n k $ = r X.O.q.j.A.&X&X X[.M.f.y.f.",
"m.f.c.c.M.b.c.c.c.v.M./.G.y % $ ; m V Y.T.o.c m = % > ..L.K.m._..X&X.X}.N.j.f.k.",
"m.y.c.n.b.c.c.c.v.c.c.M.].K.=.a.*.1   o o o # 7 p.=.=.(.^.m.B.C. X.X.XA.M.n.M.A.",
"B.n.c.c.c.c.c.v.c.c.c.v.m.0.t % =.a.=.8 8 d a.a.& 8 )  X}.M.j.m.m.C.A.C.l.M.[.|.",
"B.c.B.B.c.M.M.c.M.b.c.c.v.e.f < q ;.1.2.2.1.=.-.< 9 <..X|.C.n.y.y.j.m.n.l.Z.|.+X",
").m.n.c.n.c.c.b.c.c.M.c.n.i.<.a a g <.].].K.) a a =.w.}.A.B.n.f.j.j.C.l.l.M.[.|.",
"B.n.n.n.n.n.M.M.M.M.c.b.n.).'.) ) w.{.m.j._.`.] ] K.XXC.C.n.n.n.M.M.l.l.l.M.Z.[.",
"m.n.B.n.n.n.n.n.v.n.M.c.M.M.m.c.f.f.m.f.c.n.M.j.n.M.C.V.M.M.M.c.c.M.c.h.f.l.l.Z.",
"n.B.m.B.n.n.n.b.v.n.b.n.M.c.c.c.M.M.c.M.c.c.M.M.M.M.M.M.M.c.c.M.M.c.f.j.f.f.l.N.",
"n.n.n.c.n.n.n.b.n.n.v.n.c.M.n.b.M.c.M.M.M.M.M.c.c.c.j.c.c.M.M.M.M.f.f.f.f.l.j.l.",
"n.n.B.n.n.n.c.n.v.n.n.v.M.c.n.M.c.M.c.b.M.M.M.c.f.f.f.f.c.c.M.M.M.n.h.j.f.j.l.l.",
"B.n.n.M.m.v.n.c.M.c.c.M.c.M.M.c.M.M.c.M.M.M.M.c.c.f.c.c.c.M.M.V.M.c.f.M.l.l.j.j.",
"n.y.j.j.M.n.M.c.c.n.M.b.M.c.c.M.c.M.M.c.M.M.M.c.c.c.c.c.M.M.M.M.M.c.M.c.M.j.h.k.",
"n.f.y.j.n.n.b.M.M.c.c.M.M.c.M.c.M.c.M.b.M.M.M.M.c.c.M.n.M.M.M.M.M.M.M.j.j.h.j.n.",
"N.f.f.j.n.M.n.M.M.M.M.M.M.M.M.M.c.M.M.M.M.M.M.M.M.M.M.M.M.M.M.V.M.M.M.M.M.j.n.n."
};
