/* XPM */
static char *player_left2[] = {
/* columns rows colors chars-per-pixel */
"40 40 189 2 ",
"   c #1E0D12",
".  c #381E19",
"X  c #151325",
"o  c #1E3329",
"O  c #4D302A",
"+  c #6D2B2B",
"@  c #772D2C",
"#  c #733733",
"$  c #763E3D",
"%  c #714437",
"&  c #28304F",
"*  c #33336F",
"=  c #373B74",
"-  c #383C75",
";  c #5D3046",
":  c #623A4D",
">  c #443567",
",  c #413D78",
"<  c #304C4C",
"1  c #3B594A",
"2  c #3C6855",
"3  c #3E6D59",
"4  c #37426F",
"5  c #534E44",
"6  c #455848",
"7  c #7B4544",
"8  c #70504F",
"9  c #71594E",
"0  c #46604F",
"q  c #5A6949",
"w  c #466B59",
"e  c #47715D",
"r  c #5A7559",
"t  c #766C51",
"y  c #7B6B59",
"u  c #62725C",
"i  c #584B6B",
"p  c #464279",
"a  c #70526C",
"s  c #477B65",
"d  c #5E7A62",
"f  c #706463",
"g  c #697963",
"h  c #83312E",
"j  c #943534",
"k  c #A03232",
"l  c #B23535",
"z  c #BF3737",
"x  c #BB3939",
"c  c #C13838",
"v  c #87473E",
"b  c #97693E",
"n  c #92733C",
"m  c #AF7838",
"M  c #D74C3E",
"N  c #824B45",
"B  c #874A4D",
"V  c #845747",
"C  c #95584E",
"Z  c #BC4742",
"A  c #AC5F49",
"S  c #B94E54",
"D  c #BC545B",
"F  c #876B58",
"G  c #966B57",
"H  c #A1614F",
"J  c #AD624C",
"K  c #B8735B",
"L  c #846965",
"P  c #837A66",
"I  c #AF7470",
"U  c #DD5140",
"Y  c #E75943",
"T  c #EC5E45",
"R  c #E96247",
"E  c #F76747",
"W  c #F86848",
"Q  c #C75F63",
"!  c #D17968",
"~  c #F07761",
"^  c #55886F",
"/  c #538A72",
"(  c #539175",
")  c #59987D",
"_  c #698769",
"`  c #7F8770",
"'  c #689679",
"]  c #759778",
"[  c #75A27F",
"{  c #9D883C",
"}  c #AD8D3A",
"|  c #BF9A43",
" . c #BDAF54",
".. c #8D9779",
"X. c #859D7B",
"o. c #AE856A",
"O. c #98AA7F",
"+. c #C59D4E",
"@. c #D0AD48",
"#. c #C5846A",
"$. c #D48C6E",
"%. c #D68F70",
"&. c #CE9472",
"*. c #D99271",
"=. c #D99775",
"-. c #E19D79",
";. c #CAA37D",
":. c #E2C34F",
">. c #F0CF56",
",. c #434D87",
"<. c #537589",
"1. c #5A79A4",
"2. c #B87181",
"3. c #6E8482",
"4. c #54AF88",
"5. c #4FB087",
"6. c #4DB08A",
"7. c #53B48C",
"8. c #5BB48E",
"9. c #5CB791",
"0. c #56B992",
"q. c #5CBB94",
"w. c #66A484",
"e. c #77A684",
"r. c #79B28D",
"t. c #65AF90",
"y. c #66B492",
"u. c #69B695",
"i. c #62BD96",
"p. c #69B997",
"a. c #64BF98",
"s. c #6BBE9A",
"d. c #7AB893",
"f. c #71BE9B",
"g. c #5FC199",
"h. c #64C39C",
"j. c #6DC49E",
"k. c #66C89F",
"l. c #6BCA9E",
"z. c #72C59E",
"x. c #7BC69F",
"c. c #71C89E",
"v. c #7CC99F",
"b. c #64C5A0",
"n. c #6EC7A1",
"m. c #6DC9A3",
"M. c #6DC9A8",
"N. c #72C6A1",
"B. c #7BC6A2",
"V. c #71C9A3",
"C. c #7ACAA5",
"Z. c #75C5A9",
"A. c #73CAAA",
"S. c #7CCDAA",
"D. c #74D0A8",
"F. c #7FD3AD",
"G. c #819A93",
"H. c #B48997",
"J. c #93AE8C",
"K. c #81B592",
"L. c #85BE95",
"P. c #A7BF8F",
"I. c #A39AB7",
"U. c #A5A7BE",
"Y. c #D3969F",
"T. c #D6A689",
"R. c #E8AE85",
"E. c #F3BA8C",
"W. c #87C69C",
"Q. c #99C294",
"!. c #95C799",
"~. c #A8C391",
"^. c #81CBA5",
"/. c #92CBA1",
"(. c #80D2AE",
"). c #82D4B0",
"_. c #85DAB4",
"`. c #8AD9B6",
"'. c #8CDDBA",
"]. c #8BE0B8",
"[. c #91E2BE",
"{. c #9D9CC1",
"}. c #B2A7C4",
"|. c #DAB7C1",
" X c #BFC5CE",
".X c #93E3C0",
"XX c #C7C4D4",
"oX c #D8D2E4",
"OX c #E2DCEB",
/* pixels */
"S.Z.Z.Z.Z.A.A.M.D.D.m.k.k.h.l.c.V.D.C.V.V.V.V.V.C.C.A.C.C.C.V.A.C.C.N.V.B.C.V.B.",
"A.M.M.M.M.M.m.m.l.k.g.g.0.0.0.g.l.l.m.m.m.m.V.m.k.m.m.V.V.A.V.V.n.V.N.N.j.m.z.N.",
"A.M.M.M.M.M.m.k.l.k.g.0.7.5.7.g.g.m.D.m.m.m.k.j.h.N.N.V.V.C.V.V.n.N.V.N.V.V.z.V.",
"A.M.b.h.b.k.k.m.l.l.h.0.7.5.7.g.b.m.D.l.V.k.j.h.a.h.n.n.V.V.V.m.j.n.z.z.z.c.V.z.",
"M.b.0.0.g.b.k.k.l.m.k.g.7.5.7.g.m.D.D.m.m.h.i.i.i.i.k.n.V.V.m.l.j.n.m.m.z.V.c.N.",
"M.0.0.6.6.g.k.D.D.D.k.0.7.5.7.q.k.D.D.m.k.q.q.9.9.i.s.j.M.V.n.N.j.j.n.z.V.z.N.V.",
"M.0.6.6.6.g.k.k.c.l.h.i.7.7.9.h.k.m.D.l.h.8.8.8.i.i.h.j.n.m.V.m.n.N.V.j.j.c.V.z.",
"M.g.g.0.0.6.g.g.h.l.h.h.i.9.y.h.k.h.g.9.8.8.8.i.i.s.j.j.n.V.V.V.V.m.c.V.z.V.z.N.",
"M.k.g.h.q.4.4.9.i.b.m.k.k.h.z.Q.' _ u u u u g g g _ ] J.v.z.V.V.V.m.V.n.n.z.x.V.",
"D.b.k.m.a.4.4.0.i.n.V.V.V.v.L.X.G H A A A J J J J H G G.z.l.V.V.V.V.n.n.j.V.N.c.",
"V.j.N.N.s.9.8.i.s.k.m.V.B.L.J.y Z U W W W W W W W Y Z g r.c.M.V.V.m.n.j.m.c.z.N.",
"V.z.z.N.z.j.s.h.h.m.j.N.Q.] y U T E W W W W W W W W R t O.!.m.m.m.N.k.j.j.V.V.N.",
"j.z.x.z.N.N.N.n.n.N.x.Q.` t 9 |.~ W W W W W W W E E T Z y e.n.m.m.k.n.n.l.N.x.N.",
"z.c.B.x.x.x.N.j.n.V.z.w.I.y B OX! T W W W W W W E T M c F ' n.n.n.m.V.m.N.N.c.N.",
"j.x.x.B.N.N.z.j.n.N.p.s  XH.V oXQ M T T T T T E R U c c V ' n.b.n.m.m.V.j.V.c.V.",
"l.c.x.B.B.x.N.N.N.N.u.2  XY.S U.D c c c c c c c c c c c 9 ' n.n.n.n.j.n.c.c.N.V.",
"l.z.x.B.B.B.z.N.N.N.i.s  XXX2.Q U l x z c c c c c z l @ 5 ( m.V.n.j.n.N.N.N.z.z.",
"l.z.x.B.B.z.z.N.N.N.f.' r.}.}.2.2.S z z c c c c k j k @ 6 ( V.D.n.j.h.N.V.z.j.j.",
"l.c.x.x.f.B.N.N.N.N.B.Q.3.<.U.{.{.2.l l l l l l h + + : 6 ( V.V.n.n.n.m.V.c.j.z.",
"l.c.x.x.f.N.z.N.N.V.V.B.Q...f p ; + + + + + + + # $ % 7 w ) V.V.j.j.N.C.C.V.j.z.",
"V.V.v.c.f.Z.N.N.N.N.N.N.v.e.P I K $ . K K H N &.#.H 8 0 ] d.c.C.A.D.F.A.C.c.m.z.",
"V.c.z.z.z.z.N.N.N.m.V.N.N.d...o.=.G O =.*.#.K E.-.G 5 _ r.W.V.C.F._.`.F.V.V.z.x.",
"V.V.x.c.N.N.V.n.V.V.n.V.N.W.J...;.o.C R.=.*.*.-.%.G 6 O.!.N.V.S.`.].'.(.V.z.c.z.",
"V.z.x.V.V.N.V.V.n.n.V.n.n.n.W.P.P I $.%.*.%.#.N % b { e e.!.x.(.].[.`.(.N.j.j.z.",
"x.z.N.N.Z.N.N.V.N.V.n.V.n.V.v.~.r 8 C L a B v : b +.:. ._ [ l.D.[..X`.S.V.z.s.j.",
"x.j.j.Z.V.N.n.m.m.V.m.N.n.N.f.e.g L G : > > ; j } @.>.+._ ^ c.S..X.X`.(.V.j.i.j.",
"B.s.n.M.V.N.m.n.m.n.m.n.m.V.p.s ;.E.T., - * > l m | :.v 6 / x.^.[.[.'.).B.z.j.x.",
"B.s.n.N.m.m.n.m.n.m.n.m.n.V.p.s o.*.! , * &   l h @ v } u ) N.S.`.'.'.).V.V.V.F.",
"Z.N.M.j.n.n.n.m.m.n.m.n.m.V.x.e.d y 7 X X & <.G.i 9 n q X.d.x.z.Z.S.(.C.v.D.(._.",
"Z.Z.N.j.n.A.m.n.V.n.n.V.N.V.c.!.' r 5 o o < <.1.,.i t e K./.z.j.s.z.B.N.l.v._.].",
"^.Z.N.Z.n.V.V.n.N.m.n.m.m.N.n.V.!.e.^ 3 w 2 1 4 = 4 4 / f.Z.N.z.z.z.C.V.c.V.(._.",
"B.z.N.Z.N.V.n.V.m.N.V.V.n.V.V.m.z.z.h.j.h.L.K.s 2 e / P.^.N.N.n.V.V.V.V.c.c.D.(.",
"Z.N.Z.N.Z.N.n.n.V.V.n.V.n.n.V.n.n.V.V.n.n.N.W.y.t.t.u.^.B.V.m.n.N.z.V.j.j.z.V.D.",
"N.Z.B.N.N.N.n.N.V.n.V.V.V.V.n.V.V.n.n.V.N.N.V.V.m.m.V.N.V.V.V.n.n.m.j.j.c.l.c.x.",
"N.N.Z.z.N.N.n.V.n.n.V.n.n.A.V.V.n.V.V.n.V.V.V.n.n.n.n.n.n.V.V.m.V.n.j.c.j.c.z.c.",
"Z.z.Z.N.V.N.N.n.V.V.n.V.V.n.V.n.V.V.n.V.V.V.V.n.j.j.j.j.n.m.V.V.m.n.c.j.j.z.c.z.",
"z.z.N.Z.C.n.N.N.n.V.V.n.n.V.V.n.n.V.n.V.V.A.V.n.n.j.n.n.n.V.A.V.V.N.z.j.V.z.z.c.",
"N.f.j.x.V.n.m.N.V.V.n.V.V.n.n.V.V.V.V.n.n.V.V.V.n.n.n.n.N.V.V.V.V.V.m.V.c.c.l.z.",
"N.j.j.c.N.N.V.m.n.A.V.n.n.V.V.V.V.n.V.n.V.V.V.n.N.n.m.V.V.V.A.V.V.V.m.z.N.N.j.x.",
"Z.j.s.z.N.V.V.N.V.V.V.V.V.n.V.V.n.V.A.V.V.V.V.V.N.V.V.V.V.V.C.V.V.V.N.V.N.c.N.V."
};
