/* XPM */
static char *player_left[] = {
/* columns rows colors chars-per-pixel */
"40 40 177 2 ",
"   c #180C0B",
".  c #12100E",
"X  c #29231B",
"o  c #322011",
"O  c #1A1528",
"+  c #2B1924",
"@  c #4B201F",
"#  c #593F1C",
"$  c #56312B",
"%  c #6D2B2B",
"&  c #712C2B",
"*  c #743734",
"=  c #773938",
"-  c #284237",
";  c #504A3F",
":  c #505A3D",
">  c #74403F",
",  c #282754",
"<  c #373775",
"1  c #6B3741",
"2  c #385E4D",
"3  c #3F6267",
"4  c #4B584A",
"5  c #515F50",
"6  c #675849",
"7  c #76554A",
"8  c #5C654C",
"9  c #4E7358",
"0  c #6A614F",
"q  c #6D6755",
"w  c #6F705C",
"e  c #474B6D",
"r  c #5E4C74",
"t  c #476669",
"y  c #487B67",
"u  c #547C68",
"i  c #4A6E78",
"p  c #6F6367",
"a  c #6C7763",
"s  c #7D7A66",
"d  c #872929",
"f  c #9A3131",
"g  c #A43333",
"h  c #B53636",
"j  c #BE3838",
"k  c #C13938",
"l  c #87553E",
"z  c #9A683A",
"x  c #CB423B",
"c  c #814946",
"v  c #8B584A",
"b  c #96594E",
"n  c #87565A",
"m  c #AF4E45",
"M  c #BE4548",
"N  c #A35549",
"B  c #AE535A",
"V  c #856456",
"C  c #A77A45",
"Z  c #AC7359",
"A  c #B7735C",
"S  c #B75D67",
"D  c #847969",
"F  c #AF7661",
"G  c #B57862",
"H  c #B47275",
"J  c #CC584E",
"K  c #DB5643",
"L  c #EA5C44",
"P  c #D56048",
"I  c #DD6449",
"U  c #EE6045",
"Y  c #F56547",
"T  c #F86848",
"R  c #F26A50",
"E  c #EE735E",
"W  c #CD7477",
"Q  c #7D8E5A",
"!  c #4C876D",
"~  c #4D896E",
"^  c #588C74",
"/  c #579477",
"(  c #698569",
")  c #778668",
"_  c #75906C",
"`  c #6A8A78",
"'  c #6D997A",
"]  c #9D863C",
"[  c #B7963D",
"{  c #C1A13C",
"}  c #B98E4A",
"|  c #88866B",
" . c #889479",
".. c #919B7C",
"X. c #A9846C",
"o. c #BF8463",
"O. c #C58367",
"+. c #CA856B",
"@. c #CD896B",
"#. c #D7906F",
"$. c #CB8F71",
"%. c #C59B7A",
"&. c #D59272",
"*. c #E3A67B",
"=. c #EACB54",
"-. c #5E5781",
";. c #6C7A8D",
":. c #B87180",
">. c #5AA582",
",. c #57AD87",
"<. c #4FB087",
"1. c #4DB08A",
"2. c #53B48C",
"3. c #5AB58E",
"4. c #5CB791",
"5. c #56B992",
"6. c #5CBB94",
"7. c #68A987",
"8. c #77A986",
"9. c #65B28E",
"0. c #76B28E",
"q. c #61BD96",
"w. c #6AB895",
"e. c #64BF99",
"r. c #6CBF9A",
"t. c #75BB99",
"y. c #5FC199",
"u. c #64C39C",
"i. c #6DC49E",
"p. c #66C89F",
"a. c #6BCA9E",
"s. c #72C59E",
"d. c #7AC69F",
"f. c #71C89E",
"g. c #79C89F",
"h. c #64C5A0",
"j. c #6EC7A1",
"k. c #6DCAA3",
"l. c #6DC9A8",
"z. c #72C6A1",
"x. c #7BC6A2",
"c. c #72C9A3",
"v. c #7ACAA5",
"b. c #75C5A9",
"n. c #74CBA9",
"m. c #7CCDAA",
"M. c #74D0A8",
"N. c #7ED2AD",
"B. c #899F9A",
"V. c #AB8A92",
"C. c #86AC86",
"Z. c #88B58E",
"A. c #92B58C",
"S. c #97BD92",
"D. c #A4BF90",
"F. c #AD9EB9",
"G. c #AEB7BE",
"H. c #CE959E",
"J. c #ECAD84",
"K. c #84C69C",
"L. c #8BC79A",
"P. c #97C497",
"I. c #82CCA7",
"U. c #99CEA2",
"Y. c #80D2AE",
"T. c #96D5AF",
"R. c #88D5B0",
"E. c #85DAB4",
"W. c #8AD9B6",
"Q. c #8CDDBA",
"!. c #8BE0B8",
"~. c #91E2BE",
"^. c #A4A2C2",
"/. c #B6B3CA",
"(. c #D1B6C7",
"). c #93E3C0",
"_. c #E2D8E6",
/* pixels */
"m.b.b.b.b.l.n.l.M.M.a.k.p.u.a.f.M.v.c.c.c.c.c.c.v.v.v.c.v.v.c.n.v.v.z.c.c.x.c.x.",
"n.l.b.l.l.l.k.k.p.p.y.y.5.5.5.y.a.a.k.k.k.k.k.k.a.k.k.c.c.n.c.c.z.z.z.c.s.c.c.s.",
"n.l.l.l.l.l.k.p.a.p.u.5.2.<.2.y.p.a.k.k.k.k.a.i.u.j.j.k.n.n.c.c.j.c.c.f.f.k.s.c.",
"n.l.h.y.h.p.p.l.a.a.u.5.2.<.2.y.y.M.a.M.k.a.i.u.e.r.j.l.c.c.c.j.i.i.z.s.c.s.s.c.",
"l.y.5.5.y.h.p.p.M.a.p.5.2.<.<.y.h.M.l.l.a.u.u.4.6.q.u.j.c.c.k.i.i.i.k.c.z.f.f.z.",
"l.y.1.1.1.y.p.M.M.k.u.y.<.<.3.y.h.M.M.M.p.y.4.4.4.q.i.i.c.k.c.i.i.i.c.i.s.z.z.z.",
"l.y.1.1.1.y.p.p.a.k.a.4.3.<.4.u.a.M.k.a.u.3.3.4.q.q.i.a.i.k.c.k.i.c.z.k.c.s.f.c.",
"h.y.y.5.5.1.y.h.u.a.u.u.u.4.9.u.h.a.u.6.3.3.4.q.e.r.i.i.k.c.c.c.c.c.j.s.f.c.s.z.",
"l.p.y.u.6.<.2.5.q.j.j.h.a.e.i.s.w.9.3./ >.>.7.9.w.w.t.z.j.j.c.n.c.l.c.k.f.z.c.z.",
"M.h.a.k.e.,.,.3.q.j.l.c.l.z.d.S.) w 0 0 0 q q q a a A.K.j.j.c.l.c.c.i.i.j.f.s.c.",
"c.j.j.z.r.4.4.6.e.a.k.c.c.L.A.) N P I I I I I I K m ) 0.a.k.k.n.c.k.i.a.z.f.z.z.",
"z.s.s.z.i.i.r.r.i.j.j.a.L.C.| N x U T T T T T T T K V C.K.i.k.a.k.j.j.i.i.c.f.z.",
"i.s.s.d.z.z.z.i.j.j.z.K.C.) w W R T T T T T T T T Y N | Z.i.i.j.j.k.j.i.c.s.s.c.",
"s.f.d.d.d.z.z.i.j.j.z.Z. .7 n _.E T T T T T T T Y U x V ' i.j.j.j.k.l.k.f.z.f.z.",
"i.f.d.d.d.z.s.z.j.c.j.! /.V.n _.J L T T Y Y T T L k j v ` j.j.j.j.j.k.c.i.c.c.z.",
"a.f.d.I.x.d.z.z.z.z.r.y G.H.B /.M x x x x x x x x k j v ` j.j.j.a.j.i.z.a.f.f.z.",
"a.f.d.I.x.x.s.z.j.z.t.y /.(.:.:.M j j j k k k k k j f 6 ~ k.c.c.j.j.i.j.z.z.s.s.",
"a.s.d.x.x.t.z.z.z.z.s./ B./.F.S S M j j k k k h g g & ; ! j.n.c.j.i.i.j.c.i.i.s.",
"a.f.z.d.x.z.z.z.z.c.z.P.^ ` ^.^.F.S h h h h h f % % * 4 ~ i.n.c.j.i.i.c.v.f.i.i.",
"a.f.d.t.d.s.s.z.c.z.z.x.P. .p e 1 % & & & & & * > > > 8 / s.c.c.i.j.z.c.n.f.s.s.",
"f.f.g.s.z.z.z.z.j.c.z.z.K.8.D H F @ $ A A z o.$.A > 5 ( 0.s.c.v.n.m.N.m.c.c.z.f.",
"f.M.s.s.t.z.z.z.c.z.c.j.z.t...X.*.7 v *.#.@.*.J.o.; ( 8.K.c.c.v.N.E.E.N.c.s.c.s.",
"c.g.d.s.z.z.j.b.c.j.c.j.z.K.A. .%.F G J.#.#.#.&.Z : _ A.x.v.z.m.E.!.Q.Y.x.s.s.s.",
"x.f.s.c.c.z.j.j.c.c.j.c.c.z.K.D.s F @.@.+.O.b > l [ 9 ' P.x.c.m.!.~.Q.Y.c.i.i.s.",
"c.s.s.b.z.z.j.c.z.c.j.z.j.z.z.s.a c c = .   @ > [ =.=.( / s.s.m.~.).W.Y.v.i.e.i.",
"d.i.j.c.c.c.j.j.k.c.l.c.k.z.l.t.a l & + , , X # { =.} 8 ~ u.s.Y.).).W.m.z.i.r.s.",
"x.r.j.j.c.k.l.k.k.j.k.z.k.z.c.i.u N d + < < O o z } C 8 ^ t.d.I.).).Q.Y.v.s.i.f.",
"x.r.j.b.j.j.c.j.j.k.j.k.j.z.j.z.^ 7 * $ r r O   $ l z Q 7.z.x.m.W.Q.Q.Y.c.c.c.m.",
"x.b.i.l.l.j.j.l.k.j.k.j.j.c.c.z.D.u - X O.@.$ . X ] a Z.U.x.z.b.x.m.Y.v.f.g.Y.E.",
"b.j.b.z.j.c.z.k.j.k.z.k.k.j.c.j.z.~ t ;.c > ;.i 2 u L.T.R.n.t.r.r.z.x.c.f.M.E.!.",
"x.b.z.z.j.c.z.k.k.z.k.z.z.c.z.c.a./ 3 -.g r t / ' s.I.W.N.c.c.z.i.z.v.f.f.M.Y.E.",
"x.z.z.z.b.z.j.z.z.k.z.k.z.k.k.z.i.7.! e 7 e u ' U.N.N.m.n.b.z.j.s.c.c.f.a.g.m.Y.",
"c.z.b.z.b.s.j.j.c.j.c.c.j.c.j.c.j.L.0.! y ! 8.L.n.M.M.v.c.c.k.z.k.s.k.i.i.f.v.M.",
"b.b.x.z.z.b.j.z.z.c.j.c.c.j.j.c.c.c.z.j.i.i.z.c.c.c.c.c.c.c.z.j.i.c.i.s.i.s.f.f.",
"b.s.b.s.z.j.j.j.j.c.j.j.j.c.c.j.c.j.j.c.z.c.c.j.i.j.k.i.k.c.k.c.c.i.i.i.i.f.f.s.",
"z.z.z.b.c.z.z.b.c.j.c.c.c.j.c.c.c.j.c.c.c.c.c.j.j.i.j.i.i.c.c.c.c.z.a.f.i.s.f.f.",
"z.s.c.c.x.c.c.j.c.j.j.c.j.j.c.j.c.j.c.j.j.c.c.c.i.i.i.j.z.c.l.c.c.k.s.i.c.f.f.s.",
"z.r.i.s.c.c.j.c.j.c.c.j.c.c.c.c.c.j.j.c.n.n.c.j.j.j.j.j.c.c.n.c.c.z.k.c.c.s.f.s.",
"z.i.i.s.z.z.z.j.c.j.j.c.j.j.j.c.j.c.c.j.j.c.c.c.c.z.k.c.c.c.c.c.c.c.k.s.s.a.s.z.",
"x.i.i.s.z.c.c.c.c.c.c.c.n.c.c.c.c.c.c.c.c.c.c.c.c.c.c.c.c.c.c.v.c.c.z.c.c.s.z.z."
};
