/* XPM */
static char *player[] = {
/* columns rows colors chars-per-pixel */
"40 40 213 2 ",
"   c #020205",
".  c #0B0909",
"X  c #07060B",
"o  c #090C13",
"O  c #0B0B19",
"+  c #0C1213",
"@  c #170B0D",
"#  c #261819",
"$  c #281116",
"%  c #13221D",
"&  c #35211C",
"*  c #25201F",
"=  c #111027",
"-  c #181B28",
";  c #161631",
":  c #371D23",
">  c #1A2B24",
",  c #1C2B30",
"<  c #28282D",
"1  c #262226",
"2  c #322B2F",
"3  c #5B231D",
"4  c #582726",
"5  c #593626",
"6  c #4B2E35",
"7  c #593A30",
"8  c #4B2D28",
"9  c #772827",
"0  c #713535",
"q  c #7D3E3C",
"w  c #6D3131",
"e  c #4B1617",
"r  c #2B4438",
"t  c #684739",
"y  c #784539",
"u  c #7C5533",
"i  c #272648",
"p  c #2D2C5B",
"a  c #2F2E64",
"s  c #34366B",
"d  c #363673",
"f  c #3B3975",
"g  c #3E3E7A",
"h  c #5D3E4C",
"j  c #773851",
"k  c #4D3668",
"l  c #443F75",
"z  c #355A4B",
"x  c #2E4D41",
"c  c #3E6757",
"v  c #3C4777",
"b  c #3A4C69",
"n  c #4C5B55",
"m  c #495F59",
"M  c #59514D",
"N  c #764B48",
"B  c #7D5249",
"V  c #66464D",
"C  c #4D6B5E",
"Z  c #736859",
"A  c #464478",
"S  c #4C5475",
"D  c #75586E",
"F  c #467661",
"G  c #556A69",
"H  c #767667",
"J  c #796377",
"K  c #727168",
"L  c #962E2E",
"P  c #833630",
"I  c #893938",
"U  c #963D3A",
"Y  c #80332F",
"T  c #BE3A3A",
"R  c #B53737",
"E  c #AA3736",
"W  c #C13938",
"Q  c #C83F3A",
"!  c #804B36",
"~  c #CB443B",
"^  c #D54B3E",
"/  c #D84D3F",
"(  c #8C3B42",
")  c #BE3F42",
"_  c #844845",
"`  c #97454A",
"'  c #895649",
"]  c #945C4D",
"[  c #914E56",
"{  c #AB5152",
"}  c #9E6752",
"|  c #946956",
" . c #A66955",
".. c #A8705E",
"X. c #B5755C",
"o. c #B17751",
"O. c #9B6F73",
"+. c #97797B",
"@. c #8D6F69",
"#. c #B97A65",
"$. c #B27578",
"%. c #D95441",
"&. c #D05C58",
"*. c #E95D44",
"=. c #D4615A",
"-. c #ED6446",
";. c #F56647",
":. c #F76848",
">. c #F86848",
",. c #C7676C",
"<. c #C56B73",
"1. c #CF7470",
"2. c #E07362",
"3. c #538E75",
"4. c #539177",
"5. c #708B77",
"6. c #96827D",
"7. c #BD937A",
"8. c #CD886A",
"9. c #C98668",
"0. c #D48D6E",
"q. c #D88A72",
"w. c #C39576",
"e. c #D99171",
"r. c #D09477",
"t. c #CE8B70",
"y. c #E29F7A",
"u. c #D7A07F",
"i. c #4A5D8E",
"p. c #414A84",
"a. c #4F6693",
"s. c #577B97",
"d. c #587187",
"f. c #696888",
"g. c #897D85",
"h. c #AB7A8C",
"j. c #5A809D",
"k. c #769D85",
"l. c #57AB87",
"z. c #4EB089",
"x. c #53B48C",
"c. c #5AB58F",
"v. c #5ABB94",
"b. c #5BB891",
"n. c #4CAF8A",
"m. c #67A68A",
"M. c #6DAC92",
"N. c #64BF98",
"B. c #6CBD99",
"V. c #67B895",
"C. c #75B296",
"Z. c #73BC9C",
"A. c #7CB79D",
"S. c #6995B6",
"D. c #7FBBA1",
"F. c #5FC199",
"G. c #63C39C",
"H. c #6DC49E",
"J. c #6BCA9E",
"K. c #66C89F",
"L. c #72C59E",
"P. c #71C89E",
"I. c #79C69F",
"U. c #6EC7A1",
"Y. c #6DCAA3",
"T. c #6AC7A5",
"R. c #72C6A1",
"E. c #7BC6A2",
"W. c #72C9A3",
"Q. c #7ACAA5",
"!. c #73CAAA",
"~. c #7BCDAA",
"^. c #75C5A9",
"/. c #7FD3AD",
"(. c #79D0A7",
"). c #998784",
"_. c #848B84",
"`. c #B38598",
"'. c #81AB96",
"]. c #8686AC",
"[. c #968DA6",
"{. c #9C9AB5",
"}. c #888DB4",
"|. c #B58DA2",
" X c #89BAA4",
".X c #99A5B0",
"XX c #B3B6B4",
"oX c #CC9F82",
"OX c #CEA184",
"+X c #EAAB82",
"@X c #E5A980",
"#X c #EBB388",
"$X c #F3BB8B",
"%X c #C0A6B3",
"&X c #EEB2AE",
"*X c #ECA9A4",
"=X c #80D2AE",
"-X c #85DAB4",
";X c #8CDDBA",
":X c #89D6B4",
">X c #90D5B6",
",X c #8EE1BB",
"<X c #F8C090",
"1X c #A5AACB",
"2X c #B2B2D0",
"3X c #C2ADC4",
"4X c #C8BCD2",
"5X c #93E3C0",
"6X c #CDC8D5",
"7X c #CECEE2",
"8X c #E4D9E7",
"9X c #E4E2F2",
"0X c #E3E8E5",
/* pixels */
"~.^.^.^.^.!.!.!.(.Y.Y.Y.J.K.J.J.(.(.W.W.W.W.W.W.Q.W.^.W.Q.Q.!.Q.Q.W.E.W.W.Q.W.Q.",
"!.!.!.!.!.T.K.T.K.K.F.F.v.x.b.F.K.J.Y.Y.Y.Y.Y.Y.U.W.Y.W.!.W.W.W.W.R.R.R.P.L.W.L.",
"!.!.T.T.T.T.T.K.J.K.F.b.x.z.x.F.K.Y.Y.Y.W.Y.J.J.U.H.U.Y.!.W.W.W.W.U.W.R.R.H.W.W.",
"!.T.T.v.K.K.T.Y.J.J.F.b.x.z.x.F.K.Y.Y.Y.Y.J.G.K.N.G.U.Y.!.W.W.J.H.U.H.R.L.W.P.R.",
"T.F.F.x.F.F.K.K.Y.Y.J.F.x.k.y 0 0 0 0 0 0 0 0 0 0 0 N B.W.W.J.H.H.H.Y.P.W.H.R.P.",
"T.F.n.n.F.F.T.T.Y.Y.K.v.m._.! P P P P P P P P P I 9 y k.L.W.W.H.H.H.R.U.P.W.I.R.",
"T.F.n.n.n.F.K.K.J.Y.H.c.+.[ T / -.-.-.-.-.-.-.-.-.~ E _ H W.W.U.L.Y.U.R.L.W.W.R.",
"T.F.F.F.x.x.F.F.G.J.H.V.@.I / ;.:.:.:.>.>.>.>.>.:.-.^ 9 K Y.W.W.W.Y.R.R.J.L.L.R.",
"T.T.F.F.v.z.l.b.N.K.Z.C.@.L ;.>.>.>.>.>.>.>.>.>.>.>.*.9 H Z.W.!.W.W.Y.U.R.L.P.W.",
"!.K.Y.Y.N.z.z.c.N.H.).).{ ~ ;.>.>.>.>.>.>.>.>.>.>.>.;.R { ).m.W.W.Y.U.U.U.R.L.R.",
"W.J.Y.W.B.V.c.v.N.B.Z 4 R Q *.>.>.>.>.>.>.>.;.;.>.;.*.Q L 4 K Y.W.Y.K.U.J.L.W.R.",
"R.L.L.P.R.H.B.N.U.R.n @ L W Q *.>.>.>.>.>.;.;.;.;./ W W 9 . F Y.Y.U.H.H.U.R.L.W.",
"H.L.I.I.L.L.R.U.U.U.n @ L W W Q / ^ 2.&X&X*X%.%.^ ~ W W 3 X F H.Y.U.U.U.J.L.I.R.",
"L.P.I.I.I.L.R.L.B.A.n . L W W R W ) <.8X9X8X&.) W T W R 9 . G C.U.Y.Y.W.W.W.L.R.",
"H.I.I.I.I.E.L.H.M.g.Z u 9 [ |.&.Q `.`.,.,.,.|.$.W $.`.q 5 u Z m H.U.R.J.H.W.P.W.",
"J.P.I.=XE.L.R.U.M.* u o.5 h }.h.<.3X3X<.,.<.3XXX,.h.].8 u 9.5 + V.U.U.Y.L.P.W.R.",
"J.P.P. XE.L.L.R.M.1 ] 8.& = g 2X9X9X9X9X9X9X9X9X9X}.f o 7 0.t + V.U.U.U.R.R.H.L.",
"J.P.I.I.=XI.R.R.V.r N ' 8 6 D [.1X1X1X1X1X1X1X1X1X[.D : 8 ] M r B.H.H.U.R.R.H.L.",
"J.P.L.I.A.I.R.R.Y.H.n . 0 ] 8.D l l g l A l d A A O.8._ 8 . 3.G.H.U.U.W.W.P.L.H.",
"J.P.I.I.Z.L.R.R.R.L.n . | 9.e.@XoX2 h OXOX7.< V OXr.q.9.t   F P.U.U.W.W.!.P.L.L.",
"J.P.I.P.Z.R.R.R.W.U.c r ..9.0.y.@X6 t $X<X#X8 t +Xy.0.#.Z r 4.W.^.(./.!.W.W.R.P.",
"(.P.P.I.R.R.R.R.R.R. X'.O.] 0.e.0.`  .$X<X#X' ] 0.0.8._ 6.'.P.(./.-X-X/.W.L.W.I.",
"Q.W.I.P.R.R.R.W.Y.W. X3XJ h _  .X. .X.@X+X@XX.} X.] B V ).XXM.(.-X,X;X/.W.L.H.P.",
"P.P.P.I.W.R.R.R.Z.0XH * a p X w _ #.8.8.8.8.8.X.N : O a i * XX X;X5X-X/.I.P.H.L.",
"E.L.Z.^.W.W.U.W.C.h.7.w.S s a ( E 4 & & & & & 9 R j a d J t.$.@.>X5X;X/.W.L.B.H.",
"L.H.U.R.!.W.Y.U.C.' 7.y.@.A l ` R e + , - # @ 3 R j l A g.$X#.N >X5X;X~.R.H.B.L.",
"E.H.U.U.W.Y.U.Y.C._ X.e.t.O.l ( W R { {.{.{.{ R W j l #.0.e.| B >X,X;X:XQ.L.H.R.",
"E.Z.U.U.U.R.Y.U.Z.5.|  .B 7 i ( W ^ <.6X7X4X=.Q W w i 0 ]  .@.5.:X;X;X=XW.P.W.(.",
"^.R.U.!.U.Y.R.Y.Y.U.H N # o + P T %.q.7X7X6X2.%.) 4 X X 2 N 5.W.^.~.=XQ.P.P./.-X",
"=XR.^.T.T.R.Y.R.U.Y.Z.M.f.A s.A k # $ 2 < < & 2 k d.s.s G E.Z.R.B.L.E.R.P.(.-X,X",
"E.^.R.Z.T.U.R.Y.Y.R.U.U.f.v j.i.p., +       = i p.a.s.v d.^.R.L.L.R.W.W.P.(.=X-X",
"^.Z.R.R.^.R.R.R.R.U.R.L.n X O s.S.S.S     o s.S.S.b o X c R.R.R.R.W.W.P.P.P.(.=X",
"E.^.E.!.^.R.U.R.U.R.Y.Z.n O i v i.b S z z m G S a.v ; X z W.Y.Y.U.W.P.H.H.P.P.(.",
"R.R.^.R.R.R.R.U.!.U.Y.Z.< = d f s O r U.U.V.< ; d d d O z W.W.P.W.H.Y.H.H.H.P.Q.",
"R.R.R.Z.U.R.U.W.U.W.U.R.4.z ; = - c 4.R.Y.U.3.G ; = ; c 4.W.W.W.W.L.H.H.H.L.J.I.",
"R.R.^.R.!.R.R.U.R.U.W.Y.R.l.% > > m.R.Y.Y.W.W.4.% % , V.Y.Y.W.W.Y.J.H.L.H.L.P.P.",
"E.U.R.W.W.E.R.R.W.U.Y.W.R.R.W.U.R.W.U.W.Y.W.W.R.K.K.H.U.R.W.W.W.W.R.H.W.L.P.P.P.",
"R.U.R.R.R.Y.Y.R.U.W.R.R.R.Y.Y.W.Y.R.W.U.W.!.W.Y.H.H.U.U.Y.W.W.^.W.W.R.Y.R.P.H.I.",
"R.H.B.H.R.R.W.Y.W.Y.U.Y.U.W.R.W.U.Y.R.Y.W.W.W.W.W.R.Y.W.W.W.W.W.W.Y.W.L.R.J.L.R.",
"E.H.H.L.R.W.W.R.W.R.W.R.!.R.Y.R.!.R.W.W.R.W.W.R.W.W.W.W.W.W.W.W.W.W.R.W.W.L.R.R."
};
