/* XPM */
static char *player_right1[] = {
/* columns rows colors chars-per-pixel */
"40 40 180 2 ",
"   c #090507",
".  c #0F100E",
"X  c #2D1217",
"o  c #131224",
"O  c #3C2021",
"+  c #581F1E",
"@  c #492A2B",
"#  c #752222",
"$  c #732A2A",
"%  c #642635",
"&  c #6F3434",
"*  c #773937",
"=  c #474A3E",
"-  c #73413E",
";  c #76703B",
":  c #1F1F43",
">  c #253044",
",  c #2C2B55",
"<  c #32326D",
"1  c #3D3B77",
"2  c #43305E",
"3  c #6D3451",
"4  c #413D77",
"5  c #334F43",
"6  c #30474E",
"7  c #345A4A",
"8  c #3D6250",
"9  c #3E5767",
"0  c #4A5649",
"q  c #53594A",
"w  c #6A4943",
"e  c #744340",
"r  c #784B46",
"t  c #764A4F",
"y  c #456C59",
"u  c #4F735E",
"i  c #68684F",
"p  c #70614E",
"a  c #726453",
"s  c #776958",
"d  c #665571",
"f  c #457C65",
"g  c #557B6A",
"h  c #5B7B75",
"j  c #767C65",
"k  c #8B2E2E",
"l  c #993031",
"z  c #AB3333",
"x  c #BE3737",
"c  c #B53938",
"v  c #BF3B3B",
"b  c #C13938",
"n  c #85433B",
"m  c #986C3D",
"M  c #D1463D",
"N  c #D64B3E",
"B  c #874C44",
"V  c #8C5546",
"C  c #955547",
"Z  c #91544A",
"A  c #885755",
"S  c #945F51",
"D  c #B94542",
"F  c #BC535B",
"G  c #8A6E4F",
"H  c #9A6554",
"J  c #A76B58",
"K  c #AB745B",
"L  c #B6775F",
"P  c #BB5B64",
"I  c #BC656A",
"U  c #A8796C",
"Y  c #BC7A62",
"T  c #C45043",
"R  c #DC5A45",
"E  c #EA5C44",
"W  c #E86548",
"Q  c #F66647",
"!  c #F86848",
"~  c #E56959",
"^  c #C2747E",
"/  c #6F8457",
"(  c #4B856C",
")  c #4E8B71",
"_  c #508E72",
"`  c #5A947B",
"'  c #5E9E7E",
"]  c #6B856A",
"[  c #79866E",
"{  c #6A8D73",
"}  c #67987A",
"|  c #77987A",
" . c #879258",
".. c #89846B",
"X. c #829376",
"o. c #849877",
"O. c #A09275",
"+. c #8DA378",
"@. c #C5A542",
"#. c #C9896D",
"$. c #D58E6E",
"%. c #D58F70",
"&. c #C99779",
"*. c #DC9775",
"=. c #DBA47A",
"-. c #E5A47D",
";. c #EECD56",
":. c #4F7287",
">. c #6E6C96",
",. c #5BA284",
"<. c #57AD89",
"1. c #4FB087",
"2. c #4DB08A",
"3. c #53B48C",
"4. c #5AB58F",
"5. c #5CB791",
"6. c #56B992",
"7. c #5CBB94",
"8. c #64A885",
"9. c #6BAC8A",
"0. c #7AAA85",
"q. c #6FB591",
"w. c #62BD96",
"e. c #64BF98",
"r. c #6CBF9A",
"t. c #78B593",
"y. c #5FC199",
"u. c #64C39C",
"i. c #6DC49E",
"p. c #66C89F",
"a. c #6BCA9E",
"s. c #72C59E",
"d. c #7BC59D",
"f. c #71C89E",
"g. c #7BC89F",
"h. c #64C5A0",
"j. c #6EC6A1",
"k. c #6DCAA3",
"l. c #6DC9A8",
"z. c #72C6A1",
"x. c #7BC6A2",
"c. c #72C9A3",
"v. c #7ACAA5",
"b. c #75C5A9",
"n. c #73CBAA",
"m. c #7CCDAA",
"M. c #74D0A8",
"N. c #7ED3AD",
"B. c #B5889E",
"V. c #90AA84",
"C. c #8BB68D",
"Z. c #98B388",
"A. c #87BC93",
"S. c #92BF92",
"D. c #94A5A5",
"F. c #93A9A7",
"G. c #B8A7BB",
"H. c #CB8F89",
"J. c #EE9A90",
"K. c #E9B186",
"L. c #82C499",
"P. c #8BC59A",
"I. c #94C396",
"U. c #9AC395",
"Y. c #90C99B",
"T. c #83CDA8",
"R. c #9ACDA1",
"E. c #80D2AE",
"W. c #83D5B1",
"Q. c #85DAB4",
"!. c #89D9B6",
"~. c #8CDDBA",
"^. c #8BE0B8",
"/. c #91E2BE",
"(. c #ADACCB",
"). c #CAB4C5",
"_. c #93E3C0",
"`. c #DCC1CF",
"'. c #D3C8D5",
"]. c #CFD0E3",
/* pixels */
"m.b.b.b.b.n.n.l.M.M.a.k.p.u.a.f.c.M.n.c.c.c.c.n.c.v.v.v.c.c.v.v.c.v.z.v.c.v.c.v.",
"n.l.l.l.l.l.k.k.a.p.y.y.6.6.6.y.a.a.c.a.k.k.k.k.a.a.k.c.n.n.c.k.c.z.z.c.i.s.s.c.",
"n.l.l.l.l.l.h.k.a.p.y.6.3.1.3.y.y.k.k.M.k.c.i.a.i.u.z.c.n.n.c.c.j.c.c.z.f.s.c.z.",
"n.l.h.u.h.p.p.k.a.a.u.6.3.1.3.y.p.k.M.a.k.i.u.u.e.i.j.l.c.c.k.j.i.z.i.s.f.z.s.c.",
"l.h.6.6.y.h.p.p.k.k.p.6.3.1.4.7.k.k.M.a.k.p.u.5.w.w.u.i.c.c.k.i.i.i.k.k.z.s.z.g.",
"l.6.6.2.2.y.p.M.M.k.p.y.3.1.3.7.h.M.M.M.u.y.w.5.5.w.i.i.c.f.c.a.i.i.z.s.f.z.a.z.",
"l.y.2.2.2.y.p.p.a.k.u.5.3.3.7.u.a.l.k.k.u.4.4.7.w.w.i.p.j.k.c.j.i.c.k.z.z.c.c.z.",
"h.y.y.6.6.2.y.y.u.a.a.u.y.q.q.9.5.9.8.' ' ' ' ' 8.q.d.i.k.c.c.c.c.k.z.j.f.s.s.z.",
"l.p.y.u.7.1.1.6.w.j.k.h.a.L.V./ s a p p p p p s j X.U.d.s.c.c.n.c.c.l.k.f.z.f.c.",
"l.k.p.k.w.<.<.4.w.j.l.c.f.9.j D R W W W E W W E M S [ S.d.k.c.k.c.k.i.i.i.c.s.z.",
"c.j.s.z.r.5.4.w.u.i.k.c.L.| s R Q Q ! ! ! ! ! Q E T H | S.L.k.c.c.k.i.k.f.z.f.c.",
"c.i.s.z.s.i.r.u.u.i.k.i.C.U C Q Q Q ! ! ! ! ! ! W ~ I a o.C.g.k.k.j.i.i.k.s.z.z.",
"f.s.s.s.x.z.z.j.z.j.j.i.{ S M W Q ! ! ! ! ! ! Q ! J.'.& a o.I.i.j.k.j.i.a.s.g.z.",
"f.s.x.d.s.s.z.i.j.c.c.c.] Z b b W ! ! ! ! ! Q Q T H.'.* G.F.( a.k.k.k.c.z.k.s.z.",
"i.s.d.d.x.x.i.j.z.c.c.c.] C b b M N N N N N N N b ^ ).l ).D.f i.j.j.c.c.z.f.f.c.",
"a.f.d.T.x.d.z.z.j.z.c.j.g r z v b b b b b b b b b P B.I `.D.f i.p.j.i.a.i.c.s.c.",
"a.s.x.x.x.x.s.z.z.z.f.f.( = $ c x x b x b b b x b v F (.].D.( j.j.j.p.i.z.z.s.s.",
"a.a.d.d.d.s.z.z.c.f.c.f.( = - # # k x b b b b b B.G.(.(.h ` S.v.j.i.i.z.c.z.i.i.",
"a.f.x.x.x.s.z.z.z.z.M.f.( = - - & k k k k k k k A >.>.U | C.T.z.j.i.i.l.c.f.i.s.",
"a.f.x.L.r.s.z.z.z.c.f.f.} u - - V Z B & n n - + * t d s V.P.c.z.i.i.z.v.n.g.i.s.",
"c.f.g.s.r.x.z.z.j.z.z.z.U.} y - Y K.K.B ^ $.L . H %.#.[ q.z.c.n.n.v.N.M.c.f.s.s.",
"M.f.s.s.s.z.z.z.z.c.z.k.f.I.+.5 K -.K.#.$.-.=.* &.&...Z.t.v.c.v.N.Q.!.N.v.g.c.s.",
"c.g.d.s.z.z.z.j.z.z.z.z.Y.d.{ ; V J L $.$.*.*.L O.O.V.P.x.c.v.v.Q.^.~.E.c.i.i.f.",
"c.z.s.c.c.z.z.z.l.k.z.k.| | / @.G r t U H J #.L G ..U.s.v.b.z.N.~./.~.E.c.i.i.s.",
"d.s.j.b.z.c.z.k.k.z.c.j.)  .;.;.@.G 4 1 o O B - s 0.z.s.s.s.b.v./._.!.E.c.s.r.i.",
"z.i.j.z.c.c.c.j.c.j.j.j.( q n V =.K.H.4 < 3 c c A { x.b.s.r.s.E./._.!.E.z.i.r.i.",
"x.z.r.b.c.k.j.l.j.k.k.j.( i m r #.=.&.4 : % z + 0 { R.x.s.b.x.T./._.~.W.v.i.i.s.",
"x.r.j.z.l.j.j.k.k.j.k.i.' / m w J K A , > @ #   6 g A.E.x.x.x.b.!.~.~.E.c.g.c.N.",
"x.b.j.j.j.k.k.j.k.j.k.s.U.} y e e @ . . :.9     , 9 ` !.E.v.x.b.x.m.E.v.f.g.E.Q.",
"v.b.j.j.j.z.j.c.k.c.z.k.c.L.0.u 8 7 7 7 7 6 2 l X 5 } ~.W.b.s.r.r.s.b.z.f.M.Q.^.",
"v.b.j.b.z.j.z.l.c.i.k.f.c.g.L.<.,.,.<.,.} g 9 w 8 g A.W.N.b.s.r.i.z.c.c.f.M.E.Q.",
"b.z.z.b.z.z.j.z.k.c.c.c.c.c.k.c.l.z.j.i.I.9._ ( ` 9.Y.N.n.b.z.b.z.c.c.g.f.f.M.N.",
"x.z.b.z.b.z.j.j.b.l.c.j.c.c.j.c.z.c.j.z.i.i.i.c.v.n.n.M.c.c.k.j.j.z.f.i.i.f.g.m.",
"z.b.b.x.z.z.j.z.z.k.z.k.k.z.z.k.k.c.c.k.j.z.c.c.k.c.c.f.c.f.c.z.j.k.z.i.i.f.s.f.",
"z.b.z.s.z.z.z.z.c.k.z.c.j.c.c.j.c.j.j.c.c.c.c.j.j.j.f.j.k.c.k.c.c.i.i.i.i.f.f.s.",
"s.z.z.z.z.z.j.k.k.z.c.j.c.z.k.c.z.k.c.z.c.c.c.k.i.i.i.i.i.c.c.c.c.j.a.s.i.f.f.f.",
"b.i.z.b.c.z.j.z.c.z.z.k.k.z.c.j.k.z.c.k.c.c.c.j.j.i.j.j.j.c.c.c.c.c.i.f.c.s.s.f.",
"z.r.s.z.z.c.c.z.j.k.c.z.z.k.k.c.z.k.j.c.c.c.c.l.j.j.j.j.z.c.n.n.c.j.c.c.c.f.c.s.",
"z.i.r.i.z.s.c.k.c.j.c.k.k.z.z.c.k.z.c.l.c.c.c.c.z.j.j.c.c.c.n.c.c.c.c.i.s.a.s.s.",
"v.i.s.s.c.c.c.z.c.c.z.c.z.k.c.z.c.z.c.c.c.c.c.z.c.c.c.c.c.c.c.c.c.c.c.z.c.s.z.z."
};
