/* XPM */
static char *player_right2[] = {
/* columns rows colors chars-per-pixel */
"40 40 187 2 ",
"   c #110A11",
".  c #341B19",
"X  c #131328",
"o  c #271E30",
"O  c #1D2B31",
"+  c #24352C",
"@  c #6B2B2B",
"#  c #722B2B",
"$  c #6E3534",
"%  c #743634",
"&  c #763D3C",
"*  c #78403F",
"=  c #5F653E",
"-  c #2B2B5C",
";  c #373974",
":  c #5B3651",
">  c #463869",
",  c #2F4A41",
"<  c #3A624E",
"1  c #3B6A56",
"2  c #38456D",
"3  c #4B5547",
"4  c #595549",
"5  c #70494A",
"6  c #566152",
"7  c #49745C",
"8  c #7C614F",
"9  c #697A52",
"0  c #76715B",
"q  c #4E486C",
"w  c #524B79",
"e  c #6F536D",
"r  c #477C65",
"t  c #567A67",
"y  c #7B6D66",
"u  c #777663",
"i  c #8B2F2F",
"p  c #922F2F",
"a  c #873B3E",
"s  c #913530",
"d  c #A33232",
"f  c #B13535",
"g  c #BA3636",
"h  c #BD3839",
"j  c #C23A39",
"k  c #BD423D",
"l  c #90613D",
"z  c #AF6E39",
"x  c #CD453C",
"c  c #A93740",
"v  c #884C46",
"b  c #865440",
"n  c #8C5748",
"m  c #8D5C4C",
"M  c #96584B",
"N  c #9A5D52",
"B  c #B24D4C",
"V  c #8C614E",
"C  c #8D6352",
"Z  c #876A57",
"A  c #A76554",
"S  c #AA755C",
"D  c #835A65",
"F  c #BB5A63",
"G  c #8F6C6F",
"H  c #8D7968",
"J  c #A26962",
"K  c #B67A61",
"L  c #D25242",
"P  c #E75B43",
"I  c #EC5E44",
"U  c #F46547",
"Y  c #F46748",
"T  c #F86848",
"R  c #4B856C",
"E  c #53846C",
"W  c #5D856B",
"Q  c #4D8C72",
"!  c #579479",
"~  c #6C876F",
"^  c #62896B",
"/  c #76846B",
"(  c #79926B",
")  c #628C70",
"_  c #669376",
"`  c #6B987A",
"'  c #779376",
"]  c #9F883A",
"[  c #AA863A",
"{  c #B18B3F",
"}  c #B0A853",
"|  c #87876E",
" . c #879577",
".. c #989676",
"X. c #B59174",
"o. c #98AB7C",
"O. c #D2B346",
"+. c #D0A950",
"@. c #C78569",
"#. c #D58E6E",
"$. c #D69775",
"%. c #DA9372",
"&. c #E88377",
"*. c #E5A47D",
"=. c #EDCC55",
"-. c #47548C",
";. c #527A8A",
":. c #5B7CA2",
">. c #837A8F",
",. c #BB7483",
"<. c #619980",
"1. c #54AF88",
"2. c #4FB087",
"3. c #4DB08A",
"4. c #54B48C",
"5. c #5AB58F",
"6. c #5CB791",
"7. c #56B992",
"8. c #5CBB94",
"9. c #63A182",
"0. c #6CA485",
"q. c #60AC8B",
"w. c #7AA784",
"e. c #64B18F",
"r. c #7AB18C",
"t. c #61BD96",
"y. c #64BF99",
"u. c #6BBF9A",
"i. c #7BBC97",
"p. c #5FC199",
"a. c #64C29B",
"s. c #6CC49E",
"d. c #66C89F",
"f. c #6BCA9E",
"g. c #72C59E",
"h. c #7BC49D",
"j. c #71C89E",
"k. c #7BC99F",
"l. c #64C5A0",
"z. c #6EC7A1",
"x. c #6DCAA3",
"c. c #6DC9A8",
"v. c #72C6A1",
"b. c #7BC6A2",
"n. c #72C9A3",
"m. c #79CAA5",
"M. c #75C5A9",
"N. c #74CBA9",
"B. c #7CCDAA",
"V. c #74D0A8",
"C. c #7ED3AD",
"Z. c #849980",
"A. c #859C96",
"S. c #87AD88",
"D. c #94AB84",
"F. c #84B38B",
"G. c #94B78B",
"H. c #9CBD8F",
"J. c #8CA09F",
"K. c #89BA92",
"L. c #A0BE91",
"P. c #B395AC",
"I. c #8DA3A0",
"U. c #CA8A91",
"Y. c #E99F9A",
"T. c #EBB287",
"R. c #85C49A",
"E. c #8BC59B",
"W. c #8AC79B",
"Q. c #97C698",
"!. c #A4C595",
"~. c #81CBA7",
"^. c #80D2AE",
"/. c #99D3A8",
"(. c #83D5B2",
"). c #85DAB4",
"_. c #8AD9B6",
"`. c #8CDDBA",
"'. c #8BE0B8",
"]. c #91E2BE",
"[. c #A8A5C4",
"{. c #AEB1C5",
"}. c #CCBDCA",
"|. c #93E3C0",
" X c #CEC1CF",
".X c #D6C3D0",
"XX c #DED0E0",
/* pixels */
"B.M.M.M.M.c.N.c.V.V.x.d.d.a.f.j.V.V.m.n.n.n.N.m.m.n.m.m.n.N.N.m.m.m.v.n.n.m.n.m.",
"N.c.M.c.c.c.x.x.f.d.p.p.7.7.5.p.d.f.x.f.x.x.x.f.z.x.c.n.n.N.n.n.v.n.v.v.j.g.g.v.",
"N.c.c.c.c.c.x.d.f.d.p.7.4.2.4.p.d.x.x.V.x.x.z.a.d.z.z.n.n.N.n.n.n.v.v.v.g.x.g.n.",
"N.c.l.p.l.d.d.c.f.f.a.7.4.2.4.p.d.x.x.x.n.z.a.y.y.y.z.z.N.n.n.s.s.s.v.v.n.g.j.v.",
"c.p.7.7.p.l.d.d.V.f.d.p.1.2.1.a.d.V.V.x.x.d.y.t.t.y.a.z.n.n.x.f.s.s.n.f.g.n.g.n.",
"c.p.3.3.3.p.d.V.x.V.d.7.4.2.4.8.l.x.V.x.d.8.8.6.e.y.a.s.n.j.n.s.z.s.z.v.j.v.j.g.",
"c.p.3.3.3.p.d.d.j.f.a.t.4.4.5.a.f.V.x.f.t.6.5.8.8.y.y.z.z.x.n.x.n.s.n.s.v.g.g.n.",
"l.p.p.7.7.3.p.l.a.f.a.a.p.8.t.a.d.f.a.8.6.5.6.8.u.a.f.z.z.n.n.n.n.v.f.n.g.n.n.g.",
"c.d.p.a.6.1.4.5.t.l.x.f.s.a.a.s.f.t.5.4.4.5.t.u.a.z.g.z.z.z.n.N.n.n.x.n.j.v.g.n.",
"V.l.f.x.y.1.1.5.t.z.c.n.n.k.R.0.` _ ^ W ^ ) _ ` 0.r.~.v.z.z.x.n.n.c.z.s.x.g.n.g.",
"n.z.z.v.u.6.5.t.y.f.x.n.x.h.D.0 C C V m m m V C Z | G.b.g.x.n.x.n.z.s.f.s.v.j.n.",
"v.g.g.v.g.s.u.a.a.z.z.z.n.0.0 k P Y Y Y Y Y U U L M / H.h.s.x.c.x.z.z.s.f.v.v.v.",
"s.g.g.g.b.v.v.z.z.v.z.z.Q. .8 P Y T T T T T T T U L N ~ G.W.f.s.z.x.z.s.s.n.j.v.",
"j.j.b.h.h.v.v.s.z.n.n.n.w.H B U Y T T T T T T T U &.U.5 / S.W.f.z.x.c.x.n.g.v.g.",
"s.g.k.h.b.g.v.g.z.n.n.n.` C j P Y U T T T T T T I Y. X$ H Z.F.z.f.z.n.n.j.j.n.n.",
"f.g.k.~.b.g.v.v.v.v.v.z.~ n j j P U Y Y U U U U x U.}.& }.J.Q f.z.z.s.f.s.n.g.g.",
"f.j.h.~.b.M.g.v.v.z.v.v.~ n j j j j j x j j x j j ,.[.c .XJ.t z.z.z.a.z.v.g.j.g.",
"f.g.h.k.h.i.v.v.n.v.v.z.E 4 p h j j j j g j j j c L ,.,.XXI.R M.v.s.z.v.v.z.s.g.",
"f.j.h.b.b.g.v.v.v.v.v.z.R 3 # d d f j g g j j h L F ,.[.{.A.<.z.z.s.z.n.m.n.s.s.",
"f.j.g.g.h.g.v.v.z.n.v.g.r 3 & @ @ i g g g g g g P.[.[.[.r ` Q.n.s.z.z.n.n.n.g.g.",
"x.j.k.g.h.v.v.v.M.v.z.v.! 6 * & & % # # # # # # % > w y D.K.m.m.N.B.C.B.m.n.g.j.",
"n.j.j.g.u.g.v.v.z.v.v.v.r.^ 3 5 A K S & M A M . n J G u K.R.m.N.C.).).C.n.j.n.g.",
"n.n.h.n.v.v.n.n.z.n.z.z.W.w.9 4 K T.T.N K *.@.. K $.X. .i.m.v.B.).'.`.C.n.g.g.g.",
"m.g.g.m.M.n.z.z.n.z.v.n.n.E.o., A $.T.#.&.*.*.b $.X.| L.~.v.n.B.`.].`.^.g.g.s.g.",
"g.g.v.M.v.v.z.n.v.n.v.n.Q.` t ] b v M #.#.%.%.@.H ..L.R.v.v.b.B.].|._.~.m.s.u.a.",
"g.g.u.n.m.x.z.x.x.v.x.z.9.( } O.{ l * a e D N N 6 ' !.h.g.u.v.~.].].`.^.v.s.u.g.",
"b.u.v.z.n.z.c.z.z.x.n.x.! 9 +.=.O.z a : > > 5 J 0  .F.k.M.g.b.~.].].`.(.m.g.s.j.",
"b.u.z.M.c.x.v.x.x.z.x.s.R 3 l =.{ z c > ; ; w T.T...! ^.b.b.M.B._.`.`.(.n.n.n.B.",
"b.M.z.z.z.c.x.z.f.n.x.x.W W [ * % i s   - ; > U.%.| <._.^.M.h.h.b.B.^.M.V.j.^.).",
"b.M.M.z.z.v.v.x.j.j.n.f.` ^ = ] 5 e >.;.O X o N 0 ' E.`.(.B.v.u.u.g.b.n.j.k.).'.",
"M.M.v.z.z.v.v.x.j.V.V.j.Q.` < Z q -.:.;., O + 4 ^ r./.).B.n.v.u.g.v.n.n.j.k.^.).",
"b.v.v.M.n.v.z.v.f.f.j.j.j.p.7 2 ; ; ; < 1 1 7 r K./.C.C.N.M.z.M.g.n.n.j.f.V.V.^.",
"M.M.v.M.M.g.z.z.n.z.n.z.n.R.F.r 1 1 r G.i.a.s.z.n.B.N.N.n.n.x.z.x.n.n.s.s.j.m.B.",
"v.v.b.v.v.M.z.v.z.n.z.n.z.b.k.q.q.q.e.R.g.v.g.n.n.n.n.j.n.n.n.g.v.s.s.s.s.j.j.j.",
"v.M.v.M.v.z.z.n.n.n.z.n.n.z.v.v.n.z.z.n.n.n.n.x.s.z.j.x.n.x.n.n.n.s.s.g.s.s.g.j.",
"g.v.v.v.n.n.v.v.n.z.n.z.n.n.z.n.v.x.n.v.n.n.n.n.z.s.s.s.s.c.n.x.n.z.g.f.g.g.f.j.",
"v.v.v.M.v.v.v.z.v.x.n.z.z.v.n.z.x.v.x.x.n.n.n.z.s.s.z.z.z.v.n.n.n.f.s.g.n.g.j.g.",
"v.u.g.g.n.n.x.v.n.n.z.n.n.x.z.n.v.n.v.n.n.n.n.v.v.z.z.z.n.n.n.N.n.v.n.n.g.f.j.g.",
"v.s.u.g.v.g.n.x.z.n.z.n.c.v.n.x.n.z.n.c.n.n.n.c.n.z.z.n.n.n.n.n.n.n.f.g.n.j.g.g.",
"m.g.s.j.v.n.n.v.v.n.n.n.v.n.n.v.v.x.n.n.n.n.n.n.n.n.n.n.n.n.m.n.m.c.v.n.v.g.v.n."
};
