/* XPM */
static char *player_up2[] = {
/* columns rows colors chars-per-pixel */
"40 40 186 2 ",
"   c #0C0505",
".  c #0E0708",
"X  c #0F0808",
"o  c #170E0C",
"O  c #0B0D12",
"+  c #2A1616",
"@  c #331B1A",
"#  c #2A1D2D",
"$  c #372724",
"%  c #4C2929",
"&  c #5A2726",
"*  c #54372B",
"=  c #4F3D30",
"-  c #6C2929",
";  c #702B2A",
":  c #792A2A",
">  c #6C3434",
",  c #6C3939",
"<  c #723837",
"1  c #743B3B",
"2  c #3D4336",
"3  c #5B4338",
"4  c #674339",
"5  c #7B4E38",
"6  c #282650",
"7  c #393870",
"8  c #663B42",
"9  c #4C3866",
"0  c #623E66",
"q  c #33554B",
"w  c #3B6652",
"e  c #3B5166",
"r  c #55564D",
"t  c #784040",
"y  c #794C42",
"u  c #664150",
"i  c #51644A",
"p  c #4A6558",
"a  c #596A54",
"s  c #43725D",
"d  c #686E45",
"f  c #7B6D5B",
"g  c #4C5272",
"h  c #654A6C",
"j  c #466966",
"k  c #516F6F",
"l  c #477C64",
"z  c #487A66",
"x  c #667560",
"c  c #637B64",
"v  c #787964",
"b  c #852626",
"n  c #892828",
"m  c #813131",
"M  c #9A3131",
"N  c #913E3E",
"B  c #A63333",
"V  c #AD3333",
"C  c #B43636",
"Z  c #BD3737",
"A  c #BB3D39",
"S  c #C33A39",
"D  c #C83F3A",
"F  c #91462E",
"G  c #864F37",
"H  c #885137",
"J  c #87553F",
"K  c #B1403A",
"L  c #96723D",
"P  c #A3743A",
"I  c #C7423C",
"U  c #9E4A42",
"Y  c #8A5745",
"T  c #885E4B",
"R  c #96584A",
"E  c #A75146",
"W  c #BB5243",
"Q  c #8A614E",
"!  c #947649",
"~  c #896451",
"^  c #8A6958",
"/  c #80715E",
"(  c #95765F",
")  c #926A73",
"_  c #EA5D44",
"`  c #C27741",
"'  c #D67744",
"]  c #EC6045",
"[  c #F46547",
"{  c #F46748",
"}  c #F86848",
"|  c #C67563",
" . c #4E856E",
".. c #5C866C",
"X. c #548C73",
"o. c #5D9375",
"O. c #67856B",
"+. c #7A856E",
"@. c #618D71",
"#. c #649375",
"$. c #69997B",
"%. c #7AA37E",
"&. c #9E8738",
"*. c #AB883E",
"=. c #B68939",
"-. c #B3913C",
";. c #C2A23C",
":. c #9F8544",
">. c #BD9448",
",. c #8C8260",
"<. c #849676",
"1. c #AF8366",
"2. c #B88368",
"3. c #83A17E",
"4. c #91A27D",
"5. c #C59B4D",
"6. c #D3AD4F",
"7. c #D6B647",
"8. c #D9B849",
"9. c #CF8B6E",
"0. c #E2C24D",
"q. c #F7D757",
"w. c #F8D858",
"e. c #434E82",
"r. c #537983",
"t. c #678D82",
"y. c #689E80",
"u. c #57AC88",
"i. c #4FB087",
"p. c #4DB08A",
"a. c #53B48C",
"s. c #5AB58F",
"d. c #5CB791",
"f. c #56B992",
"g. c #5CBB94",
"h. c #66A686",
"j. c #7CAB84",
"k. c #6CB18E",
"l. c #7EB88F",
"z. c #66B492",
"x. c #6AB795",
"c. c #62BD96",
"v. c #64BE98",
"b. c #6BBE99",
"n. c #74B293",
"m. c #79BC97",
"M. c #6C98B3",
"N. c #5FC199",
"B. c #64C39C",
"V. c #6DC49E",
"C. c #66C89F",
"Z. c #6BCA9E",
"A. c #72C59E",
"S. c #7AC49E",
"D. c #71C89E",
"F. c #7AC89F",
"G. c #64C5A0",
"H. c #6EC7A1",
"J. c #6DCAA3",
"K. c #6DC9A8",
"L. c #72C6A1",
"P. c #7BC6A2",
"I. c #71C9A3",
"U. c #7ACAA5",
"Y. c #75C5A9",
"T. c #73CBAA",
"R. c #7CCDAA",
"E. c #74D0A8",
"W. c #7ED3AD",
"Q. c #86AA83",
"!. c #8AB78D",
"~. c #8ABD93",
"^. c #8CB79D",
"/. c #88C69B",
"(. c #97C496",
"). c #A2C494",
"_. c #81CCA7",
"`. c #81D2AE",
"'. c #84D6B2",
"]. c #85DAB4",
"[. c #8AD9B6",
"{. c #8CDDBA",
"}. c #A7DBB0",
"|. c #8BE0B8",
" X c #91E2BE",
".X c #93E3C0",
/* pixels */
"R.Y.Y.Y.Y.T.T.K.E.E.Z.J.C.B.Z.Z.E.R.I.I.I.I.R.I.R.I.I.U.T.I.U.U.U.I.U.L.P.I.L.U.",
"T.K.K.K.K.K.J.J.J.C.N.N.f.a.a.N.Z.Z.J.J.J.J.Z.H.Z.H.K.I.R.J.I.I.L.I.L.L.D.I.A.L.",
"T.K.K.K.K.K.G.J.Z.C.N.f.a.i.a.N.C.J.J.E.J.J.V.V.C.H.H.I.I.H.I.I.L.H.H.I.I.I.A.I.",
"T.K.G.B.G.C.C.J.Z.Z.N.f.a.i.f.N.C.J.J.J.H.Z.B.B.v.v.H.H.I.R.K.H.V.V.I.A.A.D.I.A.",
"K.G.f.f.N.G.C.C.E.Z.C.N.a.i.a.N.C.J.E.J.J.C.B.g.c.c.B.H.I.I.J.Z.C.V.L.L.I.V.F.L.",
"K.f.f.p.p.N.C.E.E.J.B.g.a.i.a.g.J.E.E.J.B.g.g.d.z.c.B.H.I.I.I.H.H.V.L.H.D.I.D.L.",
"K.N.p.p.p.N.C.C.J.Z.B.g.s.a.s.c.C.J.J.Z.B.d.d.d.g.c.B.H.Z.I.I.H.H.A.Z.I.A.I.A.L.",
"G.N.N.f.f.p.N.N.B.Z.V.B.c.d.m.l.h.$.$.o...@.@.#.#.y.l./.V.I.K.I.I.I.L.V.I.A.I.L.",
"K.C.N.B.g.i.i.f.c.H.H.C.V.B.!.4./ ~ T T T T Q Q ~ / 4.~.H.H.I.E.E.K.Z.H.D.I.L.L.",
"K.J.C.H.v.u.u.d.c.H.H.K.I.L.h./ I _ { [ { { { [ ] D ^ $.V.H.I.K.I.H.L.V.H.A.D.L.",
"I.H.L.I.V.d.d.g.B.H.H.I.L.(.<.Q _ [ } } } } } } } ] R +.(.D.K.I.K.H.V.A.Z.A.I.L.",
"I.V.A.A.V.V.b.b.B.H.H.H.b.j.( E [ [ } } } } } } } } W ^ 3.V.J.J.H.H.H.Z.L.L.D.L.",
"A.A.S.S.L.L.L.H.V.H.H.H.C.O.R D _ } } } [ [ } } [ _ I U O.b.V.V.H.H.H.Z.L.Z.A.I.",
"D.D.S.S.S.L.L.V.H.I.I.I.L.c R Z S _ [ [ [ [ [ [ [ D S U x A.H.H.H.H.K.J.D.A.I.H.",
"V.A.F.S.P.L.L.H.H.I.I.I.L.l y A S S D D S D D D D S S Y w b.H.H.C.I.H.H.H.I.I.F.",
"Z.D.F._.P.S.A.H.I.L.I.P.(.s 3 M Z S Z S S S Z Z S Z M 4 w /.F.H.H.H.H.L.Z.A.A.L.",
"Z.D.S._.P.P.L.L.H.I.A.A.%.a 3 : B Z Z V b b V S Z B m , i %.S.D.H.V.H.H.H.L.A.A.",
"Z.D.S.P.F.L.A.L.L.L.D.x. .! J > ; V Z n     : Z C - > H ! s x.E.L.V.V.H.L.A.V.A.",
"Z.D.S.L.S.P.A.L.L.I.I.V. .1.4 + 1 ; ; - & & - ; - 1 @ * 2.p z.L.H.V.H.I.I.L.V.V.",
"Z.D.L.S.m.A.L.V.L.L.Z.D.%.a 2 o 8 1 G G < < H H < 1 + X = a k.L.H.V.H.I.R.Z.A.A.",
"D.D.D.S.m.L.L.Y.H.Y.H.F.(.#.p $ % % 5 J m t Y 5 % % # # = f n.Y.T.E.W.R.L.L.A.A.",
"E.D.S.A.A.L.L.H.I.L.I.H.Y.).<.r O X $ < , , , % X O 6 h 2.v n.I.W.].[.W.L.Z.I.S.",
"I.F.S.A.L.L.L.H.H.I.H.L.L.).c q 7 8 @ X .     + 8 1 9 7 g v n.R.[.|.|.`.U.D.A.D.",
"L.L.L.L.I.L.I.I.I.H.H.P./.X.j r 8 ! F n b b b F P C 0 e j Q.S.R.{. X{.`.L.V.V.A.",
"P.V.L.L.I.I.L.H.I.I.H.V.%.v g 9 N L ` ' ' ' ' ` P K 0 k +.~.S._. X.X[.W.L.V.c.V.",
"P.V.V.L.I.Y.H.H.H.I.H.b.l 1.) 0 C Y 5.q.q.q.q.6.Y A Y <.).m.L.R. X.X[.`.P.V.V.V.",
"P.b.H.Y.I.H.K.H.K.H.I.c. .1.9.| A =.8.q.w.w.w.0.=.A r X.S.A.P.`. X X{.'.R.V.V.F.",
"P.V.H.H.K.I.J.H.H.H.H.D.j...a r 0 *.;.7.q.q.8.;.-.0 p y.Y.S.P.R.[.{.{.`.D.I.I.R.",
"R.L.H.H.H.H.K.H.H.K.H.F./.h.#.z e d &.-.>.>.>.:.f g t.m.`.Y.S.S.U.R.R.U.D.F.`.].",
"Y.L.Y.H.H.I.I.J.J.H.I.J.I.L./.!. .s d L 4 u ! ,.e.r.^.}.`.R.Y.b.b.A.U.Y.D.E.].|.",
"Y.P.H.L.H.L.I.H.H.I.H.H.I.I.Z.L.A.).#.s w q r.M.M.z m.].W.Y.V.V.A.A.U.L.D.E.`.].",
"P.Y.L.L.Y.I.H.I.H.I.I.I.D.I.I.I.V.F.A.c.z.Q.X.z k !._.R.T.L.L.L.I.I.I.D.D.D.E.W.",
"Y.L.Y.Y.L.Y.H.L.H.I.I.H.I.I.H.I.H.I.I.H.L./.k.u.h._._.U.I.I.H.H.H.H.I.Z.V.D.I.R.",
"L.L.P.L.L.L.L.H.H.Y.I.H.H.I.I.H.I.H.H.I.H.L.H.I.I.I.I.I.I.I.I.I.H.I.V.A.V.A.F.D.",
"L.L.Y.b.H.L.L.I.H.H.I.I.H.I.J.I.I.I.I.I.I.I.H.I.H.H.Z.L.I.H.I.I.I.V.V.V.A.V.Z.F.",
"P.L.L.Y.Y.L.H.H.H.I.I.H.I.I.H.I.H.I.H.H.I.I.I.H.V.V.V.V.H.H.I.I.I.H.Z.A.Z.V.A.A.",
"L.L.Y.L.I.L.H.L.H.I.I.H.H.H.I.H.I.I.H.I.I.I.I.H.H.V.H.H.H.L.I.I.I.I.A.H.I.D.A.D.",
"L.b.V.S.L.I.I.H.I.H.I.I.I.I.I.I.H.I.I.H.I.I.I.K.H.H.H.H.I.I.T.I.I.L.V.I.D.A.Z.S.",
"L.V.V.V.L.I.I.I.I.H.I.H.H.H.H.I.I.H.K.I.I.I.I.I.L.H.I.I.I.I.I.I.I.I.H.I.I.Z.A.L.",
"U.A.V.A.L.L.I.I.I.I.I.I.I.I.I.I.I.L.I.I.I.I.I.I.L.I.I.I.I.I.T.I.I.I.I.I.L.A.L.L."
};
