/* XPM */
static char *player_down2[] = {
/* columns rows colors chars-per-pixel */
"40 40 191 2 ",
"   c #0B0708",
".  c #141317",
"X  c #24120E",
"o  c #281A14",
"O  c #261A1A",
"+  c #351A19",
"@  c #1C2921",
"#  c #232026",
"$  c #2C2637",
"%  c #572D28",
"&  c #52332C",
"*  c #6A2727",
"=  c #772928",
"-  c #2D463B",
";  c #35473C",
":  c #65403D",
">  c #2C2B44",
",  c #30395B",
"<  c #353869",
"1  c #5A3541",
"2  c #662D47",
"3  c #453A70",
"4  c #385546",
"5  c #3E5B53",
"6  c #3D4479",
"7  c #454F42",
"8  c #7B4441",
"9  c #6A5550",
"0  c #496958",
"q  c #636958",
"w  c #7C715D",
"e  c #4A506D",
"r  c #5F5669",
"t  c #735B79",
"y  c #496575",
"u  c #4E7171",
"i  c #6C766F",
"p  c #952E2E",
"a  c #883633",
"s  c #B83738",
"d  c #BE3A3A",
"f  c #C23A39",
"g  c #885C3E",
"h  c #A8413D",
"j  c #CC433C",
"k  c #D4493D",
"l  c #853444",
"z  c #974F4C",
"x  c #89584A",
"c  c #965A52",
"v  c #B84843",
"b  c #B65353",
"n  c #926A4D",
"m  c #857A5D",
"M  c #A36758",
"N  c #A96D5B",
"B  c #BC6955",
"V  c #AB725C",
"C  c #B57959",
"Z  c #9B5D68",
"A  c #BB5A64",
"S  c #8A7163",
"D  c #9A7C6E",
"F  c #A87964",
"G  c #BE7B63",
"H  c #B37D72",
"J  c #CA504E",
"K  c #DA5643",
"L  c #E45843",
"P  c #EC6549",
"I  c #F36446",
"U  c #F46649",
"Y  c #F66849",
"T  c #F86848",
"R  c #E56E55",
"E  c #F6765B",
"W  c #CA6A6F",
"Q  c #C07D64",
"!  c #4E876E",
"~  c #59826B",
"^  c #5C8778",
"/  c #599579",
"(  c #72886E",
")  c #648C75",
"_  c #758A75",
"`  c #64977C",
"'  c #759279",
"]  c #79957D",
"[  c #7CA07B",
"{  c #97836D",
"}  c #838575",
"|  c #968C7A",
" . c #B7967F",
".. c #C8846A",
"X. c #CF8A6B",
"o. c #D38D6E",
"O. c #CD8F73",
"+. c #D89473",
"@. c #E2A07A",
"#. c #526B93",
"$. c #6E7198",
"%. c #5E7FA7",
"&. c #8D789D",
"*. c #B77C8E",
"=. c #C27D8A",
"-. c #5D9386",
";. c #699A82",
":. c #7A9C83",
">. c #729A8F",
",. c #4EAF89",
"<. c #54AF88",
"1. c #4EB088",
"2. c #53B48C",
"3. c #5AB68F",
"4. c #5DB791",
"5. c #56B992",
"6. c #5CBB94",
"7. c #69A88B",
"8. c #78A78B",
"9. c #75AF92",
"0. c #6BB594",
"q. c #62BD96",
"w. c #64BF98",
"e. c #6CBF9A",
"r. c #76B898",
"t. c #5E80A9",
"y. c #5FC199",
"u. c #64C39C",
"i. c #6DC49E",
"p. c #66C89F",
"a. c #6BCA9E",
"s. c #72C59E",
"d. c #7AC59F",
"f. c #71C89E",
"g. c #79C89F",
"h. c #64C5A0",
"j. c #6EC7A1",
"k. c #6DCAA3",
"l. c #6DC9A8",
"z. c #72C6A1",
"x. c #7BC6A2",
"c. c #71C9A3",
"v. c #7ACAA5",
"b. c #75C5A9",
"n. c #74CBA9",
"m. c #7CCDAA",
"M. c #74D0A8",
"N. c #7ED3AD",
"B. c #9F8184",
"V. c #929B86",
"C. c #B48599",
"Z. c #94A989",
"A. c #8FA891",
"S. c #88B799",
"D. c #9BB598",
"F. c #A7A48D",
"G. c #9997BB",
"H. c #93BDA2",
"J. c #D08B88",
"K. c #C69C87",
"L. c #CA8A94",
"P. c #ECB287",
"I. c #EDB287",
"U. c #CD99A7",
"Y. c #D999A0",
"T. c #DFA8A5",
"R. c #89C39C",
"E. c #97C495",
"W. c #8ACAA6",
"Q. c #88CEAB",
"!. c #95C7A6",
"~. c #81D2AD",
"^. c #8FD0AD",
"/. c #94D0AB",
"(. c #83D4B1",
"). c #85DAB4",
"_. c #8ADAB7",
"`. c #8CDDBA",
"'. c #A4CCAA",
"]. c #A2D0AC",
"[. c #8DE0BA",
"{. c #91E2BE",
"}. c #A9E2BE",
"|. c #BFBAD4",
" X c #C8BED5",
".X c #93E3C0",
"XX c #DAD0DC",
"oX c #E6D1DC",
"OX c #CBCBE3",
"+X c #D9D9E9",
"@X c #E8DBE7",
/* pixels */
"m.b.b.b.b.l.n.l.M.k.k.a.a.p.a.f.M.M.c.c.c.c.c.n.c.v.c.c.v.v.n.v.v.c.v.z.v.z.z.v.",
"n.l.b.l.l.l.k.k.p.p.y.y.5.5.5.y.a.a.k.k.k.c.k.k.a.k.l.c.n.c.c.c.j.z.z.z.c.c.s.z.",
"n.l.l.l.l.l.k.p.a.p.y.2.2.1.2.y.p.k.k.k.k.k.a.i.i.i.j.c.n.c.c.c.j.z.z.f.f.s.f.z.",
"n.l.h.y.h.p.p.l.a.a.y.y.2.1.2.y.p.k.k.M.k.i.u.u.w.u.j.c.c.c.c.k.i.s.k.z.s.c.z.c.",
"l.y.y.5.y.h.p.p.k.k.p.5.2.1.2.6.p.M.k.k.k.p.u.4.q.q.i.j.c.c.k.a.i.i.z.j.f.c.c.s.",
"h.y.,.,.1.y.p.M.M.k.p.y.2.1.2.u.p.M.M.M.p.6.4.3.4.q.u.i.c.c.c.i.i.i.k.s.f.g.s.z.",
"l.y.,.,.,.y.p.p.k.a.i.4.3.<.5.6.p.M.k.p.q.5.3.3.q.q.u.i.j.k.c.k.j.k.j.z.c.f.z.c.",
"l.y.5.y.5.,.y.h.u.a.i.u.4.i.R.A.] ] ' ' _ _ ' ' :.S.W.j.j.c.c.c.c.c.z.a.s.c.s.z.",
"l.y.y.h.6.<.<.3.y.h.k.i.u.r.D.{ F N N N N N N V F V.!.j.j.j.c.n.c.c.k.k.s.c.z.z.",
"l.h.k.k.w.<.<.3.q.j.l.k.z.r.| v L T T T T T Y T f N V.x.j.l.l.c.c.c.i.i.k.s.s.z.",
"c.k.k.c.e.4.3.q.u.i.c.c./.D.m P U T T T T T T I T B } '.x.j.k.c.l.k.j.a.i.z.f.z.",
"s.s.s.f.s.e.e.u.u.k.i.k.S.| v I T T T T T T T T T K M V.s.j.j.k.k.j.i.i.a.z.z.z.",
"i.f.s.s.g.z.z.j.i.z.c.i.;.S f L I T T T T T T I L k v ( 0.i.j.k.j.k.j.i.s.z.f.z.",
"s.s.x.s.d.z.z.i.i.c.c.c./ 9 s f k T U E E U I I j s h 0 0.c.j.j.k.k.k.c.c.f.z.z.",
"a.s.d.g.d.z.s.j.j.c.c.].` : h f f f J oX@XY.f f j s h 0 S.Q.j.j.i.k.j.k.a.z.f.c.",
"a.s.d.W.x.d.z.z.c.z.z.;.} g a C.b A C.W W =.C.d *.Z a n ' 0.j.j.j.j.i.k.s.f.s.c.",
"a.f.s.W.x.x.z.z.f.f.f.! m g + &.C.U.OXJ.=.U. X=.&.r % C ( 0.c.k.j.i.j.j.z.i.s.s.",
"a.f.g.x.d.s.z.z.c.f.f.~ m x X 3 G.OXOXOXOXOXOXOX$.1 O F } 0.n.c.j.i.i.j.c.c.i.s.",
"a.f.x.s.d.z.z.z.c.z.g.E.~ 7 g G t 3 3 #.#.3 < #.H M 8 4 D./.c.c.j.i.i.c.z.g.a.i.",
"a.f.g.r.d.s.z.z.z.c.f.g./ q ..o.+.t O  .K.9 $ O.W X.n @ } D./.c.s.i.c.c.n.s.s.s.",
"f.f.g.s.r.z.z.z.z.z.z.j.0.( { o.J...& P.P.{ & @.+.G Z > D F.D.n.n.m.N.n.n.z.f.s.",
"M.f.s.s.z.z.z.z.k.z.z.z./.| w n C V c I.I.o.z ..N x 1 < H  .A.v.N.).).N.z.f.z.s.",
"z.z.g.s.z.z.z.z.z.j.c.j.R.[ 4 . % M ..o.o.o.Q : o   . < H  .A.v.).[.[.~.v.f.s.s.",
"x.f.s.x.c.z.j.z.k.c.c.j./ u < , l = o o o o + = p 2 , 5 ( A.!.N.[.{.`.~.s.i.i.s.",
"z.s.z.b.z.z.l.z.z.k.z.j.` i B.B.c a * r r 9 * p s z t :.7.r.W.m.{..X_.~.z.i.w.i.",
"x.i.j.z.c.z.z.k.k.z.k.z.] { P.P.M a J |.|.L.f d p x _ '.x.s.e.~.{..X_.~.x.i.e.s.",
"z.e.j.z.l.z.k.j.j.k.z.j.8.{ O.o.c z R XX+XT.L s + ; ! x.z.r.x.~.{..X`.(.n.f.i.s.",
"x.s.j.z.c.k.j.k.k.j.k.k.E.Z.| | q ; X # # # O < $.#.;.~.v.b.z.Q._.[.`.~.s.z.c.N.",
"b.z.j.j.k.l.j.j.k.j.k.j.x.R.9.9.A.) 5 - > 4 6 %.y >.!.`.(.v.b.r.x.m.~.v.f.g.~.).",
"v.z.b.j.j.j.k.c.j.k.z.k.c.c.c.z.W.S.;.~ e #.t.t.u 8.}.[.(.m.z.i.e.s.c.b.f.M.).[.",
"v.b.z.b.l.z.z.j.k.z.z.k.c.k.c.k.c.z.z.'.;.y 6 6 -.9.).(.N.b.z.i.s.z.c.f.f.v.~.).",
"x.b.z.z.z.z.j.z.z.k.c.j.c.c.j.c.j.c.k.x.!.9.i ^ H.^.N.N.n.z.z.z.z.z.c.f.f.M.M.~.",
"b.z.b.b.z.z.z.j.z.j.j.c.k.j.c.k.c.c.j.z.x.d.0.0.x.~.n.n.c.c.k.j.j.c.c.i.i.f.c.M.",
"z.z.x.z.z.z.b.l.j.z.c.z.z.c.c.z.j.c.c.k.j.j.c.c.c.c.c.c.c.c.c.s.k.i.s.i.i.s.f.g.",
"z.z.b.e.j.z.z.k.z.z.k.k.c.j.j.c.c.j.j.c.z.c.c.j.i.j.s.i.k.c.f.c.c.i.i.i.s.i.f.s.",
"z.z.z.b.z.z.z.z.c.l.z.c.j.c.z.k.z.k.c.z.c.c.c.j.j.i.j.i.i.c.c.c.c.j.i.f.a.s.f.s.",
"x.z.z.b.z.c.z.k.k.c.z.k.c.c.k.z.k.z.c.k.c.c.c.i.i.i.j.j.j.c.n.c.c.c.i.c.s.f.s.f.",
"z.e.s.z.z.c.z.k.z.j.c.c.c.j.j.c.c.j.j.c.c.c.c.l.j.j.j.z.j.c.n.c.c.k.f.k.s.c.f.s.",
"z.i.e.i.z.c.c.z.c.j.k.z.k.c.c.k.l.z.c.c.c.c.c.c.c.j.c.j.c.c.c.c.c.c.c.s.f.a.s.z.",
"v.i.s.s.z.z.c.c.z.c.z.c.z.z.c.z.c.c.c.c.c.c.c.c.c.c.c.c.c.c.c.n.z.c.c.c.z.z.z.z."
};
