/* XPM */
static char *player_up[] = {
/* columns rows colors chars-per-pixel */
"40 40 192 2 ",
"   c #0D0606",
".  c #0D0A08",
"X  c #170B08",
"o  c #1E110F",
"O  c #131915",
"+  c #23160F",
"@  c #38281A",
"#  c #1B2D25",
"$  c #1B2A2E",
"%  c #392825",
"&  c #25352B",
"*  c #4A1616",
"=  c #442525",
"-  c #582626",
";  c #58302D",
":  c #6C2D2D",
">  c #752A2A",
",  c #6B302E",
"<  c #643533",
"1  c #693834",
"2  c #6E3B3B",
"3  c #733635",
"4  c #753B3B",
"5  c #7C4638",
"6  c #6D5530",
"7  c #7A6325",
"8  c #263147",
"9  c #383C6B",
"0  c #373D73",
"q  c #683645",
"w  c #5C3F61",
"e  c #2D4B40",
"r  c #395A4A",
"t  c #3A6552",
"y  c #3C6C57",
"u  c #374967",
"i  c #3C5866",
"p  c #384170",
"a  c #3F6565",
"s  c #4A524E",
"d  c #664A40",
"f  c #7A4240",
"g  c #784842",
"h  c #705E4C",
"j  c #436A59",
"k  c #4B755D",
"l  c #52735B",
"z  c #71614E",
"x  c #676A58",
"c  c #726452",
"v  c #756A58",
"b  c #6B7356",
"n  c #75765E",
"m  c #6C4F68",
"M  c #42616A",
"N  c #526464",
"B  c #447363",
"V  c #487D67",
"C  c #4C6977",
"Z  c #6C7C6E",
"A  c #777D68",
"S  c #852626",
"D  c #832B2A",
"F  c #942B2B",
"G  c #883328",
"H  c #833533",
"J  c #933231",
"K  c #9D3232",
"L  c #AC3333",
"P  c #BA3636",
"I  c #BC3B39",
"U  c #C13938",
"Y  c #964338",
"T  c #8A5439",
"R  c #905F3D",
"E  c #A9413D",
"W  c #B84A38",
"Q  c #AE5539",
"!  c #97683D",
"~  c #9C7936",
"^  c #AE6D39",
"/  c #A9783A",
"(  c #D54A3E",
")  c #923947",
"_  c #AA3840",
"`  c #834D40",
"'  c #905548",
"]  c #AD584A",
"[  c #93654D",
"{  c #9F7342",
"}  c #A6724D",
"|  c #B57B63",
" . c #C75343",
".. c #D75744",
"X. c #EA5C44",
"o. c #CF7643",
"O. c #D57844",
"+. c #E76447",
"@. c #EA6548",
"#. c #F56647",
"$. c #F86848",
"%. c #558169",
"&. c #529176",
"*. c #5D9A7B",
"=. c #6E8B6C",
"-. c #74846C",
";. c #72867E",
":. c #6C977A",
">. c #739979",
",. c #5FA07F",
"<. c #B28C36",
"1. c #B7973A",
"2. c #C7A73F",
"3. c #8A8350",
"4. c #B39840",
"5. c #948871",
"6. c #869679",
"7. c #979876",
"8. c #A19A63",
"9. c #AE9475",
"0. c #8FA57D",
"q. c #C5A440",
"w. c #C38668",
"e. c #D0987C",
"r. c #EDCB54",
"t. c #F6D657",
"y. c #50728B",
"u. c #5C9F82",
"i. c #739288",
"p. c #4EAF89",
"a. c #59AB88",
"s. c #4FB087",
"d. c #4DB08A",
"f. c #53B48C",
"g. c #5AB58F",
"h. c #5CB791",
"j. c #56B992",
"k. c #5CBB94",
"l. c #66A685",
"z. c #64AD8C",
"x. c #78A686",
"c. c #68B18E",
"v. c #7AB48E",
"b. c #69B794",
"n. c #62BC96",
"m. c #6BBA96",
"M. c #64BF98",
"N. c #6CBE99",
"B. c #76B892",
"V. c #6484A2",
"C. c #5FC199",
"Z. c #64C39C",
"A. c #6DC49E",
"S. c #66C89F",
"D. c #6BCA9E",
"F. c #72C59E",
"G. c #79C59E",
"H. c #71C89E",
"J. c #7BC89F",
"K. c #64C5A0",
"L. c #6EC7A1",
"P. c #6DCAA3",
"I. c #6DC9A8",
"U. c #72C6A1",
"Y. c #7BC6A2",
"T. c #72C9A3",
"R. c #7ACAA5",
"E. c #75C5A9",
"W. c #73CBAA",
"Q. c #7CCDAA",
"!. c #74D0A8",
"~. c #7ED3AD",
"^. c #89A581",
"/. c #87B48B",
"(. c #8DB58C",
"). c #9BB68B",
"_. c #94BB94",
"`. c #E0A580",
"'. c #85C59B",
"]. c #88C49A",
"[. c #8BC69D",
"{. c #95C397",
"}. c #86CEA7",
"|. c #80D2AE",
" X c #9ED4AC",
".X c #82D5B1",
"XX c #85DAB4",
"oX c #8AD9B6",
"OX c #8CDDBA",
"+X c #8BE0B8",
"@X c #91E2BE",
"#X c #93E3C0",
/* pixels */
"Q.E.E.E.W.W.W.W.!.P.P.D.S.S.D.H.!.R.W.H.T.T.W.T.R.R.W.R.R.R.W.R.R.R.U.R.T.R.R.R.",
"W.E.I.I.I.I.P.P.D.S.C.C.j.f.j.C.D.D.P.P.P.T.D.P.D.P.P.T.T.T.T.P.U.U.U.U.D.A.F.U.",
"W.I.I.I.I.S.K.I.D.S.Z.j.f.s.f.C.S.P.P.P.P.P.D.A.S.A.U.T.W.W.T.T.U.T.U.U.F.F.H.U.",
"W.I.K.k.S.S.I.S.D.D.Z.j.f.s.f.C.S.P.P.!.P.A.Z.n.n.Z.L.P.W.T.U.L.A.A.P.F.F.T.U.T.",
"I.C.C.j.C.C.S.I.!.D.S.C.f.s.f.k.S.P.P.!.S.S.Z.n.n.n.S.U.T.T.P.A.A.A.P.P.F.T.F.U.",
"S.C.d.d.d.K.S.!.!.D.S.j.f.s.f.C.S.!.!.!.D.k.k.h.h.n.N.A.D.T.T.A.A.A.U.F.H.F.T.U.",
"I.C.d.d.d.C.K.S.H.D.Z.C.f.f.j.Z.P.P.P.D.n.g.g.j.k.n.Z.A.A.P.T.P.A.T.P.U.T.F.H.T.",
"I.C.j.j.C.d.C.C.Z.D.A.C.C.c.B.l.c.z.z.,.,.*.,.l.l.B.G.A.P.T.T.T.T.P.U.H.T.A.A.F.",
"P.S.C.Z.k.f.p.h.M.S.L.S.A.A.).-.v c z h h h z c n >._.U.U.P.T.W.T.T.P.L.U.U.F.R.",
"I.K.S.P.M.a.p.g.n.L.T.T.W.N.-.] ..@.@.@.@.@.@.@. .[ :.T.L.L.P.W.T.P.L.L.D.U.T.U.",
"T.L.L.T.N.h.h.k.M.L.P.T.'.(.b  .X.$.$.$.$.$.$.#.X.] A {.F.L.P.T.T.P.A.L.U.T.F.U.",
"T.F.F.F.F.A.M.N.Z.L.L.L.v.7.' +.$.$.$.$.$.$.$.$.$. .[ ^.F.A.P.P.P.L.A.D.L.F.P.F.",
"A.F.F.F.F.U.U.L.L.L.P.L.l.v U X.$.$.$.$.$.$.$.#.X...E Z b.A.L.L.L.S.L.A.A.P.H.F.",
"H.F.Y.G.F.Y.U.A.L.T.T.W.x.c I U ..$.$.$.$.$.$.$.( U W b m.A.L.L.P.P.T.T.H.F.T.R.",
"A.F.J.G.Y.Y.A.L.L.T.T.T.u.s U U U U U ( U ( ( U U U L j n.L.L.L.P.P.P.T.T.H.T.F.",
"D.F.J.}.Y.G.U.U.U.U.T.[.*.r F P U U U U U U U U U L 3 t v.J.L.L.A.L.A.A.A.T.F.U.",
"D.F.G.}.}.Y.U.U.L.T.L./.=.s 1 K U U P F F L P P L F 1 s >.].D.D.L.A.S.A.U.U.A.F.",
"D.F.G.Y.G.N.U.U.U.U.U.&.b { 4 , K P L o   * P P D : f { k z.R.T.U.A.A.U.T.U.A.F.",
"D.D.G.G.B.E.U.U.U.T.F.&.b } o 1 > > > - - - > > 4 = @ w.l a.R.T.A.L.A.P.R.H.A.F.",
"D.H.F.G.G.U.U.L.L.U.T.x.=.x . 1 5 H T 3 3 5 T 1 4 = O b >.b.T.T.A.A.T.R.T.T.A.F.",
"H.H.F.G.N.Y.L.U.T.T.U.[.x.k # = ; < ! 5 q ` R ; ; % & %./.].R.T.W.Q.~.W.R.T.L.H.",
"!.H.F.F.F.Y.U.U.T.U.U.U._.0.e O . + < 5 2 4 <     # r ).].F.T.R.~.XXXX~.T.F.T.R.",
"R.H.G.F.U.U.U.U.U.U.U.{.l.j 9 q R 7 X   . . + <.6 = # j (.}.T.Q.oX+XOX|.T.A.F.H.",
"T.U.F.R.T.U.P.L.T.U.U.x.9.5.0 ) ^ / S S S S G <.Q q w 9.6./.U.Q.+X@XOX|.F.A.m.F.",
"F.F.F.E.U.T.L.T.U.T.F.:.9.e.w _ Q { O.O.O.O.o./ W ) m `.5.l.E.Q.@X#XoX|.U.F.A.A.",
"Y.A.L.T.T.T.P.L.P.U.L.x.5.| 2 J Y { t.t.t.t.r.T J H g 9.5.v.F.|.@X#XoX|.R.A.m.A.",
"Y.N.L.E.T.P.P.L.L.P.T.{.7.x O . 6 2.t.t.t.t.r.1.@ . & [ ).}.E.}.@X#XOX|.R.A.A.U.",
"Y.N.L.L.L.U.P.P.P.P.T.U.{.^.i y.3.1.2.q.q.q.2.1.;.C C )._./.E.Q.oXOXOX.XH.F.R.!.",
"E.E.A.E.P.P.P.L.P.L.L.P.Y.v.a i ;.8.<.! { ~ 4.7.N M C  X.XQ.F.E.E.Q.|.R.H.J.|.XX",
"Y.L.E.L.L.E.P.L.T.L.P.U.T.b.y $ u i.{ 6 d 6 3.V.8 e *.oX.XE.F.N.N.F.Y.U.H.!.XX+X",
"R.E.U.L.L.U.E.L.L.P.P.L.T.N.V u 0 u t t t t r p p M *..XQ.T.F.F.F.U.T.T.H.R.|.XX",
"E.Y.U.U.E.U.L.L.T.T.U.T.T.F.(.V j V /.n.n.B.^.B B i.[.Q.Q.E.U.U.D.R.T.T.H.H.!.|.",
"Y.U.E.U.E.F.L.U.P.U.T.L.T.U.'.c.z.z.'.U.L.G.'.z.c.N.}.R.T.T.L.L.T.U.P.F.A.H.T.!.",
"L.E.E.Y.U.L.U.L.L.T.T.L.P.U.U.P.U.P.T.P.U.L.T.T.P.T.U.R.T.T.T.L.L.L.A.A.A.F.H.J.",
"E.U.U.A.U.E.U.T.T.P.U.T.U.P.P.T.L.T.U.P.U.T.P.L.L.U.A.L.L.U.T.T.P.F.A.A.F.A.H.F.",
"F.U.U.E.T.U.L.L.L.T.T.L.T.T.L.U.T.L.T.T.T.T.T.L.A.S.A.A.L.P.T.T.U.P.A.H.D.F.F.H.",
"U.U.U.T.E.U.L.U.P.T.U.L.L.U.T.L.L.T.P.L.T.T.T.L.A.A.L.L.L.T.T.W.T.T.L.D.U.F.F.H.",
"U.N.A.F.U.R.T.U.U.U.P.L.T.P.L.T.U.T.U.T.W.T.T.U.L.L.L.L.T.T.T.T.T.P.F.P.T.F.H.F.",
"U.A.A.F.A.U.P.P.T.L.E.L.P.U.T.P.U.P.P.U.T.T.T.P.U.L.U.T.T.T.T.T.T.P.U.F.F.D.F.U.",
"Y.A.A.F.R.L.U.T.T.T.T.T.T.T.T.T.T.T.T.T.P.T.T.T.T.T.T.T.T.T.T.W.R.L.T.T.T.F.U.U."
};
