/* XPM */
static char *player_up1[] = {
/* columns rows colors chars-per-pixel */
"40 40 189 2 ",
"   c #0A0707",
".  c #120D0B",
"X  c #1A0E0D",
"o  c #181018",
"O  c #290F0F",
"+  c #2F1919",
"@  c #361111",
"#  c #381110",
"$  c #361D1D",
"%  c #3B201E",
"&  c #221F3D",
"*  c #3E2123",
"=  c #3D3026",
"-  c #223B30",
";  c #451815",
":  c #5A1E1E",
">  c #472625",
",  c #4B292F",
"<  c #5A3632",
"1  c #6B2D2B",
"2  c #7A2A2A",
"3  c #6F312B",
"4  c #71332B",
"5  c #663633",
"6  c #753534",
"7  c #743D3C",
"8  c #4C463C",
"9  c #78473A",
"0  c #735C3E",
"q  c #2E2C5A",
"w  c #3C3975",
"e  c #543D5F",
"r  c #753B53",
"t  c #523B61",
"y  c #37464E",
"u  c #395445",
"i  c #3C614E",
"p  c #3D6A56",
"a  c #3A4969",
"s  c #3C5071",
"d  c #495546",
"f  c #794340",
"g  c #6A5E4E",
"h  c #466958",
"j  c #45745E",
"k  c #676952",
"l  c #746558",
"z  c #6C7251",
"x  c #4B5366",
"c  c #404F7C",
"v  c #6D596F",
"b  c #466463",
"n  c #4D7B65",
"m  c #597B63",
"M  c #4F7F7E",
"N  c #786D6A",
"B  c #647E66",
"V  c #6C7A63",
"C  c #8E2F2F",
"Z  c #932E2E",
"A  c #863030",
"S  c #9C3131",
"D  c #AD3837",
"F  c #BE3737",
"G  c #B63837",
"H  c #C03838",
"J  c #84453D",
"K  c #844C3E",
"L  c #88533D",
"P  c #B44639",
"I  c #98693E",
"U  c #B46739",
"Y  c #B17C3A",
"T  c #C14339",
"R  c #D3483D",
"E  c #A63843",
"W  c #91514D",
"Q  c #A94A43",
"!  c #B44742",
"~  c #A25F4A",
"^  c #B65F5A",
"/  c #936451",
"(  c #946556",
")  c #8D735F",
"_  c #90715E",
"`  c #A56F44",
"'  c #A2624D",
"]  c #A6774C",
"[  c #837F67",
"{  c #907A62",
"}  c #B27B71",
"|  c #CE4E40",
" . c #E75A43",
".. c #E85B44",
"X. c #DB6348",
"o. c #E86046",
"O. c #F66647",
"+. c #F86848",
"@. c #4D866F",
"#. c #52866D",
"$. c #5B8768",
"%. c #528877",
"&. c #57987B",
"*. c #65856B",
"=. c #7D8167",
"-. c #698D73",
";. c #738D76",
":. c #6D9678",
">. c #73967B",
",. c #95833C",
"<. c #AC8B3C",
"1. c #AE9138",
"2. c #B8973B",
"3. c #BC9643",
"4. c #8C8B70",
"5. c #AF8166",
"6. c #D0AE47",
"7. c #DABA49",
"8. c #D9AC50",
"9. c #DEBA52",
"0. c #E8C851",
"q. c #F0C654",
"w. c #F2C854",
"e. c #F6D657",
"r. c #F8D858",
"t. c #527986",
"y. c #6F9F81",
"u. c #749299",
"i. c #58A886",
"p. c #4FB087",
"a. c #4DB08A",
"s. c #54B48C",
"d. c #5AB58E",
"f. c #5CB790",
"g. c #56B992",
"h. c #5CBB94",
"j. c #65A184",
"k. c #68AA89",
"l. c #78AB89",
"z. c #67B794",
"x. c #6AB393",
"c. c #61BD96",
"v. c #64BF99",
"b. c #6CBF9A",
"n. c #75BA95",
"m. c #698FAF",
"M. c #5FC199",
"N. c #64C39C",
"B. c #6CC49E",
"V. c #66C89F",
"C. c #6BCA9E",
"Z. c #72C59E",
"A. c #7BC59E",
"S. c #71C89E",
"D. c #7CC89F",
"F. c #64C5A0",
"G. c #6EC7A1",
"H. c #6DCAA3",
"J. c #6DC9A8",
"K. c #72C6A1",
"L. c #7BC6A2",
"P. c #72C9A3",
"I. c #7ACAA5",
"U. c #75C5A9",
"Y. c #74CBA9",
"T. c #7CCDAA",
"R. c #74D0A8",
"E. c #7ED2AD",
"W. c #88A983",
"Q. c #95AC83",
"!. c #8BB087",
"~. c #84B58F",
"^. c #93B88C",
"/. c #9DBF90",
"(. c #86C59B",
"). c #96C496",
"_. c #92C699",
"`. c #A5C392",
"'. c #83CDA8",
"]. c #9ECBA1",
"[. c #82D2AD",
"{. c #9ED0A4",
"}. c #82D5B1",
"|. c #85DAB4",
" X c #8AD9B6",
".X c #8CDDBA",
"XX c #8BE0B8",
"oX c #91E2BE",
"OX c #93E3C0",
/* pixels */
"T.U.U.U.U.J.Y.J.R.R.H.C.V.N.C.C.I.R.Y.I.P.P.P.P.Y.P.I.I.I.Y.Y.I.I.I.K.P.I.P.P.I.",
"Y.J.U.J.J.J.H.H.C.V.M.M.g.g.g.M.V.C.H.C.H.H.P.H.C.P.H.J.J.P.P.P.K.P.K.G.S.Z.Z.P.",
"Y.J.J.J.J.J.V.J.V.V.M.g.s.p.s.M.V.H.H.H.H.J.C.C.B.B.K.P.P.P.P.P.P.K.K.K.K.S.K.Z.",
"Y.J.F.M.F.V.V.H.C.C.N.g.s.p.s.M.V.H.C.R.H.B.v.N.v.N.B.P.R.P.P.B.B.B.K.K.P.Z.K.P.",
"J.M.M.g.M.F.V.V.H.H.V.M.s.p.s.c.V.H.R.H.F.V.c.c.c.c.B.G.P.P.H.B.B.B.P.C.K.S.Z.P.",
"J.M.a.a.a.M.V.R.R.H.N.h.s.p.s.h.F.R.R.H.N.N.h.f.f.c.N.G.P.H.H.K.B.B.G.K.P.Z.P.Z.",
"F.M.a.a.a.M.V.V.H.C.C.h.d.s.d.N.H.R.H.C.c.f.f.f.c.c.N.B.G.P.P.G.B.P.H.Z.Z.C.Z.P.",
"J.M.g.M.g.a.M.M.N.C.C.N.h.f.c.N.V.V.N.h.f.d.f.c.v.b.B.B.H.H.P.P.P.H.K.P.Z.K.P.K.",
"J.F.N.N.h.p.s.f.v.G.G.B.N.N.N.B.B.v.f.s.i.d.c.v.B.G.H.H.G.H.P.P.P.P.H.K.K.S.H.Z.",
"H.F.C.H.v.i.p.d.c.F.J.J.H.A.).y.-.*.B m B *.*.-.:.~.(.G.B.P.Y.P.P.P.B.C.B.K.Z.P.",
"P.G.G.P.B.f.f.h.N.B.H.P.H.Z.W.) ' ' ' ' ~ ' ' ' ( 4.n.G.B.H.H.H.J.H.B.B.H.S.K.K.",
"K.Z.Z.K.B.B.b.b.B.G.B.C.Z.n.V P  .O.O.O.O.O.+.O.| ( ;.Z.B.B.H.J.H.H.B.B.B.P.S.L.",
"B.Z.Z.Z.Z.L.K.B.B.G.J.B.(.Q.l X.O.+.+.+.+.+.+.+.O.~ =./.Z.B.B.H.G.H.B.H.S.Z.P.Z.",
"Z.S.A.A.Z.K.K.B.G.P.P.P.l.[ ! o.O.O.+.+.+.+.+.+.O.R / ;.B.H.G.G.G.H.H.P.P.P.Z.P.",
"B.S.D.A.L.K.Z.K.G.P.P.P.k.l H R o.+.+.+.+.+.+.+.R R W V B.G.G.G.H.H.K.H.B.P.S.P.",
"C.S.L.'.L.A.K.K.K.K.P.P.j.k H H R  . . .........H H Q m B.G.H.G.B.G.B.K.C.S.B.L.",
"C.S.A.L.L.K.K.K.K.P.P.I.&.d G H H H H H H F H H H F J j B.S.S.S.G.B.F.G.K.K.B.Z.",
"C.S.A.L.L.L.K.K.K.P.P.).:.u 1 D H H H F F H H F F C 8 i ^.(.R.P.G.B.Z.G.K.Z.B.Z.",
"C.S.L.A.A.L.K.K.K.P.K.&.*.0 7 A D F G ; ; 2 F F C A 9 g $.n.Y.I.G.B.G.P.I.P.B.Z.",
"H.S.Z.A.K.n.K.K.K.K.K.#.z ` > 1 A S Z @ O : S S 2 , 9 ] j z.P.C.G.G.K.P.P.P.B.Z.",
"S.S.S.A.n.K.K.K.K.K.G.#.g /   5 3 1 4 1 1 3 1 1 7 + = } #.z.K.I.Y.E.E.Y.P.P.Z.S.",
"R.S.A.Z.K.K.K.K.P.K.K.;.d .   < 7 K I f 7 L I 7 6 % - j ^.A.H.I.E.|.|.E.P.S.P.P.",
"P.S.Z.Z.K.K.K.H.K.K.G.;._ ( q o X % 9 f f W 5 X X 8 V !.'.I.K.T.|..X.XE.I.Z.Z.Z.",
"P.Z.L.P.K.K.K.K.H.G.K.>.N v w , * $ $ $ $ $ $ > & u V `.L.K.K.T.XXoX XE.L.B.b.Z.",
"L.B.K.U.K.P.K.H.P.H.K.l.B a w r L 9 # # # # ; 9 e y h W.(.L.K.'.oXOX XT.K.Z.b.B.",
"L.B.G.U.K.K.P.G.G.P.K._.y.b w E U Y T T T H U <.J t c n ^.n.K.'.OXOX X[.L.B.b.B.",
"L.b.G.H.J.P.G.H.H.G.H.K.(.Q.l ! S ] q.w.w.w.8.W D r v 5.n x.U.'.oXOX.X}.I.B.B.Z.",
"L.b.G.K.P.G.J.G.G.H.K.H.Z.n.h D U 2.e.r.r.r.0.Y P ^ } 5.n x.L.T. X.X.X[.P.P.P.E.",
"L.Z.J.G.G.H.H.G.H.G.H.G.C.z.p r Y 2.7.e.e.0.6.2.W W { 4.y.n.n.U.I.T.[.T.S.D.[.|.",
"U.U.J.G.G.G.J.K.G.P.K.H.S.B.#.c l 3.2.9.9.6.1.,.x b #.j.].'.Z.b.b.Z.K.K.S.R.|.XX",
"L.U.K.U.K.G.K.H.H.G.K.H.P.D.).M s v <.f 9 I ,.i n l.{.E.T.I.U.b.B.K.P.I.C.I.[.|.",
"L.K.K.K.K.K.K.K.P.K.H.K.H.Z.P.@.t.m.u.u u h *.!.Z.U.[.E.T.K.K.K.S.P.P.P.S.S.R.[.",
"U.K.L.U.U.K.H.K.G.K.K.P.H.K.K.l.%.%.t.-.&.i.k.(.I.R.R.Y.P.P.H.G.G.K.P.B.Z.S.I.T.",
"K.U.U.K.K.K.K.J.H.K.J.K.K.H.C._.j.&.&.).(.S.P.P.H.P.H.I.P.G.P.K.K.H.B.B.B.B.C.S.",
"K.U.K.Z.K.K.G.P.K.K.H.K.H.P.P.H.K.G.G.G.P.P.H.H.G.G.C.K.G.P.H.P.P.B.B.Z.B.S.S.Z.",
"Z.K.K.U.K.K.K.G.H.K.K.H.K.G.P.K.H.K.P.P.P.P.P.H.B.B.B.B.G.P.P.P.P.G.Z.C.B.Z.S.S.",
"K.K.L.K.P.K.K.K.K.P.H.K.P.G.P.P.K.P.G.K.P.P.P.G.G.B.G.G.G.K.P.Y.P.C.B.Z.P.Z.Z.S.",
"L.b.B.L.P.P.H.K.H.H.K.P.G.P.P.G.H.P.P.H.P.P.P.P.G.G.G.G.P.P.P.P.P.K.P.H.Z.C.S.Z.",
"K.b.B.B.G.K.P.J.K.P.P.G.K.H.G.P.H.K.H.P.P.J.P.H.K.G.P.P.P.P.P.P.P.H.Z.Z.P.S.Z.K.",
"P.Z.B.Z.K.P.K.P.K.P.J.K.P.P.K.P.K.P.K.P.P.P.K.P.K.P.P.P.P.P.P.Y.I.J.P.P.K.Z.K.P."
};
