/* XPM */
static char *player_down1[] = {
/* columns rows colors chars-per-pixel */
"40 40 197 2 ",
"   c #130F0E",
".  c #19100D",
"X  c #190F11",
"o  c #281614",
"O  c #111325",
"+  c #311A27",
"@  c #1F223F",
"#  c #242427",
"$  c #2F3A30",
"%  c #4E1F1C",
"&  c #492B21",
"*  c #493031",
"=  c #4B3936",
"-  c #6D302D",
";  c #793C2F",
":  c #733B3D",
">  c #294037",
",  c #584539",
"<  c #372D43",
"1  c #303756",
"2  c #363E66",
"3  c #36366E",
"4  c #3D3C74",
"5  c #4C3441",
"6  c #6B384B",
"7  c #483769",
"8  c #344F44",
"9  c #375849",
"0  c #3B4A6F",
"q  c #684842",
"w  c #7A4844",
"e  c #7B5850",
"r  c #4A6756",
"t  c #4D715A",
"y  c #72604F",
"u  c #4C457A",
"i  c #524979",
"p  c #455977",
"a  c #4F726B",
"s  c #547764",
"d  c #5A7563",
"f  c #6C756B",
"g  c #6A697C",
"h  c #7C637E",
"j  c #892929",
"k  c #A73435",
"l  c #BC3939",
"z  c #C33B39",
"x  c #9A423C",
"c  c #B3423D",
"v  c #CC423B",
"b  c #D44B3E",
"n  c #D74B3E",
"m  c #9B4340",
"M  c #845849",
"N  c #955856",
"B  c #A44A44",
"V  c #BD4144",
"C  c #BE4649",
"Z  c #B7534B",
"A  c #94624D",
"S  c #9E7443",
"D  c #976652",
"F  c #8D715A",
"G  c #A76959",
"H  c #B96653",
"J  c #B4725D",
"K  c #875D6B",
"L  c #837565",
"P  c #847A6A",
"I  c #8D7E6E",
"U  c #927F6B",
"Y  c #9A7E74",
"T  c #B77A63",
"R  c #C24546",
"E  c #C75944",
"W  c #DD5240",
"Q  c #E15441",
"!  c #E2694E",
"~  c #F66647",
"^  c #F76848",
"/  c #F86848",
"(  c #E46A5B",
")  c #CA7277",
"_  c #E67566",
"`  c #4F826A",
"'  c #5A8574",
"]  c #67876F",
"[  c #7A8976",
"{  c #7FA57F",
"}  c #8D8979",
"|  c #85947F",
" . c #AF8C79",
".. c #BB8271",
"X. c #C0835F",
"o. c #C58566",
"O. c #C88668",
"+. c #D48C6E",
"@. c #C68771",
"#. c #C69478",
"$. c #D99272",
"%. c #DC9976",
"&. c #E48C7E",
"*. c #D9A27E",
"=. c #557985",
"-. c #59779C",
";. c #6B6798",
":. c #5D8585",
">. c #6D9588",
",. c #4EAF89",
"<. c #59AB88",
"1. c #4EB088",
"2. c #53B48C",
"3. c #5AB58F",
"4. c #5AB891",
"5. c #5CBB94",
"6. c #64A886",
"7. c #66AA8A",
"8. c #69AC8E",
"9. c #7CA489",
"0. c #72AD91",
"q. c #6CB492",
"w. c #62BC96",
"e. c #6BBA95",
"r. c #64BF98",
"t. c #6CBF9A",
"y. c #72B393",
"u. c #71BD99",
"i. c #7BBB9A",
"p. c #6186AB",
"a. c #5FC199",
"s. c #64C39C",
"d. c #6DC49E",
"f. c #66C89F",
"g. c #6BCA9E",
"h. c #72C59E",
"j. c #79C59F",
"k. c #71C89E",
"l. c #79C89F",
"z. c #64C5A0",
"x. c #6EC7A1",
"c. c #6DC9A3",
"v. c #6DC9A8",
"b. c #72C6A1",
"n. c #7BC6A2",
"m. c #72C9A3",
"M. c #7ACAA5",
"N. c #75C5A9",
"B. c #74CBA9",
"V. c #7CCDAA",
"C. c #74D0A8",
"Z. c #7DD2AD",
"A. c #8A9480",
"S. c #819B82",
"D. c #949988",
"F. c #A99183",
"G. c #B7869B",
"H. c #90B18B",
"J. c #8BA891",
"K. c #87B598",
"L. c #96B69A",
"P. c #A7AC91",
"I. c #9C9ABE",
"U. c #B19AB5",
"Y. c #91BFA5",
"T. c #ECAF84",
"R. c #E8B38A",
"E. c #F6BE8F",
"W. c #F0A298",
"Q. c #D5B1BF",
"!. c #90CA9E",
"~. c #ABC491",
"^. c #82CAA5",
"/. c #86CBA7",
"(. c #8BCAA6",
"). c #98C7A4",
"_. c #96CCAB",
"`. c #9DCEAB",
"'. c #80D2AE",
"]. c #82D5B1",
"[. c #8BD7B4",
"{. c #85DAB4",
"}. c #8AD9B6",
"|. c #8CDDBA",
" X c #98D5B4",
".X c #A4C5A7",
"XX c #A5D6B3",
"oX c #8CE0BA",
"OX c #91E2BE",
"+X c #A2A2C5",
"@X c #D9B5C1",
"#X c #C0BFDA",
"$X c #93E3C0",
"%X c #D9CBDC",
"&X c #E2CFDD",
"*X c #D9CFE1",
"=X c #DAD6E6",
/* pixels */
"V.N.N.N.N.v.B.v.C.C.g.z.f.f.s.k.k.C.C.m.m.m.m.m.m.M.B.m.M.m.V.M.M.m.M.m.n.m.m.M.",
"B.v.N.v.v.v.c.c.f.f.a.a.4.2.a.a.g.g.c.c.c.c.c.g.c.c.c.m.m.B.m.m.x.b.b.b.k.m.h.b.",
"B.v.v.v.v.v.f.v.f.f.a.2.2.1.2.a.f.c.g.C.c.B.g.d.s.d.x.m.B.B.m.c.b.m.m.b.h.m.d.b.",
"B.v.z.a.z.f.f.c.C.g.a.a.2.1.2.a.s.c.C.c.c.g.s.e.t.s.x.m.B.m.b.x.d.x.d.k.m.h.k.m.",
"z.a.a.a.a.z.f.f.C.g.f.4.2.1.3.5.f.C.C.c.z.f.s.5.w.r.s.x.m.m.m.d.d.d.c.b.m.b.m.h.",
"v.a.,.,.,.a.f.C.C.m.f.4.1.1.3.r.f.C.C.C.s.w.5.4.4.w.t.d.g.m.c.d.x.d.b.x.h.k.h.b.",
"z.a.,.,.,.a.f.f.g.g.s.5.3.2.q.e.t.h.u.q.8.6.6.6.7.q.j.h.x.c.m.x.b.d.g.m.k.b.h.m.",
"v.a.4.a.2.,.a.z.d.g.s.s.w.4.!.L.} P L L L L L L P } L._.c.m.m.m.m.m.b.d.m.h.m.b.",
"v.f.a.z.5.1.<.4.r.f.x.d.s.t.J.Y R ! ! ! ! ! ! ! ! Z Y J.h.m.B.B.m.c.c.x.b.b.k.b.",
"v.z.z.c.w.<.1.3.r.d.c.c.m._.| G Q / / / / / / / ~ Q G A.(.m.c.m.m.m.x.x.c.h.h.m.",
"m.d.c.m.s.w.3.w.r.d.c.B.N..XU H ^ / / / / / / / / / H I .Xn.c.m.c.c.d.g.d.k.b.h.",
"m.h.h.m.h.t.t.s.s.x.x.g.t.A.Z W ^ / / / / / / / ~ ~ n Z A.u.g.c.c.x.x.d.c.h.b.m.",
"d.h.l.j.j.b.b.x.x.x.x.x.e.s B z b ~ / / / / / / ~ n v x d e.x.x.x.x.x.c.m.h.h.m.",
"h.k.n.j.j.b.b.d.x.m.m./.i.r x z z n n _ W.W.( Q n z z x r i.m.x.x.c.c.c.k.m.h.b.",
"d.l.l.j.j.b.b.x.x.m.m./.Y.r x R C z R ) &X&XG.V z R l x r K.(.c.x.c.m.c.d.m.k.m.",
"g.k.l.n.n.h.j.x.b.b.m.8.] S ; K U.R G.G.R v G.G.V U.K ; S d <.d.d.x.d.x.k.k.h.m.",
"g.k.n.n.n.j.b.b.x.b.m.8.[ X.& < ;.@X%X*XQ.Q.&X*XQ.;.< & ..t <.m.x.x.s.x.b.h.d.h.",
"g.h.l.l.n.n.h.b.m.b.m.i.S.F * 5 h I.+X+X+X+X+X+X+Xh = & F ] q.C.x.d.x.b.m.b.d.h.",
"g.k.n.j.j.j.h.b.b.b.n.).L.9 q G @.i 3 4 u u 3 4 i ..G , 9 H.!.l.x.d.d.m.m.k.d.h.",
"g.k.h.j.u.h.b.b.m.b.`.L.[ o D O.$.R.= , R.R., = R.$.+...t e.m.m.d.d.m.m.M.m.d.h.",
"m.k.l.k.u.b.b.b.b.b.L.F. .1 6 T $.%.w M E.E.D w %.+.J } { d.m.m.B.C.'.V.m.m.h.h.",
"m.k.l.l.h.b.b.b.b.b.H.F...4 * : A J G T T.T.T D J S y d ~.l.m.C.Z.].}.Z.m.k.m.h.",
"n.k.h.h.b.b.b.b.m.m.J.F. .4 O   . - J o.O.O.O.J ; X $ r L.^.n.C.}.oX|.'.m.h.d.l.",
"m.b.h.m.m.m.b.h.m.M.`.J.f 9 3 6 k - o . . . . % k 7 2 0 ` u.h.'.oXoX|.'.b.h.d.j.",
"n.h.N.b.b.m.c.b.c.b.^.i.0.9.f N l k j w g g : - m  .F.Y d y.n.'.OX$X}.'.m.h.s.d.",
"b.d.x.b.b.b.b.c.b.x.c.c.N.`.[ e j l v ) #X#X) c w %.T.*.f y.b.V.$X$X}.'.h.d.e.h.",
"n.d.x.b.N.b.c.c.b.c.x.c.m.b.` 8 . k n &.=X=X&.E w ) $.#.D.i.n.'.OX$X|.'.M.h.d.k.",
"n.u.x.x.c.c.c.c.c.x.v.x.c.b.>.:.-.7 + o # # o $ r Y D.P..Xi.n.V.[.|.|.].m.m.m.V.",
"n.N.N.x.c.c.x.c.c.x.c.c.v.x.i.>.=.-.p 1 @ > 9 s 9.K.Y._. XV.h.h.N.^.'.M.k.l.'.{.",
"N.N.x.x.c.x.b.x.b.c.b.c.x.N._.9.t p.p.-.u d ' 0.XX{.$XoX}.V.N.u.d.h.m.b.k.C.{.oX",
"n.N.x.x.N.x.x.c.b.c.c.c.b.x.x.8.a =.0 p ' )./.B.V.Z.].].V.B.h.t.d.h.m.k.k.C.'.{.",
"n.b.N.b.x.b.b.b.c.b.b.b.c.b.v.Y.K.:.a >.Y.n.M.B.V.Z.Z.Z.V.N.x.b.m.m.m.l.k.k.V.'.",
"N.N.N.b.b.b.c.v.b.c.c.b.b.c.m.V.(.8.7.y.(.b.c.m.B.B.C.V.m.m.b.x.x.h.c.d.d.k.m.C.",
"b.b.b.N.b.b.b.b.b.b.b.c.c.b.c.b.c.m.b.c.x.b.m.b.m.m.m.m.m.c.c.b.b.c.d.h.d.h.k.l.",
"b.N.b.h.x.N.b.c.c.b.b.b.m.b.b.b.m.x.c.m.b.m.c.b.x.x.x.x.x.m.c.m.m.d.d.d.d.k.k.k.",
"b.b.b.N.b.b.b.b.b.c.c.b.c.c.b.c.b.c.b.b.m.m.m.c.d.d.d.d.x.m.m.m.m.c.d.k.d.h.h.h.",
"b.u.b.n.b.b.b.c.c.b.b.b.b.b.c.b.c.b.c.c.c.B.m.b.x.s.x.x.x.b.m.m.m.m.d.m.h.g.h.k.",
"b.b.d.h.b.m.b.c.b.m.c.c.c.b.m.c.b.b.m.b.m.m.m.c.x.b.x.x.m.m.B.m.m.x.h.c.m.h.k.h.",
"b.d.d.d.b.b.c.b.c.b.c.b.b.c.b.c.m.c.b.c.m.m.m.m.b.x.m.m.m.m.m.m.m.m.m.h.h.k.d.b.",
"n.d.d.l.m.m.b.m.c.B.m.m.b.m.m.b.v.b.m.m.b.m.b.b.m.m.m.m.m.m.m.B.m.m.m.m.m.h.b.m."
};
