/* XPM */
static char *player_right[] = {
/* columns rows colors chars-per-pixel */
"40 40 185 2 ",
"   c #0E0F0B",
".  c #180C0B",
"X  c #1C1210",
"o  c #2C1F0E",
"O  c #261A1C",
"+  c #191937",
"@  c #281827",
"#  c #282136",
"$  c #421D1C",
"%  c #4A3418",
"&  c #552528",
"*  c #553229",
"=  c #6B2B2B",
"-  c #712D2B",
";  c #782C2C",
":  c #6D3A3B",
">  c #793332",
",  c #753C3C",
"<  c #2F493D",
"1  c #56463B",
"2  c #53593C",
"3  c #714735",
"4  c #7A443E",
"5  c #262651",
"6  c #383775",
"7  c #633B58",
"8  c #2F5143",
"9  c #3E6E5A",
"0  c #564E45",
"q  c #565A4D",
"w  c #7A5648",
"e  c #7B514D",
"r  c #557456",
"t  c #696447",
"y  c #7B604D",
"u  c #7B6552",
"i  c #6D7556",
"p  c #474B62",
"a  c #4E5F6C",
"s  c #494276",
"d  c #564774",
"f  c #456B68",
"g  c #467C65",
"h  c #4A7866",
"j  c #4E7578",
"k  c #6F676E",
"l  c #697A64",
"z  c #777761",
"x  c #832F2D",
"c  c #9B3131",
"v  c #B23535",
"b  c #BF3737",
"n  c #BF3C3D",
"m  c #C23A38",
"M  c #834E3F",
"N  c #967238",
"B  c #C6433C",
"V  c #993D42",
"C  c #854944",
"Z  c #984D45",
"A  c #85554B",
"S  c #9C534A",
"D  c #8A595D",
"F  c #9C5F51",
"G  c #BB4748",
"H  c #B4534D",
"J  c #9D7041",
"K  c #856558",
"L  c #926350",
"P  c #91715D",
"I  c #A56D50",
"U  c #B9775E",
"Y  c #B45C65",
"T  c #837A67",
"R  c #B37C6A",
"E  c #B96876",
"W  c #D25349",
"Q  c #E65A43",
"!  c #F46546",
"~  c #F06648",
"^  c #F86848",
"/  c #ED6950",
"(  c #C07A60",
")  c #738152",
"_  c #51836A",
"`  c #4F8B71",
"'  c #538D72",
"]  c #5A947A",
"[  c #5E9A7C",
"{  c #65846E",
"}  c #7B916A",
"|  c #669677",
" . c #639B7D",
".. c #719E7B",
"X. c #9D8335",
"o. c #B6943A",
"O. c #9B9F5A",
"+. c #BC914B",
"@. c #BC865D",
"#. c #8B9677",
"$. c #939B7B",
"%. c #A9876E",
"&. c #C6875E",
"*. c #C78567",
"=. c #C28168",
"-. c #CE896C",
";. c #CA9877",
":. c #D59775",
">. c #D89170",
",. c #DFA37A",
"<. c #E6A57E",
"1. c #E8CA54",
"2. c #F0CF54",
"3. c #5C5D87",
"4. c #647C91",
"5. c #758989",
"6. c #759E80",
"7. c #54AF88",
"8. c #4FB087",
"9. c #4DB08A",
"0. c #53B48C",
"q. c #5AB58F",
"w. c #5EB791",
"e. c #56B992",
"r. c #5CBB94",
"t. c #65A584",
"y. c #6BAC8A",
"u. c #77A884",
"i. c #6AB288",
"p. c #7EB28A",
"a. c #61BD96",
"s. c #65BE98",
"d. c #6BBF9A",
"f. c #78BD97",
"g. c #5FC199",
"h. c #64C39C",
"j. c #6DC49E",
"k. c #66C89F",
"l. c #6BCA9E",
"z. c #72C59E",
"x. c #7AC49D",
"c. c #71C89E",
"v. c #7CC89F",
"b. c #64C5A0",
"n. c #6EC6A1",
"m. c #6DCAA3",
"M. c #6DC9A8",
"N. c #72C6A1",
"B. c #7BC6A2",
"V. c #72C9A3",
"C. c #7ACAA5",
"Z. c #75C5A9",
"A. c #74CBA9",
"S. c #7CCDAA",
"D. c #74D0A8",
"F. c #7DD2AC",
"G. c #AE818E",
"H. c #84A481",
"J. c #82AB85",
"K. c #8AB58C",
"L. c #94B187",
"P. c #88AF97",
"I. c #A3BD8E",
"U. c #9D9CBF",
"Y. c #AB9BB6",
"T. c #D08C92",
"R. c #81C399",
"E. c #8AC69A",
"W. c #98C395",
"Q. c #94C698",
"!. c #81CFAB",
"~. c #81D1AE",
"^. c #8BD2AC",
"/. c #83D5B1",
"(. c #85DAB4",
"). c #8AD9B6",
"_. c #8CDDBA",
"`. c #AACDA0",
"'. c #8CE0BA",
"]. c #91E2BE",
"[. c #B7B3C5",
"{. c #CDB4C6",
"}. c #B9C1C9",
"|. c #93E3C0",
" X c #DED1E0",
/* pixels */
"S.Z.Z.Z.Z.M.A.M.D.D.m.l.k.h.l.c.D.D.C.V.V.V.V.C.C.V.C.C.C.A.C.C.C.C.N.V.V.C.V.C.",
"A.M.Z.M.M.M.m.m.k.k.g.g.e.0.0.g.l.l.m.l.m.V.m.l.n.n.m.m.M.V.V.m.V.N.N.N.c.z.z.V.",
"A.M.M.M.M.M.k.M.l.k.g.e.0.8.0.g.k.m.m.m.M.m.l.j.k.n.n.V.A.A.V.V.N.V.V.n.N.z.m.N.",
"A.M.b.g.b.k.k.m.l.l.h.e.0.8.e.g.k.D.m.m.m.l.h.h.s.s.n.M.V.V.m.n.j.j.n.z.c.N.z.V.",
"M.g.g.e.g.b.k.k.m.m.k.g.0.8.0.g.k.m.D.m.m.h.a.a.a.a.l.j.V.V.l.j.l.n.n.N.V.c.z.N.",
"M.g.9.9.9.g.k.D.D.m.k.r.0.8.q.g.b.D.D.V.k.r.r.r.w.a.s.j.V.V.N.l.j.j.n.N.z.z.V.V.",
"b.g.9.9.9.g.k.k.l.m.h.w.0.i.i.t.i.i.y.y.t.[ [ [ t.f.j.j.j.m.V.V.m.z.n.N.V.z.c.N.",
"M.g.e.g.e.9.g.g.h.l.l.h.g.p.#.i u u u u w y y u z L.R.z.m.V.M.V.V.N.m.c.N.c.z.V.",
"M.b.h.h.r.7.0.q.a.l.n.l.h.| K B ~ / Q ! ! / ~ Q G i L.E.V.m.V.V.V.V.M.N.m.z.N.N.",
"m.b.l.m.s.7.7.0.a.n.M.V.W.#.L ~ ^ ^ ^ ^ ^ ^ ! ! Q G T H.Q.M.V.V.V.V.j.l.l.N.c.V.",
"V.j.n.V.d.w.q.a.h.j.m.V.J.P H ^ ^ ^ ^ ^ ^ ^ ^ ^ / T.K l #.E.V.V.m.n.j.j.N.z.V.z.",
"V.z.z.N.z.j.d.h.h.j.N.h.{ S B Q ^ ^ ^ ^ ^ ^ ^ ! /  XD u H.J.V.m.m.m.n.j.j.V.z.V.",
"j.c.z.z.x.V.V.n.N.n.n.l.l Z b m ! ! ! ! ! ! ! Q W  XD G.[._ r.m.m.n.n.l.N.c.z.V.",
"z.z.v.x.x.N.N.j.n.V.V.N.l Z b b m m m m m m m m G Y.Y T.}.9 a.m.n.m.M.m.V.N.c.N.",
"j.c.v.x.B.B.z.j.N.n.V.N.h 3 c n m m m m b b m m n E G.{.[.g s.n.l.n.V.V.z.c.c.V.",
"j.c.B.!.B.z.N.N.N.N.V.n.h 1 > c c v m m b m b G E E Y.[.P.] d.n.n.n.j.l.j.V.z.V.",
"l.z.x.!.B.x.N.N.N.V.N.z.g 0 , = = c v v v v v Y Y.U.Y.5.` W.C.n.n.h.n.n.N.N.z.z.",
"l.z.x.x.B.N.N.N.V.n.N.z.` q 4 , 7 x ; ; - - = = : s k #.I.n.V.A.N.j.j.N.V.z.j.j.",
"l.c.x.B.B.x.N.N.N.n.N.N.K._ q e &.:.@.J U ( * * U %.T 6.x.j.A.V.n.j.n.V.A.c.z.z.",
"l.c.N.N.f.N.N.N.V.V.z.z.!.J.r 1 -.<.,.&.>.<.A e :.%.$.K.h.n.C.V.n.j.n.V.C.l.j.z.",
"c.c.c.x.f.N.N.N.V.n.V.N.v.K.} 2 U -.:.>.>.<.R I ;.#.K.P.z.N.C.V.A.S.F.S.V.V.c.z.",
"D.c.z.z.z.N.N.n.N.N.N.N.W.] i o.4 4 F *.*.>.*.U z I.R.d.N.N.V.C.F.(.(.F.V.z.V.c.",
"C.c.v.z.N.N.N.n.n.N.n.n.` O.1.1.o.M $   X 3 e e z z.d.N.C.V.C.C.(.'._.~.C.z.z.z.",
"V.N.N.V.Z.N.n.V.V.n.N.n.g t +.2.o.% @ 5 5 O ; Z z d.N.N.Z.V.C.S.'.]._.~.c.j.j.z.",
"x.z.N.V.C.V.n.V.N.V.m.j._ t J +.N o + 6 6 @ ; S _ B.B.N.z.N.Z.S.].|.).~.V.z.d.j.",
"B.j.n.Z.V.n.n.n.m.N.n.n.' ) X.4 & . # d d & x D t.S.Z.N.d.f.N.!.].|.).~.V.j.d.j.",
"B.d.n.n.M.N.n.n.n.m.m.N.Q.| r X..   : -.=.o < { `.!.Z.Z.N.f.N.!.].]._./.C.z.z.c.",
"B.d.n.N.V.M.n.M.m.n.m.n.V.K...r 8 j k A A 4.f ] ^.!.^.!.Z.Z.B.!.)._._.~.V.c.V.S.",
"Z.N.n.n.m.M.n.m.n.m.n.m.V.v.f.t.| j a 7 V 3.f [ F.(._._.^.Z.N.N.Z.S.~.C.c.D.~.(.",
"B.Z.M.N.n.n.m.N.m.V.V.n.n.M.V.c.I.t.f p C p j t.F.F.'.|./.S.N.f.d.z.C.z.c.v.(.'.",
"B.Z.N.Z.n.N.N.m.m.n.m.N.V.V.m.N.c.Q. .g 9 g u.Q.F.F.(.F.S.A.N.d.z.N.C.c.c.D.~.(.",
"B.Z.N.N.V.N.n.N.N.m.N.m.V.n.V.n.V.V.z.j.d.j.V.A.F.F.F.F.S.Z.n.N.c.V.V.c.c.c.D.~.",
"Z.Z.N.Z.N.N.n.Z.n.n.V.n.V.N.M.N.V.n.V.N.j.n.m.V.A.A.D.C.V.V.N.n.m.V.V.j.j.z.C.F.",
"N.N.B.N.Z.N.n.N.V.n.n.V.M.V.N.m.N.m.m.N.m.n.V.V.V.V.V.V.V.m.m.N.N.j.j.j.z.l.j.c.",
"N.z.Z.z.N.N.V.V.n.V.n.n.m.V.V.m.N.V.V.n.V.V.V.n.n.n.l.N.N.V.V.V.V.j.j.c.j.c.z.c.",
"N.N.Z.N.N.V.n.n.V.n.V.V.N.n.V.N.m.N.m.V.V.V.V.n.n.j.j.j.l.M.V.m.V.n.l.z.j.z.c.z.",
"N.z.N.C.V.V.n.V.N.m.m.N.V.m.N.m.N.V.n.N.V.V.V.n.j.l.j.n.N.V.V.V.V.m.j.c.N.c.c.c.",
"C.d.N.N.V.N.V.n.m.V.N.m.n.V.V.N.m.V.V.m.V.V.V.N.n.n.n.n.m.V.V.V.V.N.V.m.V.z.z.c.",
"N.j.d.j.N.N.N.V.N.V.V.N.N.m.m.N.m.N.M.V.V.m.V.M.N.n.N.M.V.M.V.C.V.V.V.z.z.l.z.N.",
"N.j.z.z.N.N.V.n.N.V.m.N.V.V.N.V.N.V.V.V.V.V.V.V.N.V.V.V.V.C.V.V.V.V.V.N.V.z.N.N."
};
