/* XPM */
static char *player_left1[] = {
/* columns rows colors chars-per-pixel */
"40 40 186 2 ",
"   c #090709",
".  c #110E11",
"X  c #0D1112",
"o  c #21130F",
"O  c #221817",
"+  c #111620",
"@  c #211C33",
"#  c #342C31",
"$  c #651F22",
"%  c #5D3A33",
"&  c #682424",
"*  c #6C2D2D",
"=  c #712F2D",
"-  c #71302E",
";  c #633934",
":  c #733937",
">  c #2A493C",
",  c #304B3E",
"<  c #56463D",
"1  c #575A3B",
"2  c #694039",
"3  c #7C413D",
"4  c #272B4E",
"5  c #313465",
"6  c #363674",
"7  c #7A3544",
"8  c #4E3E67",
"9  c #305546",
"0  c #3B6856",
"q  c #3C6A56",
"w  c #5F4A4D",
"e  c #4F584B",
"r  c #7A4342",
"t  c #685746",
"y  c #62525F",
"u  c #416E5A",
"i  c #596455",
"p  c #46755E",
"a  c #646A55",
"s  c #6A6B58",
"d  c #68735D",
"f  c #757153",
"g  c #514971",
"h  c #436B68",
"j  c #467B63",
"k  c #537D64",
"l  c #6D7A61",
"z  c #7A7662",
"x  c #82292A",
"c  c #8C2E2E",
"v  c #803434",
"b  c #943238",
"n  c #A63333",
"m  c #AB3636",
"M  c #BE3737",
"N  c #C03838",
"B  c #9D413E",
"V  c #98713C",
"C  c #CB413B",
"Z  c #D34A3E",
"A  c #DA4E3F",
"S  c #A53E41",
"D  c #854745",
"F  c #834B45",
"G  c #8F5A4C",
"H  c #9C5E4F",
"J  c #A44741",
"K  c #BE4245",
"L  c #A3564A",
"P  c #A65D4A",
"I  c #986253",
"U  c #A97953",
"Y  c #B6765F",
"T  c #8A726A",
"R  c #BC6E67",
"E  c #D54F43",
"W  c #E35642",
"Q  c #E65943",
"!  c #C36047",
"~  c #C3624A",
"^  c #F66647",
"/  c #F7694A",
"(  c #F86848",
")  c #4D836B",
"_  c #57846A",
"`  c #548D72",
"'  c #56987B",
"]  c #698367",
"[  c #6A8775",
"{  c #748770",
"}  c #689377",
"|  c #779B7C",
" . c #7BA37D",
".. c #B3903B",
"X. c #8F8849",
"o. c #B0824D",
"O. c #A8A457",
"+. c #8C8268",
"@. c #968E74",
"#. c #B7876E",
"$. c #C8866A",
"%. c #CD896B",
"&. c #D28B6D",
"*. c #CE8E71",
"=. c #D89070",
"-. c #D39A78",
";. c #D7A96A",
":. c #DFA27C",
">. c #E4A27C",
",. c #E7C852",
"<. c #597E98",
"1. c #B67C8F",
"2. c #5C9A80",
"3. c #6B8B81",
"4. c #7A928E",
"5. c #4EAF89",
"6. c #56AF89",
"7. c #4FB087",
"8. c #4DB08A",
"9. c #53B48C",
"0. c #5BB48E",
"q. c #5DB790",
"w. c #56B992",
"e. c #5CBB94",
"r. c #67A888",
"t. c #77AA87",
"y. c #78B48E",
"u. c #68B794",
"i. c #62BD96",
"p. c #64BF98",
"a. c #6BBD99",
"s. c #78BB99",
"d. c #5FC199",
"f. c #64C39C",
"g. c #6DC49E",
"h. c #66C89F",
"j. c #6BCA9E",
"k. c #72C59E",
"l. c #7BC49E",
"z. c #71C89E",
"x. c #79C89F",
"c. c #64C5A0",
"v. c #6EC7A1",
"b. c #6DC9A3",
"n. c #6DC9A8",
"m. c #72C6A1",
"M. c #7BC6A2",
"N. c #72C9A3",
"B. c #7ACBA5",
"V. c #75C5A9",
"C. c #74CBA9",
"Z. c #7CCDAA",
"A. c #74D0A8",
"S. c #7ED2AD",
"D. c #9B849A",
"F. c #B68497",
"G. c #8BAD86",
"H. c #89B288",
"J. c #93B58A",
"K. c #A3BE8E",
"L. c #938EB1",
"P. c #B598A8",
"I. c #B4A5AB",
"U. c #E7A981",
"Y. c #EEB286",
"T. c #D0A6B5",
"R. c #E4B2B6",
"E. c #84C69C",
"W. c #8BC598",
"Q. c #96C397",
"!. c #93C799",
"~. c #A2C190",
"^. c #81CFAC",
"/. c #80D2AE",
"(. c #99D4AB",
"). c #82D4B0",
"_. c #85DAB4",
"`. c #8AD9B6",
"'. c #8CDDBA",
"]. c #8BE0B8",
"[. c #91E2BE",
"{. c #B1AAC5",
"}. c #93E3C0",
"|. c #DED7E6",
" X c #E1DAE9",
".X c #E1E0F0",
/* pixels */
"Z.V.V.V.V.n.C.n.A.A.j.c.h.h.j.z.A.A.B.N.N.N.N.B.N.C.C.N.B.N.B.B.B.N.B.B.N.B.M.B.",
"C.n.V.n.n.n.b.b.b.c.d.d.w.w.9.d.j.j.b.b.b.N.b.b.j.b.b.N.N.C.N.N.m.m.m.k.g.g.j.k.",
"C.n.n.n.n.n.h.n.j.j.d.w.9.7.9.d.h.b.b.b.b.b.j.g.h.v.v.N.B.C.N.N.m.b.k.N.N.m.k.N.",
"C.n.c.d.c.h.h.b.j.j.f.w.9.7.9.d.h.b.b.A.b.g.f.i.p.a.v.b.N.N.b.v.g.g.b.k.k.z.N.m.",
"n.d.d.w.d.c.h.h.A.j.h.d.9.7.9.f.h.b.A.b.c.f.i.i.i.p.f.v.b.N.b.v.g.g.b.m.v.m.N.k.",
"n.d.8.8.8.d.h.A.A.N.f.w.7.7.9.e.h.A.A.A.f.f.i.q.q.p.a.v.N.b.m.v.g.g.m.v.z.z.k.N.",
"c.d.8.8.8.d.h.h.j.j.f.q.0.9.w.d.h.N.A.j.i.q.q.q.q.p.f.g.v.b.v.b.v.N.v.z.m.m.N.k.",
"n.d.w.d.w.8.d.d.f.j.j.f.d.q.f.f.f.f.i.0.0.6.0.q.i.a.g.v.v.N.N.N.N.b.m.v.m.z.k.N.",
"n.c.f.f.e.6.5.0.f.h.v.h.h.f.W.H.] d a a a a d d d ] H.!.j.b.N.N.N.N.b.v.k.m.N.k.",
"b.c.j.b.i.6.6.9.i.h.N.N.N.!.@.+.L ! ~ ~ ~ ~ ! ~ ~ L T t.h.k.N.N.N.b.v.v.g.N.k.N.",
"N.v.v.N.g.u.0.i.p.g.N.B.E.J.T H Z ^ ( ( ( ( ( ( / Z I { l.z.b.C.N.b.g.b.j.k.N.k.",
"m.k.k.m.m.f.a.f.f.g.k.l.J.l H E ^ ^ ( ( ( ( ( ( / / P z K.k.b.b.b.b.g.g.m.m.k.N.",
"g.k.k.k.l.m.m.v.m.v.!.H.l 2 I.R.^ ( ( ( ( ( ( ( ^ ^ E L { a.g.b.b.v.v.g.z.g.m.m.",
"z.z.l.l.l.m.m.g.g.N.r.4.I.: I.R.E ^ ( ( ( ( ( ( ^ A C J d a.b.g.v.b.N.b.N.N.k.k.",
"g.k.x.l.M.l.m.g.m.v.' 3.|.b P.T.N W Q Q Q Q Q Q W N M J s a.v.v.h.b.m.b.g.N.z.B.",
"j.k.x.^.M.m.m.m.v.m.` [  XR 1.F.M N N N N N N N N N M J s a.b.v.v.v.g.m.j.z.m.m.",
"j.z.M.M.M.l.k.m.v.v.2.3..X{.R E N N N N N N N N N N c ; q a.b.N.v.f.m.v.m.m.g.k.",
"j.z.x.M.M.m.m.m.m.v.y.} 4.{.P.F.1.K N N N N N m c c v < 0 a.B.N.v.g.g.v.N.k.g.k.",
"j.z.l.l.l.m.k.m.m.m.E.H.k L.L.L.D.m n n n n n b * - : w u a.N.N.v.g.v.b.N.z.g.k.",
"j.z.k.l.l.k.m.m.m.v.m.l.K.z g 8 ; & * = = * - : : : r t j f.N.N.v.v.m.N.N.B.g.k.",
"z.z.x.k.s.m.m.g.V.v.v.m.l.{ #.$.Y o F %.$.r $.:.$.3 e ) J.k.m.m.C.S.Z.Z.N.N.z.k.",
"A.z.k.k.k.m.m.V.v.V.m.m.m.G.@.#.>.% U >.=.Y -.Y.%.1 ]  .E.B.m.Z.S._._.S.B.k.N.x.",
"B.z.l.k.m.m.m.m.m.v.v.V.m.Q.G.@.-.H $.U.=.=.*.*.Y 1 ] @.E.B.V.Z.`.].`.S.N.g.g.k.",
"N.m.k.B.N.m.v.v.N.N.v.b.m.M.Q.G.z $.&.%.$.*.I r 3 ..f _ Q.l.B.Z.].[.`.S.B.g.g.z.",
"k.k.m.m.N.m.m.b.m.N.v.N.v.V.B.t.s r D * O 8 g y ..,.,.O.) g.k.^.[.}.`.S.m.k.a.g.",
"m.g.f.V.B.N.m.b.b.m.b.m.v.b.N.r.s B S 7 4 6 <.#.;.o.o.X.q u.k.^.[.}.`./.m.g.a.g.",
"M.a.m.V.b.V.b.v.v.b.v.b.b.k.l.t.i x M b 4 6 1.Y.>.G 3 t u u.l.Z.[.}.'.).B.g.g.k.",
"M.a.m.v.b.b.v.b.b.v.b.v.v.N.Q.| 9 X $ x . 5 I %.*.F V X.k s.M.B.`.'.'.S.B.k.N.S.",
"V.m.v.V.v.b.b.V.b.v.b.b.b.g.' j 5 X   # <.+ . # F r i } Q.V.m.m.V.^.^.B.z.x./._.",
"V.V.v.v.v.v.v.b.m.b.v.N.N.g.' 0 @ $ # 4 h > > , e i 3.E.(.B.m.s.a.k.B.k.z.x._.].",
"^.m.m.v.V.v.v.N.b.m.v.b.b.m.r.p > 3 y g p j ) ) ` 2.H.(.S.N.m.g.g.m.B.z.z.A./._.",
"V.l.m.m.v.m.m.v.v.N.N.k.b.N.!.t.p q q ` ~.z.V.C.S.S.S.Z.C.V.m.m.m.N.N.z.z.A.A./.",
"M.M.V.m.m.m.V.m.v.N.v.N.b.v.B.k.a.a.a.a.k.k.b.N.B.C.A.B.N.N.b.v.v.N.b.k.g.k.x.Z.",
"m.m.m.V.m.m.v.v.N.v.N.m.m.N.v.v.N.m.b.v.v.m.N.N.N.b.N.N.N.m.N.v.m.v.g.g.g.z.j.N.",
"g.V.m.V.v.m.v.N.v.v.N.b.v.N.N.b.N.b.b.N.N.N.N.v.v.v.b.g.b.N.b.N.N.g.g.g.k.g.z.k.",
"m.m.g.V.V.m.m.v.N.N.v.N.N.v.N.m.v.N.m.v.N.N.N.b.v.g.g.g.v.N.N.N.N.v.j.k.j.k.k.z.",
"m.l.m.m.V.m.m.m.b.N.v.N.b.v.N.b.N.v.N.N.N.N.N.k.g.g.g.v.v.N.N.N.N.z.g.k.N.k.g.z.",
"m.g.m.m.N.N.b.m.m.v.N.m.m.N.N.m.v.N.b.m.b.N.N.b.v.v.v.m.m.N.C.N.N.m.b.N.N.z.z.k.",
"m.a.g.k.m.m.N.b.N.v.N.b.k.b.v.N.v.N.N.b.N.N.b.N.m.v.N.b.N.N.C.N.N.N.b.m.k.g.N.g.",
"M.g.g.k.m.N.N.m.N.N.m.b.N.b.V.N.N.b.V.N.N.N.N.V.N.N.N.N.N.N.N.N.N.N.N.m.m.z.k.B."
};
