/* XPM */
static char *wall[] = {
/* columns rows colors chars-per-pixel */
"40 40 227 2 ",
"   c #365A0C",
".  c #38580B",
"X  c #38570F",
"o  c #3F4E1D",
"O  c #375713",
"+  c #395514",
"@  c #355B13",
"#  c #3B521B",
"$  c #395B1C",
"%  c #385B16",
"&  c #346315",
"*  c #35661B",
"=  c #3A671C",
"-  c #356B1B",
";  c #396C1D",
":  c #346D17",
">  c #2F741D",
",  c #35741C",
"<  c #39741E",
"1  c #337A1F",
"2  c #387A1E",
"3  c #3E5222",
"4  c #2F7624",
"5  c #357522",
"6  c #3B7421",
"7  c #377A22",
"8  c #3B7C25",
"9  c #357C2B",
"0  c #3B7D2C",
"q  c #37742A",
"w  c #367E34",
"e  c #3E6D25",
"r  c #424E23",
"t  c #474E2D",
"y  c #475429",
"u  c #57573B",
"i  c #535434",
"p  c #4B5532",
"a  c #417D26",
"s  c #4A6734",
"d  c #5C5D43",
"f  c #635C4B",
"g  c #695D51",
"h  c #596046",
"j  c #358326",
"k  c #3C8226",
"l  c #3B832B",
"z  c #3A8B2C",
"x  c #36822A",
"c  c #3C8532",
"v  c #378833",
"b  c #3A8D33",
"n  c #378938",
"m  c #38923C",
"M  c #43842C",
"N  c #448B2D",
"B  c #49862A",
"V  c #438A31",
"C  c #4B8A30",
"Z  c #428B3D",
"A  c #488A3E",
"S  c #499138",
"D  c #4C9734",
"F  c #539D3C",
"G  c #579739",
"H  c #56A33C",
"J  c #3C8C44",
"K  c #3C8A47",
"L  c #3A944C",
"P  c #399646",
"I  c #3C9B54",
"U  c #3A9953",
"Y  c #3FA15E",
"T  c #418B45",
"R  c #468E4B",
"E  c #478B46",
"W  c #499746",
"Q  c #559B43",
"!  c #429B57",
"~  c #4B9851",
"^  c #45975A",
"/  c #529955",
"(  c #4A8F53",
")  c #609F4F",
"_  c #5CA443",
"`  c #57A940",
"'  c #5CAB45",
"]  c #5DAC4A",
"[  c #56A245",
"{  c #5DB249",
"}  c #5CB246",
"|  c #48A25A",
" . c #56A55A",
".. c #63A245",
"X. c #62AC46",
"o. c #63AB4B",
"O. c #69AA4A",
"+. c #63B44D",
"@. c #69B34F",
"#. c #6AB94F",
"$. c #64A858",
"%. c #65B553",
"&. c #6DB453",
"*. c #66BA50",
"=. c #6DBB54",
"-. c #6DBD5C",
";. c #72BD56",
":. c #75B958",
">. c #529F68",
",. c #4E9C6A",
"<. c #49A667",
"1. c #4DA26D",
"2. c #44A468",
"3. c #55A76B",
"4. c #5EB06A",
"5. c #4CAB75",
"6. c #47AA72",
"7. c #54A473",
"8. c #53AB74",
"9. c #54AF7D",
"0. c #5CAD7C",
"q. c #5AA873",
"w. c #52B07B",
"e. c #5AB37D",
"r. c #66AE6A",
"t. c #68B766",
"y. c #75BD66",
"u. c #6ABD77",
"i. c #70BA7A",
"p. c #6CC156",
"a. c #6EC45A",
"s. c #75C25A",
"d. c #7BC55B",
"f. c #78C65A",
"g. c #7EC964",
"h. c #6EC17D",
"j. c #78C779",
"k. c #82C85E",
"l. c #83C465",
"z. c #83CC63",
"x. c #84CD6A",
"c. c #86CA69",
"v. c #89D467",
"b. c #83D269",
"n. c #8CD36B",
"m. c #91D46D",
"M. c #93DA6D",
"N. c #98DE6E",
"B. c #92D864",
"V. c #8AD57B",
"C. c #94DB72",
"Z. c #9ADE74",
"A. c #95D976",
"S. c #9AE06F",
"D. c #9CE275",
"F. c #9DE27B",
"G. c #9CE67A",
"H. c #A1E476",
"J. c #A3E67B",
"K. c #A5E97C",
"L. c #AAEC7E",
"P. c #ADF17F",
"I. c #57AF85",
"U. c #4FB087",
"Y. c #4DB08A",
"T. c #56B483",
"R. c #5AB383",
"E. c #5EB887",
"W. c #53B48C",
"Q. c #5CB68C",
"!. c #5DBB8D",
"~. c #5ABB94",
"^. c #59B891",
"/. c #4CAF8A",
"(. c #69AF81",
"). c #64B685",
"_. c #63BC8E",
"`. c #65B58A",
"'. c #64BD94",
"]. c #63BF98",
"[. c #6BBF9A",
"{. c #6ABD93",
"}. c #5FC199",
"|. c #6DC28D",
" X c #76C887",
".X c #66C196",
"XX c #6DC393",
"oX c #63C29B",
"OX c #6DC49D",
"+X c #66C89F",
"@X c #6BCA9E",
"#X c #72C59E",
"$X c #7AC59E",
"%X c #71C99D",
"&X c #74C596",
"*X c #6EC7A1",
"=X c #6CCAA3",
"-X c #6DC9A8",
";X c #64C5A0",
":X c #72C6A1",
">X c #7BC6A2",
",X c #72C9A3",
"<X c #7ACAA5",
"1X c #75C5A9",
"2X c #73CAAA",
"3X c #7BCDAA",
"4X c #7FD3AD",
"5X c #79D0A7",
"6X c #92DC86",
"7X c #84CF97",
"8X c #89D68E",
"9X c #9BE288",
"0X c #AAED82",
"qX c #A4EA81",
"wX c #B1ED82",
"eX c #AFF282",
"rX c #ADF08A",
"tX c #B3F485",
"yX c #B7F688",
"uX c #B8F789",
"iX c #B7F888",
"pX c #81D3AD",
"aX c #85D5B1",
"sX c #85DAB2",
"dX c #8DDCB9",
"fX c #8FD9B6",
"gX c #8BE0B8",
/* pixels */
"3X1X1X1X1X2X2X-X=X5X=X=X+X+X+X@X5X2X,X7X8X7X=X2X,X<X<X<X<X<X<X2X<X1X<X,X,X<X<X,X",
"2X2X-X2X-X-X=X=X+X+X}.}.^.W.^.}.+X=X@X8X9X6XXX@X@X=X=X=X=X2X,X*X=X:X#X#X@X#X%X:X",
"2X-X-X-X-X+X=X=X=X+X}.~.W.U.W.}.XX%X X9XK.G. X X&XOX@X,X,X,X2XOX*X:X#X=X#X,XOX#X",
"2X-X;X~.;X+X=X=X=X@X}.!.W.U.T.|. X8XV.G.P.G.g.j. XXXOX,X,X,X:X=XOX*X:X#X:X#X,X,X",
"-X}.}.~.}.;X+X-X=X=X=X~.W.U.R.h.C.G.G.0XeXG.v.v.x.h.{.*X,X,X=XOXOXOX:X:X:X:X#X,X",
";X}./././.}.+X=X=X=X+X~.W.9.u.j.C.qX0XtXP.P.G.G.C.V. X{.,X=X,X*X*XOX=X:X%X:X%X:X",
"-X}./././.}.+X+X=X=XoXQ.e.4.t.x.G.0XtXiXiXeXeXG.D.n.g.u.|.OX,X*X=XOX*X:X:X*X,X#X",
"=X}.~.}.W.Y.}.;X+XOX.X8.t.%.=.z.G.eXiXiXiXiXiXP.F.x.;.&.u.|.@X,X,X*X,X*X%X:X#X,X",
"-X;X}.+X~.Y.W.W.[.OX'. .-.=.s.C.J.tXyXyXiXiXtXJ.D.C.g.#.s.i.XX,X2X=X#X=X#X,XOX,X",
"=X;X+X=X[.I.I.W.].].I.t.g.s.s.n.Z.eXwXtXtXtXP.G.M.n.z.;.x.h.XX,X,X=XOXOX@X#X#X,X",
",X*X:X:X[.^.^.~.].`.1.y.c.l.d.k.D.0XH.H.J.D.D.D.M.z.s.s.v.j. X*X2X*XOX=X*X#X,X#X",
":X#X#X:X:XOX[.[.'.9.^ y.m.n.k.;.z.n.M.H.K.H.D.M.g.=.s.z.A.c.i..X*X:X+XOX*X:X#X,X",
"OX#X#X#X>X:X:X*X_.1.E :.A.M.l.d.f.;.z.N.H.H.N.z.#.#.f.c.Z.l.r.0.'.*X*XOXOX#X:X:X",
"#X%X>X>X#X>X:X[.).>.E :.c.k.l.A.Z.f.s.f.z.d.s.#.f.d.d.;.m.l.) ( 7.*X=X,X,X=X$X:X",
"OX%X>X1X>X>XOX*X_.r.$.G O.c.F.rX0XM.f.+.} } p.d.B.B.B.k.O.G ) $.q.OX:X@X@X,X%X,X",
"@X#X$X7X>X#X:X*X_.r.[ V ..l.Z.rXqXH.N.n.b.b.g.n.M.N.D.M.X.D G $.q.OX*X=X#X#X:X:X",
"@X%X>X>X>X:X>X[.R. .` Q _ &.c.M.Z.qXL.K.K.J.Z.Z.A.v.v.b.] Q Q Q 3.{.OX*X,X#X#X:X",
"@X%X$X$X>X>X:X'.3.~ ] *.] @.&.;.z.K.0XL.wXwXJ.F.x.:.=.;.] %.] Q ~ {..X,X,X:XOXOX",
"=X%X$X>X[.>X:X0.( W ;.=.*.@.+.` ' x.m.J.tXL.m.x.=.' ] *.{ -.=.` Z R..X*X,X%X#X#X",
"@X%X$X>X[.>X#X0.~ Q X.} p.a.p.+.D G :.m.Z.C.d.` D ` =.a.a.%.' H Q 7.OX,X2X%XOX#X",
",X%X%X$X[.>X[.,.T M M F #.#.p.p.` D X.=.;.;.*.F H #.s.#.y.[ V M S q.>X3X,X,X:X:X",
",X%X#X$X#X#X#X,.T a k M _ O.;.f.+.{ { { { } { ' { =.f.#.] S l M E `.4X4X,X$X,X:X",
",X,X:X:X:X:X[.7.R Z N 2 C ..O.&.X.=.+.{ { } { *.+.+.&...S l M D /  XaX4X,X#XOX:X",
",X$X:X,X:X:XOX1.R W z 7 < 6 B G ..=.+.{ { *.{ p.X.D C 6 6 2 l S / `.pXpX,XOXOX#X",
"$X#X:X1X,X,XOX1.K c 9 l l 6 , 2 ) &.X.@.=.@._ &...B , < k k l l E (.pXpX[.[..X#X",
">XOX[.1X2X#X*XR.U w 7 j l l 9 6 B B B G ..Q k C B a 6 l j k 8 w ,.7XaXpX>X#X[..X",
">X[.*X-X2X:X=X.X7.K 5 5 x z c 9 6 a 2 a C B , 8 0 0 0 c j 5 5 T 0.fXdXaX<XOXOX,X",
">X[.*X*X*X=X*X*X`.^ q > l c z l l k 8 6 8 8 2 k l l l c l > 5 ( $XdXdXaX<X*X<X3X",
">X*X*X*X=X*X=X:X~.,.w 4 0 0 8 7 l 8 8 k z z 2 a k 9 6 M k 4 x ^ {.3X3X<X%X5XpXsX",
"<X1X1X*X*X*X:XoX9.I n 8 * ; ; , M - = 8 z j * - 6 5 - ; : 7 n U 8.[.1X:XOX5XsXgX",
"1X1X*X*X:X*X:X!.<.P z < & & @ & = $ $ e l 9 $ $ = * @ & @ ; l J I !.%X,X#X,XpXsX",
"1X>X1X1X:X:X:XE.| b z - @ O O O $ # p s s s p 3 $ @   .   - 8 b P R.OX,X%X,X5XpX",
":X:X1X>X1X#X*XQ.| b j : &   O O O r u u d h d t # X . .   = 8 b P T.+XOXOX%X,X5X",
":X1X1X:X:X:X*X_.<.m z 2 & @ O O # o i f g g u t + O .   & , l P I T..XOXOX#X%X,X",
":X1X>XOX1X*X:X+Xe.Y b j 5 * @ % O O o t p t r # O     & 1 x m U 6.'.OX#X#XOX%X#X",
"#X:X:X1X:X:X:X:X.Xw.Y m n 0 6 - @ O # # o # % O @ & - 9 x m U 6.!.OXOX*X=XOX#X%X",
":X:X1X,X:X:X:X*X#X'.e.<.U L n 9 5 ; = = = = - * 5 q n K U I 5._.OX,X#X:X:XOX#X#X",
":X[.#X:X,X,X*X,X,X#X+X'.9.<.Y U P b Z A T Z Z J P L I <.6.Q..XOX2X,X@X,X,X%X@X$X",
":XOX[.OX:X:X,X:X*X=X=X:XOX].Q.w.8.8.8.3.7.8.8.8.8.w.T.].OXOX,X2X,X=X#XOX:X@X#X:X",
"<XOXOX#X:X,X:X=X2X:X:X:X2X:X2X*X=X:X,X2X:X,X:X:X:X<X*X2X2X2X,X,X,X,X,X,X:X#X:X:X"
};
