/* XPM */
static char *win[] = {
/* columns rows colors chars-per-pixel */
"40 40 237 2 ",
"   c #2B251C",
".  c #081D2D",
"X  c #151C28",
"o  c #021D32",
"O  c #271D26",
"+  c #062137",
"@  c #012239",
"#  c #162639",
"$  c #342421",
"%  c #332E2D",
"&  c #252934",
"*  c #4A1919",
"=  c #701912",
"-  c #432719",
";  c #57271B",
":  c #49361E",
">  c #6A3312",
",  c #4E1E21",
"<  c #55282E",
"1  c #4D342F",
"2  c #722F28",
"3  c #40403E",
"4  c #714D35",
"5  c #032B43",
"6  c #01324E",
"7  c #17374B",
"8  c #003654",
"9  c #2C494F",
"0  c #004264",
"q  c #01476B",
"w  c #0A4F70",
"e  c #04557A",
"r  c #2B5561",
"t  c #106B7A",
"y  c #2B7578",
"u  c #585352",
"i  c #6E564A",
"p  c #7B6A4C",
"a  c #66685A",
"s  c #726D54",
"d  c #534C65",
"f  c #44706D",
"g  c #667C65",
"h  c #767D63",
"j  c #BB1F1A",
"k  c #8F2D11",
"l  c #993D16",
"z  c #AA2B1A",
"x  c #B22F12",
"c  c #AC3317",
"v  c #B93619",
"b  c #8D362A",
"n  c #A2362B",
"m  c #B63A26",
"M  c #CB0E09",
"N  c #C82917",
"B  c #D22E1B",
"V  c #CC371D",
"C  c #D8371D",
"Z  c #E53A1F",
"A  c #CC3124",
"S  c #D93822",
"D  c #E53720",
"F  c #E23923",
"G  c #EA3921",
"H  c #9C530A",
"J  c #8D4417",
"K  c #9D451C",
"L  c #8A5217",
"P  c #925212",
"I  c #AD5409",
"U  c #BB5B08",
"Y  c #A74815",
"T  c #AF4C10",
"R  c #A85917",
"E  c #B26C0E",
"W  c #8E4E30",
"Q  c #984937",
"!  c #B6492D",
"~  c #AA5C2A",
"^  c #A74533",
"/  c #A7563A",
"(  c #986632",
")  c #AA672A",
"_  c #AE6F36",
"`  c #BA773C",
"'  c #C5470A",
"]  c #C65708",
"[  c #D85908",
"{  c #CB4316",
"}  c #D64614",
"|  c #FD5505",
" . c #EC451C",
".. c #F74A12",
"X. c #E85213",
"o. c #F25416",
"O. c #C8670C",
"+. c #DB6706",
"@. c #D46815",
"#. c #E56A05",
"$. c #F5680C",
"%. c #EA7503",
"&. c #F57504",
"*. c #F97706",
"=. c #F57A02",
"-. c #FC7D01",
";. c #F66115",
":. c #E57213",
">. c #C9482B",
",. c #E74E31",
"<. c #CE6F2B",
"1. c #EE6C2D",
"2. c #9A3F43",
"3. c #855545",
"4. c #995C4C",
"5. c #B45748",
"6. c #896748",
"7. c #976947",
"8. c #8C754C",
"9. c #956753",
"0. c #AB7647",
"q. c #A96559",
"w. c #B16F53",
"e. c #8B7870",
"r. c #A27A68",
"t. c #E05A49",
"y. c #D06D54",
"u. c #D8735B",
"i. c #7D875A",
"p. c #5C866D",
"a. c #5D997C",
"s. c #69846A",
"d. c #778568",
"f. c #718B71",
"g. c #67987B",
"h. c #789979",
"j. c #6EA179",
"k. c #77A37C",
"l. c #FF8101",
"z. c #FB870B",
"x. c #F9870F",
"c. c #FD9515",
"v. c #D3AE03",
"b. c #F0AB12",
"n. c #D2882F",
"m. c #E98A31",
"M. c #F9AE30",
"N. c #F6B53A",
"B. c #F3D203",
"V. c #FCE500",
"C. c #8D8B59",
"Z. c #B69948",
"A. c #A88A51",
"S. c #978C69",
"D. c #98936A",
"F. c #998576",
"G. c #8F9070",
"H. c #8A9977",
"J. c #AE9174",
"K. c #A59679",
"L. c #89A57E",
"P. c #94A076",
"I. c #B4B072",
"U. c #CC8948",
"Y. c #EB9C42",
"T. c #C0A048",
"R. c #DBB145",
"E. c #F0AF4C",
"W. c #ECB843",
"Q. c #F3BB43",
"!. c #C7916A",
"~. c #FEC646",
"^. c #FDCB49",
"/. c #FFD14E",
"(. c #FFDB56",
"). c #FFE45D",
"_. c #FEE760",
"`. c #FEEC66",
"'. c #FFF067",
"]. c #FFF56C",
"[. c #FFFF75",
"{. c #015B85",
"}. c #03628D",
"|. c #047585",
" X c #016694",
".X c #006897",
"XX c #006999",
"oX c #0C8AB3",
"OX c #2E93AE",
"+X c #589785",
"@X c #449390",
"#X c #749984",
"$X c #5AA786",
"%X c #53B48D",
"&X c #58B696",
"*X c #5ABB94",
"=X c #69A889",
"-X c #75A988",
";X c #68B08E",
":X c #76B08F",
">X c #63AB90",
",X c #67B693",
"<X c #6CB392",
"1X c #6CBA96",
"2X c #6CBD9A",
"3X c #77B895",
"4X c #5FC199",
"5X c #62C39C",
"6X c #6DC49D",
"7X c #68C89E",
"8X c #71C59E",
"9X c #76C49D",
"0X c #6EC6A1",
"qX c #6AC7A5",
"wX c #6BCBA3",
"eX c #72C6A1",
"rX c #78C7A7",
"tX c #72C9A3",
"yX c #7ACAA6",
"uX c #73CAAA",
"iX c #7ED3AB",
"pX c #0D95C3",
"aX c #0DA8DB",
"sX c #15A3D2",
"dX c #26A1CB",
"fX c #8F9695",
"gX c #AB8E88",
"hX c #8DAE8D",
"jX c #85BB96",
"kX c #B1AD93",
"lX c #B4A7A1",
"zX c #D1958F",
"xX c #D3B4A6",
"cX c #86C29F",
"vX c #81C4A1",
"bX c #85DAB2",
"nX c #8BE0B8",
/* pixels */
"rXrXuXuXuXuXuXuXwXwXwX7X7X7X2Xh.=XuXtXhXh.8XtXtXtXcXkXhXiXcXcXiXtXyXtXyXtXyXtXyX",
"uXuXqXuXuXqXwXqXwX7X7X4X%X%X$X/ h 6X:XU._ ,X0X6XcXu.u.kXgXu.!.cXeXeXtXeX6X8XtX8X",
"uXuXqXqXqXwXwXwXwX7X4X*X%Xa.s V s.H.n.@.d.6X6XjXI.;.t.u.o.M.kX9X0XtXtX8X8X8XtXtX",
"uXqXqX5X5X5XwXwXwX7X4X*X%Xs.T ' U :.$./ :XhXhX!.b.o.| ..l.!.9X6X6X0X0XeXtX8X8XtX",
"wX4X*X%X4X4XqXwXwXwX6X*Xk.` *.-.l.*. .7.2XjX,.x.v.E B.z.| t.jX6X7X6XeX0XtX8X8XtX",
"wX*X%X%X%X4XwXwXwXwX5Xk.` :.*.&.#.l.$.S g ,XR.V.E { E v.N.I.9X6X0X6X0XeX8XtX8XtX",
"qX*X%X%X%X4X5XhXhX7X2Xg v } >.w.y.=.-...^ $XI.V.B.H C Y ) P.:X8XwX6X8XwXtX8XtX8X",
"wX5X*X%X%X%XH.<.C.6X5X$XW } Y J.m.&.o. .S a J.l.V.v.v S I H ) 0.H.6XtX8XtX8X8XtX",
"uX5X5X5X&Xh.Z.@.j.6X3XD.@.*.l.=.] c S G S W w.z.v.b.K k X 5 9 l W 1X0X0XeXeXeXeX",
"tXwX6X8XL.` $.~ %X1X0.#.-.&.#.' v D D G G m -X!.K ` G.b 7 6 e 9 z #X0XqX0XeX8XeX",
"tX0X8XP._ R > m =X6XH.#.%.~ v S ! k v D G S s.3X7.d.8Xp < q 0 e b h 6X6X0X8XeXeX",
"eXeXP.~ : 7 5 2 g.eX1X8.Y m / h -Xs.A G G F h :X<.f.7Xg.2 q q e 1 ~ <X6X0XeXeXeX",
"6X8XA.J @ e 5 < p 1XrX1X=Xg =X2XeX<X^ G G G ~ 0.<.k.8Xf.2 6 {.{.t L D.8X8XtX8X8X",
"8X8X7.- 6 {.6 # Q #X1XrXeXuX0XeX0X,X^ G G G ] E Z.;X-X3.% 6 {. X.X9 ) 3XtX8XtXtX",
"6X9X_   0 XXq 0 u b 3.i g.1XeXeXeX>Xm G G o.%.p =Xs / < + @ {. XXXe L D.8X8X8XtX",
"7XhX( & e XXq q }.q & 2 l 6.<X:XH.6.m G  .$.l._ 9.R % @ @ @ 0 XXXX X9 R D.8X8XtX",
"6XD.L 6 }.XX}.q .X.X6 @ & T W 4 U c C Z o.-.l.#.k = X o o @ 0 XXXX}.8 $ ) 3X8X8X",
"9X` : 0 XXXX}.e XXXX9 >   - R @.Y v  .$.-.l.-.-.[ S z = O . 7 d 2.2.< # b -X6X8X",
"P.I & 0 XXXX.X XXX}.4 %.+.+.&.$.Z { *.-.-.l.l.-.*.Z Z B } P 3.y.!.F M * b -X6X6X",
"A.H . 6 .XXXXXXX.X}.P &.l 2 x Z Z $.-.-.-.l.l.l.-.T 4 $ Y +.b K.eXF.M = i 6X8X8X",
"H.P o @ e .X}.r e r E #.$ . - ] $.-.l.z.c.z.c.z.l.@.j.f O U 0.e.:X:Xs < a 6X8X8X",
":XK X @ 6 }.u +.: 3 %.%.: . H -.l.z.M.^.'.'.`.).M.=.S.=X9 ( r.p F.lXgX4 s.8XtXyX",
"1X4.= @ @ 7 E %.H I -.l.+.> %.-.c.(.].[.[.[.[.[.].M.0.2Xi.W 4 / r.xXlXW j.<X-XtX",
"9Xd.n + o : %.O.' =.l.+.[ T +.-./.[.[.[.[.[.[.[.[.`.<.h.( !.4 K.fXkXlXi =Xr.5.-X",
"9X1X4.; o > l.I m k X.l k x U M.].[.[.[.[.[.[.[.[.[.Y.W 5.xXi 0.F.fXr.3 +XgXJ.fX",
"eX6Xh.n O ; =.=.) Y c Q H U =./.[.[.[.[.[.[.[.[.[.[.E./ f.gXa ( zXgXfX3 a a g <X",
"rX8X3X3.z * } $.&.%.U O.z.l.x.`.[.[.[.[.[.[.[.[.[.`.Q.T S.3X3Xq.zXy.9.p p 9.>XrX",
"yX1X1XA.) k z G [ [ =.l.l.l.+.T.[.[.[.[.[.[.[.[.`.(.Q.O.<.:X9Xw.zX>.j 0.p h.0XuX",
"rXeX2XhXW._ V Z V +.c.z.l.-.$.Y ^.`.].[.[.].].`._.(.N.l.=.D.3X5.J.S M 7.k.8XiXbX",
"vXrXeX<XZ.~.N.1.V $.c.c.-.*.X.J W.~./.(.(./.^.(./.^.m.#.l._ >Xr 9 < , g 8XyXbXnX",
"rXrXeX8Xh.R.~.N.S  .;.*.$.o.S ~ W.~.~.~.~.~.~.~.~.~.<.Z ..4.@XpXe oXoX$X8XyXiXbX",
"rXeXeXeX9Xk.R.E.{ G G G G G m n.~.~.~.~.~.~.~.~.~.m.S D G m OXaXw pXsX*X8XwXiXiX",
"eXrXeXrXeXeX#XA.v G G G G S ) Q.~.~.~.~.~.~.~.N.n.,.Z B A q.OXaX|.OXaX>X6X8XtXiX",
"eXrXrXeXrXeXeX3X9.F G N S c R.~.~.~.~.~.^.W.Z._ S F G Z A fXdXaXrXOXaXOX8X8X8XyX",
"eXeX8XeXeXeXeX3X9.D D B A 4 C.Z.T.T.T.Z.i.f.;Xa.m G G Z z #XoXOX<X@XXX+X8X7X8X8X",
"eXeXrXeXeXeX<Xq.S G G G V g.6X;X;X>X,X,X0X0X8X;Xm G F C B u pXOX1X@X}.@X7X8XtX8X",
"eXeXrXeXtXeX-X2.5.A >.A / =XeX0XeXeXtXeXtXtXtX2Xh 4.q.J.q.f pX@X8X+X|.y ,X2X8X8X",
"rX2XeXtXeX0XhXe.e.e.r.lXs.qX0XeXwXeXwXeXtXuXtX0X2X;X$XfXd r .Xf 6X+Xt t >X8X8X8X",
"eX8X2X6XeXeX1X<X+X<X=X<X0X0XtX0XwXeX0XtXtXwXuX0XrX0XeX2Xp.< r |.6X+Xu i ;X8XeXeX",
"eX2X6X9XeXeXeXeXuXuXeX0XuXeXtXtXtXeXuXtXeXtXeXeXeXeXtX0X+Xf.g >XeX2X+X=X1XeX8XtX"
};
